<?xml version="1.0" standalone="no"?>
<!DOCTYPE svg PUBLIC "-//W3C//DTD SVG 1.1//EN" "http://www.w3.org/Graphics/SVG/1.1/DTD/svg11.dtd" >
<svg xmlns="http://www.w3.org/2000/svg" xmlns:xlink="http://www.w3.org/1999/xlink" version="1.1">
<metadata>
Created by FontForge 20170731 at Tue May 13 17:51:48 2014
 By Aleksey,,,
Copyright (c) 2014 by FONTYOU. All rights reserved. www.fontyou.com
</metadata>
<defs>
<font id="WesFY-Medium" horiz-adv-x="209" >
  <font-face 
    font-family="Wes FY Medium"
    font-weight="500"
    font-stretch="normal"
    units-per-em="1000"
    panose-1="2 11 6 5 3 2 1 2 1 4"
    ascent="800"
    descent="-200"
    x-height="525"
    cap-height="720"
    bbox="-250 -230 1104 981"
    underline-thickness="50"
    underline-position="-150"
    unicode-range="U+000D-FB02"
  />
<missing-glyph horiz-adv-x="602" 
d="M305 435q16 29 41.5 47t56.5 18q43 0 71 -29.5t28 -75.5q0 -30 -13.5 -65t-39 -70t-63 -67.5t-85.5 -57.5q-48 25 -85.5 57.5t-63 67.5t-39 70t-13.5 65q0 46 28 75.5t71 29.5q31 0 56.5 -18t41.5 -47h8z" />
    <glyph glyph-name="fi" unicode="fi" horiz-adv-x="544" 
d="M10 525h75v22q0 88 44 136t122 48q29 0 44 -2t30 -6v-81q-11 3 -28 5.5t-34 2.5q-38 0 -58.5 -24t-20.5 -82v-19h141v-78h-141v-447h-99v447h-75v78zM390 525h99v-525h-99v525zM440 604q-26 0 -44 18.5t-18 44.5t18 45t44 19t43.5 -19t17.5 -45t-17.5 -44.5t-43.5 -18.5z
" />
    <glyph glyph-name="fl" unicode="fl" horiz-adv-x="544" 
d="M10 525h75v22q0 88 44 136t122 48q29 0 44 -2t30 -6v-81q-11 3 -28 5.5t-34 2.5q-38 0 -58.5 -24t-20.5 -82v-19h141v-78h-141v-447h-99v447h-75v78zM390 720h99v-720h-99v720z" />
    <glyph glyph-name=".notdef" horiz-adv-x="602" 
d="M305 435q16 29 41.5 47t56.5 18q43 0 71 -29.5t28 -75.5q0 -30 -13.5 -65t-39 -70t-63 -67.5t-85.5 -57.5q-48 25 -85.5 57.5t-63 67.5t-39 70t-13.5 65q0 46 28 75.5t71 29.5q31 0 56.5 -18t41.5 -47h8z" />
    <glyph glyph-name=".null" horiz-adv-x="300" 
 />
    <glyph glyph-name=".null" horiz-adv-x="300" 
 />
    <glyph glyph-name="nonmarkingreturn" unicode="&#xd;" horiz-adv-x="300" 
 />
    <glyph glyph-name="space" unicode=" " horiz-adv-x="200" 
 />
    <glyph glyph-name="exclam" unicode="!" horiz-adv-x="293" 
d="M95 720h103l-11 -529h-81zM147 -11q-26 0 -44 18.5t-18 44.5t18 45t44 19t43.5 -19t17.5 -45t-17.5 -44.5t-43.5 -18.5z" />
    <glyph glyph-name="quotedbl" unicode="&#x22;" horiz-adv-x="460" 
d="M264 720h105l-18 -241h-69zM92 720h104l-17 -241h-70z" />
    <glyph glyph-name="numbersign" unicode="#" horiz-adv-x="685" 
d="M130 565h93l42 155h93l-42 -155h156l42 155h93l-42 -155h90l-23 -78h-89l-69 -254h105l-23 -78h-103l-42 -155h-94l42 155h-155l-42 -155h-94l42 155h-80l23 78h79l69 254h-94zM225 233h156l69 254h-156z" />
    <glyph glyph-name="dollar" unicode="$" horiz-adv-x="561" 
d="M101 178q27 -39 69 -69t105 -30q72 -1 110.5 29t38.5 86q0 31 -10.5 52.5t-30 37.5t-48.5 27t-65 22q-47 14 -86.5 32t-67.5 42.5t-43.5 58.5t-15.5 79q0 30 11 60t33 54.5t54 42.5t74 25v92h96v-91q69 -10 113.5 -43.5t71.5 -77.5l-72 -55q-36 47 -71.5 68t-85.5 21
q-33 0 -56 -8t-37.5 -21.5t-21 -32t-6.5 -39.5q0 -44 31.5 -71t107.5 -50q48 -15 90 -33t72.5 -43.5t48 -60.5t17.5 -83q0 -35 -11.5 -70t-36 -63.5t-63 -48t-91.5 -25.5v-91h-96v92q-75 9 -122.5 43t-78.5 84z" />
    <glyph glyph-name="percent" unicode="%" horiz-adv-x="743" 
d="M542 -11q-77 0 -122.5 49t-45.5 137t45 136.5t123 48.5t123 -48.5t45 -136.5t-45 -137t-123 -49zM541 65q45 0 67 28.5t22 80.5q0 54 -22.5 82t-66.5 28q-42 0 -64.5 -28t-22.5 -82q0 -52 22.5 -80.5t64.5 -28.5zM585 720h83l-510 -720h-83zM201 360q-77 0 -122.5 48.5
t-45.5 136.5t45 137t123 49t123 -49t45 -137t-45 -136.5t-123 -48.5zM200 436q45 0 67 28t22 80q0 54 -22.5 82.5t-66.5 28.5q-42 0 -64.5 -28.5t-22.5 -82.5q0 -52 22.5 -80t64.5 -28z" />
    <glyph glyph-name="ampersand" unicode="&#x26;" horiz-adv-x="616" 
d="M261 354q-26 -2 -49.5 -11.5t-41 -26.5t-27.5 -41.5t-10 -55.5q0 -39 14 -66.5t38 -45.5t55.5 -26.5t65.5 -8.5q33 0 63 9t52.5 27.5t36 46.5t13.5 65q0 55 -34 91.5t-88 42.5v78h257v-78h-95q28 -26 43.5 -61.5t15.5 -79.5q0 -53 -21.5 -94.5t-58 -70t-86 -44
t-105.5 -15.5t-104.5 14t-85.5 42.5t-58 71t-21 98.5q0 66 30 111t81 68q-42 21 -66.5 59.5t-24.5 93.5q0 43 17.5 77.5t48.5 58t72.5 36t88.5 12.5q85 0 137 -33.5t73 -90.5l-81 -44q-36 85 -131 85q-23 0 -45 -5.5t-39 -18t-27.5 -32.5t-10.5 -48q0 -53 31 -80t77 -32v-78
z" />
    <glyph glyph-name="quotesingle" unicode="'" horiz-adv-x="288" 
d="M92 720h104l-17 -241h-70z" />
    <glyph glyph-name="parenleft" unicode="(" horiz-adv-x="408" 
d="M299 -176q-44 50 -83.5 104t-68.5 112t-46 121t-17 131t17 131t46 121t68.5 112t83.5 104l70 -56q-39 -45 -72.5 -92.5t-57.5 -98.5t-38 -106t-14 -115t14 -114t39 -104t58.5 -97t72.5 -92z" />
    <glyph glyph-name="parenright" unicode=")" horiz-adv-x="408" 
d="M37 -115q39 45 72.5 92t58.5 97t39 104t14 114t-14 115t-38 106t-57.5 98.5t-72.5 92.5l70 56q44 -50 83 -104t68.5 -112t46.5 -121t17 -131t-17 -131t-46.5 -121t-68.5 -112t-83 -104z" />
    <glyph glyph-name="asterisk" unicode="*" horiz-adv-x="502" 
d="M251 465l-96 -132l-48 36l95 131l-154 51l18 57l155 -51v163h60v-163l155 51l18 -57l-155 -51l96 -131l-48 -36z" />
    <glyph glyph-name="plus" unicode="+" horiz-adv-x="510" 
d="M69 379h145v144h82v-144h145v-83h-145v-144h-82v144h-145v83z" />
    <glyph glyph-name="comma" unicode="," horiz-adv-x="307" 
d="M116 112h98l-83 -243h-62z" />
    <glyph glyph-name="hyphen" unicode="-" horiz-adv-x="330" 
d="M30 304h270v-83h-270v83z" />
    <glyph glyph-name="period" unicode="." horiz-adv-x="298" 
d="M149 -11q-26 0 -44 18.5t-18 44.5t18 45t44 19t43.5 -19t17.5 -45t-17.5 -44.5t-43.5 -18.5z" />
    <glyph glyph-name="slash" unicode="/" horiz-adv-x="434" 
d="M332 720h102l-332 -720h-102z" />
    <glyph glyph-name="zero" unicode="0" horiz-adv-x="655" 
d="M327 -11q-66 0 -120.5 25t-93 73t-59.5 117t-21 156t21 156t59.5 116.5t93 73t120.5 25.5q67 0 121.5 -25.5t93 -73t59.5 -116.5t21 -156t-21 -156t-59.5 -117t-93 -73t-121.5 -25zM326 79q91 0 142 73t51 206q0 135 -51 209t-143 74q-90 0 -139.5 -74t-49.5 -209
q0 -133 49.5 -206t140.5 -73z" />
    <glyph glyph-name="one" unicode="1" horiz-adv-x="321" 
d="M50 720h186v-720h-102v632h-114z" />
    <glyph glyph-name="two" unicode="2" horiz-adv-x="523" 
d="M15 86q106 101 177.5 167.5t115 113.5t62 82t18.5 74q0 56 -36.5 88.5t-92.5 32.5q-57 0 -95.5 -34t-55.5 -88l-87 30q10 43 33 76t55 56t71.5 35t83.5 12q47 0 88.5 -13t72 -38.5t48.5 -62t18 -83.5q0 -42 -15 -81.5t-54.5 -89t-108.5 -116t-176 -161.5h368v-86h-490v86
z" />
    <glyph glyph-name="three" unicode="3" horiz-adv-x="532" 
d="M102 173q23 -46 59.5 -71.5t93.5 -25.5q31 0 57 9t45.5 26t30.5 41t11 55q0 36 -14 60t-38 38.5t-56 20.5t-68 6h-46v79h44q33 0 62.5 6.5t51 21t34 38t12.5 56.5q0 26 -10 46.5t-27.5 35t-40.5 22t-49 7.5q-54 0 -93 -28.5t-55 -79.5l-80 35q10 39 32 69t52 50.5
t67 30.5t78 10q46 0 87.5 -12t73 -35t50 -58t18.5 -81q0 -66 -33 -106.5t-85 -63.5q59 -20 97.5 -61.5t38.5 -111.5q0 -52 -20.5 -92t-55 -67t-80 -40.5t-94.5 -13.5q-81 0 -143 36t-89 107z" />
    <glyph glyph-name="four" unicode="4" horiz-adv-x="537" 
d="M67 230l368 500v-500h84v-84h-84v-146h-101v146h-329zM334 230v249l-180 -249h180z" />
    <glyph glyph-name="five" unicode="5" horiz-adv-x="518" 
d="M97 163q20 -42 56 -64.5t83 -22.5q32 0 60 10.5t49 30t33 48.5t12 67q0 48 -16.5 78t-42.5 47.5t-58.5 24t-63.5 6.5q-45 0 -79.5 -8.5t-64.5 -22.5l82 363h321v-86h-248l-41 -170q10 3 26 5.5t36 2.5q45 0 90 -12.5t81 -40.5t58.5 -73t22.5 -110q0 -59 -20 -104.5
t-54.5 -77.5t-82 -48.5t-101.5 -16.5q-36 0 -69 8t-62 24.5t-51.5 41t-37.5 58.5z" />
    <glyph glyph-name="six" unicode="6" horiz-adv-x="587" 
d="M300 721h117l-250 -293q31 32 65 47t80 15q57 0 103 -19t79 -52t50.5 -77.5t17.5 -96.5q0 -56 -19 -103t-53.5 -80.5t-83 -52.5t-107.5 -19q-134 0 -204 69.5t-70 187.5q0 45 11.5 86.5t31 80.5t45.5 76t56 73zM297 74q74 0 118.5 45.5t44.5 123.5q0 38 -12.5 69
t-35 52.5t-54 33.5t-70.5 12q-73 0 -116.5 -45.5t-43.5 -120.5q0 -78 46 -124t123 -46z" />
    <glyph glyph-name="seven" unicode="7" horiz-adv-x="509" 
d="M362 634h-342v86h479l-307 -720h-104z" />
    <glyph glyph-name="eight" unicode="8" horiz-adv-x="560" 
d="M22 201q0 62 32.5 109t93.5 72q-48 23 -73 63.5t-25 92.5q0 91 60 142t169 51q110 0 170 -51t60 -142q0 -52 -25 -92.5t-73 -63.5q61 -25 94 -72t33 -109q0 -100 -68 -156t-190 -56q-123 0 -190.5 56t-67.5 156zM125 204q0 -63 40.5 -97.5t112.5 -34.5q74 0 115 34.5
t41 97.5q0 65 -41 102t-115 37q-73 0 -113 -37t-40 -102zM153 532q0 -54 32.5 -84.5t92.5 -30.5t94 30.5t34 84.5q0 55 -34 85.5t-94 30.5t-92.5 -30.5t-32.5 -85.5z" />
    <glyph glyph-name="nine" unicode="9" horiz-adv-x="587" 
d="M420 292q-31 -32 -65.5 -46.5t-79.5 -14.5q-57 0 -103 19t-79 52t-50.5 77.5t-17.5 96.5q0 56 19 103t53.5 80.5t83 52.5t107.5 19q134 0 204 -69.5t70 -187.5q0 -45 -11.5 -86.5t-31 -80.5t-45.5 -76t-56 -73l-131 -158h-117zM127 478q0 -38 12.5 -69t35 -52.5t54 -33.5
t70.5 -12q73 0 116.5 45.5t43.5 120.5q0 78 -46 124t-123 46q-74 0 -118.5 -45.5t-44.5 -123.5z" />
    <glyph glyph-name="colon" unicode=":" horiz-adv-x="298" 
d="M149 409q-26 0 -44 18.5t-18 44.5t18 45t44 19t43.5 -19t17.5 -45t-17.5 -44.5t-43.5 -18.5zM149 -11q-26 0 -44 18.5t-18 44.5t18 45t44 19t43.5 -19t17.5 -45t-17.5 -44.5t-43.5 -18.5z" />
    <glyph glyph-name="semicolon" unicode=";" horiz-adv-x="307" 
d="M173 409q-26 0 -44 18.5t-18 44.5t18 45t44 19t43.5 -19t17.5 -45t-17.5 -44.5t-43.5 -18.5zM116 112h98l-83 -243h-62z" />
    <glyph glyph-name="less" unicode="&#x3c;" horiz-adv-x="510" 
d="M69 379l372 172v-83l-280 -130l280 -131v-82l-372 171v83z" />
    <glyph glyph-name="equal" unicode="=" horiz-adv-x="510" 
d="M69 482h372v-83h-372v83zM69 276h372v-83h-372v83z" />
    <glyph glyph-name="greater" unicode="&#x3e;" horiz-adv-x="510" 
d="M69 207l280 131l-280 130v83l372 -172v-83l-372 -171v82z" />
    <glyph glyph-name="question" unicode="?" horiz-adv-x="578" 
d="M212 371h15q92 0 141.5 40t49.5 106q0 58 -36 92.5t-102 34.5q-23 0 -46.5 -7t-44 -21.5t-35.5 -36t-21 -50.5l-88 29q7 34 26 65t48.5 55t70 38.5t91.5 14.5q57 0 101.5 -15t75 -42.5t47 -67t16.5 -87.5q0 -47 -16 -84t-44 -64t-67 -44t-84 -24l-8 -112h-83zM260 -11
q-26 0 -44 18.5t-18 44.5t18 45t44 19t43.5 -19t17.5 -45t-17.5 -44.5t-43.5 -18.5z" />
    <glyph glyph-name="at" unicode="@" horiz-adv-x="972" 
d="M423 70q40 0 74 17.5t58.5 47.5t38 71t13.5 88q0 61 -28.5 98.5t-78.5 37.5q-40 0 -73.5 -17.5t-58 -47.5t-38 -71t-13.5 -87q0 -61 28.5 -99t77.5 -38zM630 -198q-33 -7 -66 -9.5t-68 -2.5q-100 0 -186.5 29.5t-150 86t-100 138.5t-36.5 186q0 106 37.5 196t104 155.5
t157 102t197.5 36.5q91 0 169.5 -27.5t136.5 -79.5t91 -128.5t33 -173.5q0 -65 -17 -123.5t-49 -102.5t-79.5 -70t-107.5 -26q-49 0 -77.5 25.5t-35.5 72.5h-3q-33 -49 -80.5 -73.5t-101.5 -24.5q-39 0 -71.5 15t-56.5 43t-37.5 67t-13.5 87q0 64 21 120.5t58.5 98.5
t89 66.5t111.5 24.5q46 0 83 -22t53 -67h3l17 78h97l-67 -315q-3 -15 -5 -28.5t-2 -25.5q0 -29 11 -45.5t34 -16.5q31 0 58 18t46.5 50t31 77t11.5 98q0 81 -27 144t-74.5 106.5t-111.5 66t-138 22.5q-90 0 -166.5 -31t-132 -85.5t-87 -130t-31.5 -164.5q0 -92 30.5 -162.5
t83.5 -119.5t125 -74t155 -25q34 0 67.5 3t66.5 11v-71z" />
    <glyph glyph-name="A" unicode="A" horiz-adv-x="700" 
d="M350 730l345 -730h-113l-76 168h-318l-75 -168h-108zM224 250h245l-123 272z" />
    <glyph glyph-name="B" unicode="B" horiz-adv-x="556" 
d="M65 720h174q136 0 196.5 -49t60.5 -134q0 -54 -22.5 -95t-78.5 -66q68 -23 100.5 -67.5t32.5 -105.5q0 -41 -13.5 -78t-45.5 -65t-86 -44t-135 -16h-183v720zM167 330v-244h78q99 0 140 33t41 89q0 63 -49.5 92.5t-137.5 29.5h-72zM167 634v-219h63q47 0 78.5 7.5
t50.5 22.5t27 36t8 48q0 52 -37.5 78.5t-122.5 26.5h-67z" />
    <glyph glyph-name="C" unicode="C" horiz-adv-x="572" 
d="M552 19q-33 -18 -69 -23.5t-76 -5.5q-84 0 -153.5 26.5t-119.5 75t-78 117t-28 151.5q0 81 28.5 149.5t79 117.5t120 76.5t152.5 27.5q38 0 73 -6t67 -24v-94q-32 20 -67.5 27t-73.5 7q-61 0 -111.5 -20.5t-87 -57.5t-57 -89t-20.5 -116q0 -63 20.5 -114.5t57 -88
t87.5 -56.5t112 -20q39 0 75 6t69 25v-91z" />
    <glyph glyph-name="D" unicode="D" horiz-adv-x="702" 
d="M65 720h206q100 0 175.5 -28t126 -76.5t76 -115t25.5 -142.5q0 -81 -27.5 -147.5t-79 -113t-124.5 -72t-163 -25.5h-215v720zM167 634v-548h105q72 0 127.5 19.5t93.5 55t57.5 85.5t19.5 112q0 63 -21 114t-60 87t-94 55.5t-123 19.5h-105z" />
    <glyph glyph-name="E" unicode="E" horiz-adv-x="502" 
d="M65 720h399v-90h-297v-213h247v-90h-247v-237h297v-90h-399v720z" />
    <glyph glyph-name="F" unicode="F" horiz-adv-x="490" 
d="M65 720h387v-90h-285v-246h235v-90h-235v-294h-102v720z" />
    <glyph glyph-name="G" unicode="G" horiz-adv-x="769" 
d="M407 404h329q3 -14 4 -31.5t1 -31.5q0 -77 -24 -141t-68 -111t-105.5 -73t-136.5 -26q-81 0 -149 26.5t-116.5 75t-76 117t-27.5 151.5q0 81 27.5 149.5t77 117.5t117.5 76.5t149 27.5q76 0 140.5 -23t112.5 -72l-62 -71q-37 36 -86 56t-106 20q-59 0 -107.5 -20.5
t-84 -57.5t-55 -89t-19.5 -116q0 -63 20 -114.5t55 -88t84 -56t107 -19.5q51 0 93.5 16.5t73 47t48 74t18.5 96.5h-234v90z" />
    <glyph glyph-name="H" unicode="H" horiz-adv-x="722" 
d="M65 720h102v-302h388v302h102v-720h-102v328h-388v-328h-102v720z" />
    <glyph glyph-name="I" unicode="I" horiz-adv-x="233" 
d="M65 720h102v-720h-102v720z" />
    <glyph glyph-name="J" unicode="J" horiz-adv-x="362" 
d="M49 93q11 -5 25 -9.5t28 -4.5q42 0 67.5 26.5t25.5 68.5v546h102v-539q0 -42 -14 -77.5t-39 -61t-60.5 -39.5t-77.5 -14q-53 0 -96 23z" />
    <glyph glyph-name="K" unicode="K" horiz-adv-x="604" 
d="M65 720h102v-333l279 333h125l-303 -355l331 -365h-136l-296 331v-331h-102v720z" />
    <glyph glyph-name="L" unicode="L" horiz-adv-x="464" 
d="M65 720h102v-634h287v-86h-389v720z" />
    <glyph glyph-name="M" unicode="M" horiz-adv-x="880" 
d="M116 730l325 -514l323 514l81 -730h-99l-50 468l-259 -407l-261 407l-46 -468h-95z" />
    <glyph glyph-name="N" unicode="N" horiz-adv-x="751" 
d="M65 730l521 -516v506h99v-730l-521 511v-501h-99v730z" />
    <glyph glyph-name="O" unicode="O" horiz-adv-x="800" 
d="M28 360q0 81 27.5 149.5t77 117.5t118 76.5t149.5 27.5t149 -27.5t117.5 -76.5t77.5 -117.5t28 -149.5q0 -82 -27.5 -150t-77 -117t-118 -76.5t-149.5 -27.5t-149.5 27.5t-118 76.5t-77 117t-27.5 150zM398 79q59 0 108.5 20t85.5 56.5t56 88t20 114.5q0 64 -20 116
t-56 89t-85.5 57.5t-108.5 20.5q-58 0 -107 -20.5t-84 -57.5t-55 -89t-20 -116q0 -63 20 -114.5t55 -88t84 -56.5t107 -20z" />
    <glyph glyph-name="P" unicode="P" horiz-adv-x="553" 
d="M65 720h188q61 0 111 -14.5t86 -43t55.5 -71t19.5 -99.5q0 -62 -22 -107.5t-60 -75t-90.5 -44t-113.5 -14.5h-72v-251h-102v720zM167 638v-305h78q84 0 131 39t47 117q0 75 -47 112t-128 37h-81z" />
    <glyph glyph-name="Q" unicode="Q" horiz-adv-x="800" 
d="M28 360q0 81 27.5 149.5t77 117.5t118 76.5t149.5 27.5t149 -27.5t117.5 -76.5t77.5 -117.5t28 -149.5t-26.5 -147.5t-74.5 -115.5l77 -83l-62 -54l-79 85q-44 -27 -96 -41.5t-111 -14.5q-81 0 -149.5 27.5t-118 76.5t-77 117t-27.5 150zM398 79q81 0 144 37l-114 124
l63 54l114 -124q30 35 46.5 82.5t16.5 105.5q0 64 -20 116t-56 89t-85.5 57.5t-108.5 20.5q-58 0 -107 -20.5t-84 -57.5t-55 -89t-20 -116q0 -63 20 -114.5t55 -88t84 -56.5t107 -20z" />
    <glyph glyph-name="R" unicode="R" horiz-adv-x="571" 
d="M65 720h188q61 0 111 -14t86 -41t55.5 -68t19.5 -95q0 -87 -45.5 -140t-119.5 -75l211 -287h-119l-197 271h-16h-72v-271h-102v720zM167 638v-285h78q84 0 131 37t47 109q0 69 -47 104t-128 35h-81z" />
    <glyph glyph-name="S" unicode="S" horiz-adv-x="561" 
d="M101 178q27 -39 69 -69t105 -30q72 -1 110.5 29t38.5 86q0 31 -10.5 52.5t-30 37.5t-48.5 27t-65 22q-47 14 -86.5 32t-67.5 42.5t-43.5 58.5t-15.5 79q0 34 14.5 67.5t42 60t68.5 42.5t95 16q45 0 81 -10t64.5 -26.5t50 -39.5t37.5 -48l-72 -55q-36 47 -71.5 68
t-85.5 21q-33 0 -56 -8t-37.5 -21.5t-21 -32t-6.5 -39.5q0 -44 31.5 -71t107.5 -50q48 -15 90 -33t72.5 -43.5t48 -60.5t17.5 -83q0 -38 -14 -75.5t-43.5 -67.5t-75.5 -48.5t-111 -18.5q-98 0 -158.5 36.5t-96.5 94.5z" />
    <glyph glyph-name="T" unicode="T" horiz-adv-x="529" 
d="M5 720h519v-88h-208v-632h-102v632h-209v88z" />
    <glyph glyph-name="U" unicode="U" horiz-adv-x="682" 
d="M60 720h102v-400q0 -119 43.5 -181t134.5 -62q92 0 136 62t44 182v399h102v-399q0 -162 -71 -247t-211 -85q-144 0 -212 83.5t-68 248.5v399z" />
    <glyph glyph-name="V" unicode="V" horiz-adv-x="656" 
d="M5 720h111l216 -511l216 511h103l-323 -730z" />
    <glyph glyph-name="W" unicode="W" horiz-adv-x="1114" 
d="M10 720h111l207 -500l235 510l232 -505l205 495h104l-307 -730l-240 519l-240 -519z" />
    <glyph glyph-name="X" unicode="X" horiz-adv-x="645" 
d="M262 366l-252 354h122l196 -276l196 276h111l-251 -353l261 -367h-122l-206 289l-206 -289h-111z" />
    <glyph glyph-name="Y" unicode="Y" horiz-adv-x="613" 
d="M256 259l-251 461h108l197 -376l197 376h101l-250 -461v-259h-102v259z" />
    <glyph glyph-name="Z" unicode="Z" horiz-adv-x="605" 
d="M433 634h-403v86h565l-419 -634h399v-86h-565z" />
    <glyph glyph-name="bracketleft" unicode="[" horiz-adv-x="413" 
d="M115 750h262v-86h-160v-744h160v-86h-262v916z" />
    <glyph glyph-name="backslash" unicode="\" horiz-adv-x="434" 
d="M0 720h102l332 -720h-102z" />
    <glyph glyph-name="bracketright" unicode="]" horiz-adv-x="415" 
d="M37 -80h159v744h-159v86h261v-916h-261v86z" />
    <glyph glyph-name="asciicircum" unicode="^" horiz-adv-x="510" 
d="M214 750h82l158 -306h-89l-110 225l-110 -225h-89z" />
    <glyph glyph-name="underscore" unicode="_" horiz-adv-x="478" 
d="M30 0h418v-83h-418v83z" />
    <glyph glyph-name="grave" unicode="`" horiz-adv-x="633" 
d="M229 734l197 -114l-31 -53l-208 99z" />
    <glyph glyph-name="a" unicode="a" horiz-adv-x="617" 
d="M464 89h-3q-32 -51 -75.5 -75.5t-103.5 -24.5q-54 0 -101.5 20.5t-82.5 56.5t-55 86.5t-20 110.5t20 110t54.5 86t82 56.5t102.5 20.5t102 -22.5t76 -67.5h3v79h99v-525h-98v89zM292 71q37 0 68 14.5t54 40t36 60.5t13 77t-13 76.5t-36 60t-54 39.5t-68 14
q-36 0 -67.5 -14t-54 -39.5t-35.5 -60t-13 -76.5t13 -77t35.5 -60.5t54 -40t67.5 -14.5z" />
    <glyph glyph-name="b" unicode="b" horiz-adv-x="617" 
d="M55 720h99v-281h3q29 51 76.5 74t102.5 23t102.5 -20.5t82 -56.5t54.5 -86t20 -110t-20 -110.5t-55.5 -86.5t-83 -56.5t-102.5 -20.5q-60 0 -104 24.5t-73 69.5h-3v-83h-99v720zM325 71q37 0 68 14.5t54 40t36 60.5t13 77t-13 76.5t-36 60t-54 39.5t-68 14t-68 -14
t-54 -39.5t-36 -60t-13 -76.5t13 -77t36 -60.5t54 -40t68 -14.5z" />
    <glyph glyph-name="c" unicode="c" horiz-adv-x="451" 
d="M431 13q-28 -13 -58.5 -18.5t-63.5 -5.5q-62 0 -114.5 20.5t-90.5 57t-59.5 87t-21.5 111.5q0 58 20 107.5t57.5 86t90.5 57t119 20.5q35 0 63.5 -7t54.5 -19v-90q-48 33 -122 33q-44 0 -78 -14t-57.5 -39t-36 -59.5t-12.5 -74.5q0 -44 14 -79.5t39.5 -61.5t60.5 -40
t77 -14q32 0 62 7t56 20v-85z" />
    <glyph glyph-name="d" unicode="d" horiz-adv-x="617" 
d="M464 89h-3q-32 -50 -75 -75t-103 -25q-55 0 -102.5 20.5t-82.5 56.5t-55 86.5t-20 110.5t20 110t54.5 86t82 56.5t102.5 20.5q56 0 102.5 -22.5t75.5 -67.5h3v274h99v-720h-98v89zM292 71q37 0 68 14.5t54 40t36 60.5t13 77t-13 76.5t-36 60t-54 39.5t-68 14
q-36 0 -67.5 -14t-54 -39.5t-35.5 -60t-13 -76.5t13 -77t35.5 -60.5t54 -40t67.5 -14.5z" />
    <glyph glyph-name="e" unicode="e" horiz-adv-x="540" 
d="M124 236q8 -72 49 -118t109 -46q51 0 88.5 27.5t53.5 78.5l83 -27q-25 -77 -86.5 -119.5t-142.5 -42.5q-59 0 -106 21t-80 57.5t-51 87t-18 110.5q0 58 18.5 107.5t51.5 86t79 57t102 20.5q61 0 106 -23t75 -59.5t44.5 -83t14.5 -94.5q0 -21 -3 -40h-387zM273 453
q-62 0 -101 -40.5t-48 -106.5h293q-2 30 -12.5 56.5t-29.5 46.5t-44.5 32t-57.5 12z" />
    <glyph glyph-name="f" unicode="f" horiz-adv-x="335" 
d="M10 525h75v22q0 88 44 136t122 48q29 0 44 -2t30 -6v-81q-11 3 -28 5.5t-34 2.5q-38 0 -58.5 -24t-20.5 -82v-19h141v-78h-141v-447h-99v447h-75v78z" />
    <glyph glyph-name="g" unicode="g" horiz-adv-x="597" 
d="M125 -54q28 -36 63.5 -54.5t86.5 -18.5q36 0 67 9.5t53.5 33t35.5 62t13 96.5v20h-3q-30 -42 -70.5 -62.5t-96.5 -20.5q-54 0 -100 20t-79.5 55t-52.5 83t-19 105t19 105t52 83t78.5 54.5t99.5 19.5q51 0 96.5 -23t71.5 -68h3v80h99v-445q0 -80 -21.5 -135t-58.5 -89.5
t-86 -50t-104 -15.5q-81 0 -135.5 31t-81.5 74zM282 93q34 0 63.5 13.5t51.5 37.5t34 57.5t12 72.5t-12 72t-34 56.5t-51.5 37t-63.5 13.5t-63.5 -13.5t-51 -37t-33.5 -56.5t-12 -72t12 -72.5t33.5 -57.5t51 -37.5t63.5 -13.5z" />
    <glyph glyph-name="h" unicode="h" horiz-adv-x="575" 
d="M55 720h99v-274h3q26 43 66 66.5t105 23.5q52 0 90 -17t63 -47.5t37 -72.5t12 -91v-308h-99v288q0 34 -7.5 64t-23.5 52.5t-41.5 35.5t-62.5 13q-71 0 -106.5 -46.5t-35.5 -129.5v-277h-99v720z" />
    <glyph glyph-name="i" unicode="i" 
d="M55 525h99v-525h-99v525zM105 604q-26 0 -44 18.5t-18 44.5t18 45t44 19t43.5 -19t17.5 -45t-17.5 -44.5t-43.5 -18.5z" />
    <glyph glyph-name="j" unicode="j" 
d="M105 604q-26 0 -44 18.5t-18 44.5t18 45t44 19t43.5 -19t17.5 -45t-17.5 -44.5t-43.5 -18.5zM-58 -120q11 -3 22.5 -5.5t26.5 -2.5q30 0 47 19t17 64v570h99v-577q0 -72 -40 -115t-115 -43q-47 0 -77 14z" />
    <glyph glyph-name="k" unicode="k" horiz-adv-x="500" 
d="M154 235v-235h-99v720h99v-413l189 218h120l-227 -250l254 -275h-128z" />
    <glyph glyph-name="l" unicode="l" 
d="M55 720h99v-720h-99v720z" />
    <glyph glyph-name="m" unicode="m" horiz-adv-x="908" 
d="M55 525h97v-79h3q25 42 63.5 66t99.5 24q63 0 104 -27t62 -74h3q24 46 69 73.5t106 27.5q52 0 90 -17t63 -47.5t36.5 -72.5t11.5 -91v-308h-99v289q0 34 -6.5 64t-21.5 52t-39 35t-58 13q-64 0 -96 -44t-34 -123v-286h-99v289q0 34 -6.5 64t-21.5 52t-39 35t-58 13
q-66 0 -98.5 -46t-32.5 -129v-278h-99v525z" />
    <glyph glyph-name="n" unicode="n" horiz-adv-x="575" 
d="M55 525h97v-79h3q26 42 67 66t105 24q52 0 90.5 -17t63.5 -47.5t37 -72.5t12 -91v-308h-99v288q0 34 -7.5 64t-23.5 52.5t-41.5 35.5t-62.5 13q-71 0 -106.5 -46.5t-35.5 -129.5v-277h-99v525z" />
    <glyph glyph-name="o" unicode="o" horiz-adv-x="585" 
d="M292 -11q-58 0 -107.5 20.5t-85.5 57.5t-56 87t-20 109q0 58 20 108t56 87t85.5 57.5t107.5 20.5t107.5 -20.5t85.5 -57.5t56.5 -87t20.5 -108q0 -59 -20.5 -109t-56.5 -87t-85.5 -57.5t-107.5 -20.5zM292 72q37 0 68 14t54 39.5t36 60.5t13 77t-13 76.5t-36 60t-54 39.5
t-68 14q-36 0 -67.5 -14t-54 -39.5t-35.5 -60t-13 -76.5t13 -77t35.5 -60.5t54 -39.5t67.5 -14z" />
    <glyph glyph-name="p" unicode="p" horiz-adv-x="617" 
d="M55 525h99v-89h3q29 51 76 75.5t104 24.5q55 0 102 -20.5t81.5 -56.5t54.5 -86t20 -110t-20 -110.5t-55 -86.5t-82.5 -56.5t-101.5 -20.5q-61 0 -105 23t-74 68h-3v-280h-99v725zM325 71q37 0 68 14.5t54 40t36 60.5t13 77t-13 76.5t-36 60t-54 39.5t-68 14t-68 -14
t-54 -39.5t-36 -60t-13 -76.5t13 -77t36 -60.5t54 -40t68 -14.5z" />
    <glyph glyph-name="q" unicode="q" horiz-adv-x="617" 
d="M464 89h-3q-32 -51 -75.5 -75.5t-103.5 -24.5q-54 0 -101.5 20.5t-82.5 56.5t-55 86.5t-20 110.5t20 110t54.5 86t82 56.5t102.5 20.5t102 -22.5t76 -67.5h3v79h99v-725h-98v289zM292 71q37 0 68 14.5t54 40t36 60.5t13 77t-13 76.5t-36 60t-54 39.5t-68 14
q-36 0 -67.5 -14t-54 -39.5t-35.5 -60t-13 -76.5t13 -77t35.5 -60.5t54 -40t67.5 -14.5z" />
    <glyph glyph-name="r" unicode="r" horiz-adv-x="348" 
d="M55 525h97v-81h3q26 44 67 68t106 24v-93q-91 0 -132.5 -44.5t-41.5 -135.5v-263h-99v525z" />
    <glyph glyph-name="s" unicode="s" horiz-adv-x="428" 
d="M105 148q14 -37 40 -56.5t75 -19.5q36 1 59.5 17.5t23.5 47.5q0 18 -5.5 32t-18 25.5t-33.5 22.5t-51 23q-31 12 -58 25.5t-46.5 31.5t-30.5 41.5t-11 56.5q0 28 11.5 54t33 45t51.5 30.5t68 11.5q75 0 120 -33t56 -93l-78 -27q-18 70 -96 70q-35 0 -53.5 -17t-18.5 -40
q0 -31 23 -47.5t74 -38.5q33 -14 61.5 -28.5t49.5 -34t33 -45t12 -61.5q0 -26 -11 -53t-33 -49t-55.5 -36t-78.5 -14q-74 0 -125.5 34t-66.5 94z" />
    <glyph glyph-name="t" unicode="t" horiz-adv-x="330" 
d="M20 525h85v147h99v-147h116v-78h-116v-447h-99v447h-85v78z" />
    <glyph glyph-name="u" unicode="u" horiz-adv-x="550" 
d="M45 525h99v-288q0 -34 8 -64t24 -52.5t40.5 -35.5t58.5 -13t58.5 13t40.5 35.5t24 52.5t8 64v288h99v-301q0 -53 -17 -96t-48 -74t-73 -48t-93 -17q-50 0 -92 16.5t-72.5 47.5t-47.5 73.5t-17 95.5v303z" />
    <glyph glyph-name="v" unicode="v" horiz-adv-x="523" 
d="M8 525h107l150 -340l151 340h99l-253 -535z" />
    <glyph glyph-name="w" unicode="w" horiz-adv-x="820" 
d="M15 525h106l116 -331l178 341l178 -341l118 331h94l-201 -535l-195 365l-193 -365z" />
    <glyph glyph-name="x" unicode="x" horiz-adv-x="522" 
d="M201 271l-183 254h117l132 -185l131 185h105l-184 -257l194 -268h-116l-143 197l-140 -197h-106z" />
    <glyph glyph-name="y" unicode="y" horiz-adv-x="508" 
d="M225 57l-225 468h105l165 -355l138 355h100l-286 -725h-99z" />
    <glyph glyph-name="z" unicode="z" horiz-adv-x="443" 
d="M290 447h-270v78h413l-279 -447h269v-78h-413z" />
    <glyph glyph-name="braceleft" unicode="{" horiz-adv-x="417" 
d="M164 163q0 89 -100 89v80q100 0 100 89v127q0 48 10 84t32.5 62t59.5 42t90 24l24 -81q-64 -12 -89 -42t-25 -91v-131q0 -113 -110 -123q110 -10 110 -123v-131q0 -61 25 -91t89 -42l-24 -81q-53 8 -90 24t-59.5 42t-32.5 62t-10 84v127z" />
    <glyph glyph-name="bar" unicode="|" horiz-adv-x="339" 
d="M120 770h99v-1000h-99v1000z" />
    <glyph glyph-name="braceright" unicode="}" horiz-adv-x="417" 
d="M37 -95q64 12 89 42t25 91v131q0 113 110 123q-110 10 -110 123v131q0 61 -25 91t-89 42l24 81q53 -8 90 -24t59.5 -42t32.5 -62t10 -84v-127q0 -89 100 -89v-80q-100 0 -100 -89v-127q0 -48 -10 -84t-32.5 -62t-59.5 -42t-90 -24z" />
    <glyph glyph-name="asciitilde" unicode="~" horiz-adv-x="510" 
d="M62 336q32 38 61.5 53t55.5 15q22 0 42 -7t39.5 -15t38 -15t36.5 -7q17 0 33 8t33 28l47 -47q-32 -40 -61.5 -54.5t-55.5 -14.5q-22 0 -42 7t-39.5 15t-38 15t-36.5 7q-16 0 -32.5 -7.5t-33.5 -27.5z" />
    <glyph glyph-name="uni00A0" unicode="&#xa0;" horiz-adv-x="200" 
 />
    <glyph glyph-name="exclamdown" unicode="&#xa1;" horiz-adv-x="293" 
d="M106 334h81l11 -529h-103zM146 409q-26 0 -44 18.5t-18 44.5t18 45t44 19t43.5 -19t17.5 -45t-17.5 -44.5t-43.5 -18.5z" />
    <glyph glyph-name="cent" unicode="&#xa2;" horiz-adv-x="451" 
d="M431 111q-49 -22 -108 -24v-87h-96v97q-46 12 -83.5 36t-64.5 58.5t-41.5 78t-14.5 93.5q0 48 14 91t40.5 77t64 58t85.5 35v96h96v-86q30 -2 56 -8.5t49 -17.5v-90q-48 33 -122 33q-44 0 -78 -14t-57.5 -39t-36 -59.5t-12.5 -74.5q0 -44 14 -79.5t39.5 -61.5t60.5 -40
t77 -14q32 0 62 7t56 20v-85z" />
    <glyph glyph-name="sterling" unicode="&#xa3;" horiz-adv-x="563" 
d="M30 354h75v141q0 57 17.5 101t48.5 74t72 45.5t88 15.5q88 0 145.5 -44t76.5 -125l-87 -30q-15 50 -48 81t-82 31q-56 0 -92.5 -36.5t-36.5 -115.5v-138h206v-68h-206v-200h340v-86h-517v86h75v200h-75v68z" />
    <glyph glyph-name="currency" unicode="&#xa4;" horiz-adv-x="606" 
d="M121 229q-37 52 -37 124q0 69 36 122l-70 71l59 59l71 -72q26 16 57 25t66 9t65.5 -9t56.5 -25l72 72l59 -59l-71 -71q17 -26 27 -56.5t10 -65.5q0 -36 -10 -67t-28 -57l72 -71l-59 -59l-74 73q-52 -32 -120 -32q-69 0 -121 32l-73 -73l-59 59zM303 219q27 0 50 10
t39.5 27.5t26 42t9.5 54.5t-9.5 54.5t-26 42t-39.5 27.5t-50 10q-55 0 -90 -37t-35 -97t35 -97t90 -37z" />
    <glyph glyph-name="yen" unicode="&#xa5;" horiz-adv-x="573" 
d="M75 339h126l-196 381h108l177 -366l177 366h101l-195 -381h125v-68h-160v-97h160v-68h-160v-106h-102v106h-161v68h161v97h-161v68z" />
    <glyph glyph-name="brokenbar" unicode="&#xa6;" horiz-adv-x="339" 
d="M120 770h99v-418h-99v418zM120 190h99v-420h-99v420z" />
    <glyph glyph-name="section" unicode="&#xa7;" horiz-adv-x="520" 
d="M130 107q11 -36 42 -62t85 -26q49 0 75.5 18.5t26.5 50.5q0 40 -35 61t-109 40q-35 9 -68.5 23t-59.5 36t-41.5 52.5t-15.5 71.5q0 44 26 78.5t65 54.5q-29 20 -44 46.5t-15 62.5q0 30 11.5 56.5t35 46.5t59 31.5t83.5 11.5q42 0 76 -11.5t58.5 -30.5t40 -44.5
t20.5 -52.5l-82 -30q-13 46 -43 68t-75 22q-47 0 -66 -19.5t-19 -42.5q0 -16 7 -28.5t22.5 -23t42 -19.5t65.5 -18q37 -9 71.5 -22t61.5 -34t43 -51t16 -73q0 -51 -26 -85.5t-67 -53.5q29 -20 45 -48t16 -67q0 -28 -12 -56t-36.5 -50t-62.5 -36t-89 -14q-86 0 -141.5 35
t-69.5 99zM251 267q17 -4 33 -8t31 -9q31 9 53.5 30.5t22.5 62.5q0 27 -11 45.5t-28 30.5t-38.5 19t-43.5 12q-42 9 -79 21q-23 -8 -42.5 -31.5t-19.5 -58.5q0 -28 11 -47.5t28 -32.5t39 -21t44 -13z" />
    <glyph glyph-name="dieresis" unicode="&#xa8;" horiz-adv-x="633" 
d="M402 607q-25 0 -42 18t-17 42q0 25 17 43t42 18q24 0 41 -18t17 -43q0 -24 -17 -42t-41 -18zM232 607q-25 0 -42 18t-17 42q0 25 17 43t42 18q24 0 41 -18t17 -43q0 -24 -17 -42t-41 -18z" />
    <glyph glyph-name="copyright" unicode="&#xa9;" horiz-adv-x="980" 
d="M40 360q0 99 33.5 181.5t93 142t142 92.5t181.5 33t181.5 -33t142 -92.5t93 -142t33.5 -181.5t-33.5 -181.5t-93 -142t-142 -92.5t-181.5 -33t-181.5 33t-142 92.5t-93 142t-33.5 181.5zM488 -25q84 0 153 28.5t118.5 79.5t77 121t27.5 154t-27.5 155t-77 122.5
t-118.5 80.5t-153 29t-152.5 -29t-117 -81t-75.5 -122.5t-27 -154.5q0 -83 27 -153.5t76 -121.5t117.5 -79.5t151.5 -28.5zM627 120q-23 -13 -48.5 -17.5t-54.5 -4.5q-59 0 -108 18.5t-84.5 52.5t-55.5 82t-20 107q0 58 20 105.5t55.5 82t85 53.5t108.5 19q27 0 52 -4.5
t48 -15.5v-83q-22 13 -46.5 18.5t-52.5 5.5q-39 0 -71.5 -13t-55.5 -37t-36 -57.5t-13 -74.5t13 -74.5t36.5 -57t56 -36t70.5 -12.5q28 0 53 5t48 18v-80z" />
    <glyph glyph-name="ordfeminine" unicode="&#xaa;" horiz-adv-x="432" 
d="M311 410h-2q-22 -34 -50 -49.5t-68 -15.5q-36 0 -68.5 14t-56.5 39t-38 60.5t-14 78.5t13.5 78t37.5 60.5t56 39.5t70 14q36 0 66.5 -15t50.5 -44h2v50h88v-367h-87v57zM206 421q22 0 41.5 8.5t33 24t21.5 37t8 46.5q0 51 -29.5 83t-74.5 32t-74.5 -32t-29.5 -83
q0 -25 8 -46.5t21.5 -37t32.5 -24t42 -8.5z" />
    <glyph glyph-name="guillemotleft" unicode="&#xab;" horiz-adv-x="557" 
d="M72 280l139 210l69 -44l-101 -166l101 -166l-69 -44zM276 280l139 210l70 -44l-102 -166l102 -166l-70 -44z" />
    <glyph glyph-name="logicalnot" unicode="&#xac;" horiz-adv-x="510" 
d="M69 437h372v-233h-83v151h-289v82z" />
    <glyph glyph-name="uni00AD" unicode="&#xad;" horiz-adv-x="330" 
 />
    <glyph glyph-name="registered" unicode="&#xae;" horiz-adv-x="719" 
d="M359 201q-71 0 -130.5 25t-103 69t-68 105t-24.5 132t24.5 131.5t68 104.5t103 69t130.5 25t131 -25t103.5 -69t68 -104.5t24.5 -131.5t-24.5 -132t-68 -105t-103.5 -69t-131 -25zM359 265q54 0 100 20t79.5 55t52.5 84t19 108q0 58 -19 107t-52.5 84.5t-79.5 55
t-100 19.5t-99.5 -19.5t-79 -55t-52.5 -84.5t-19 -107q0 -59 19 -108t52.5 -84t79 -55t99.5 -20zM348 483h-32v-123h-87v360h125q32 0 59.5 -7t47 -21t30.5 -35.5t11 -51.5q0 -42 -19 -68t-51 -40l94 -137h-100zM316 650v-101h28q32 0 50.5 13t18.5 40q0 25 -18 36.5
t-49 11.5h-30z" />
    <glyph glyph-name="macron" unicode="&#xaf;" horiz-adv-x="633" 
d="M175 670h283v-69h-283v69z" />
    <glyph glyph-name="degree" unicode="&#xb0;" horiz-adv-x="356" 
d="M178 518q37 0 60 24t23 61t-23 60.5t-60 23.5t-59.5 -23.5t-22.5 -60.5t22.5 -61t59.5 -24zM178 475q-56 0 -92 36t-36 92t36 91.5t92 35.5t92 -35.5t36 -91.5t-36 -92t-92 -36z" />
    <glyph glyph-name="plusminus" unicode="&#xb1;" horiz-adv-x="510" 
d="M69 379h145v144h82v-144h145v-83h-145v-144h-82v144h-145v83zM69 83h372v-83h-372v83z" />
    <glyph glyph-name="twosuperior" unicode="&#xb2;" horiz-adv-x="315" 
d="M27 432q42 37 73.5 63.5t52.5 46t31.5 35.5t10.5 32q0 20 -11.5 32.5t-31.5 12.5q-23 0 -38.5 -14t-24.5 -39l-68 26q9 42 42.5 71t90.5 29q60 -1 94.5 -30.5t34.5 -76.5q0 -24 -9 -44.5t-27.5 -42t-47.5 -46.5t-68 -57h158v-70h-262v72z" />
    <glyph glyph-name="threesuperior" unicode="&#xb3;" horiz-adv-x="315" 
d="M89 468q20 -42 65 -42q21 0 36 11t15 34q0 26 -20 35t-44 9h-22v58h21q23 0 40.5 9t17.5 34q0 19 -13 28.5t-31 9.5q-20 0 -34.5 -12.5t-22.5 -32.5l-72 25q14 46 50 69.5t83 23.5q25 0 48.5 -6.5t41.5 -18.5t28.5 -31t10.5 -45q0 -29 -12 -48t-32 -31q23 -11 37 -31
t14 -51q0 -29 -11.5 -50t-31 -34.5t-44.5 -20.5t-51 -7q-48 0 -84 20.5t-51 62.5z" />
    <glyph glyph-name="acute" unicode="&#xb4;" horiz-adv-x="633" 
d="M207 620l197 114l42 -68l-208 -99z" />
    <glyph glyph-name="mu" unicode="&#xb5;" horiz-adv-x="560" 
d="M55 525h99v-288q0 -34 8 -64t24 -52.5t40.5 -35.5t58.5 -13t58.5 13t40.5 35.5t24 52.5t8 64v288h99v-301q0 -53 -17 -96t-48 -74t-73 -48t-93 -17q-78 0 -130 47v-236h-99v725z" />
    <glyph glyph-name="paragraph" unicode="&#xb6;" horiz-adv-x="658" 
d="M462 720h76v-720h-76v720zM323 210q-59 0 -108 19t-84.5 53t-55.5 81.5t-20 103.5q0 54 18.5 100.5t53.5 80t84.5 53t111.5 19.5h99v-720h-99v210z" />
    <glyph glyph-name="periodcentered" unicode="&#xb7;" horiz-adv-x="633" 
d="M317 294q-26 0 -44 18.5t-18 44.5t18 45t44 19t43.5 -19t17.5 -45t-17.5 -44.5t-43.5 -18.5z" />
    <glyph glyph-name="cedilla" unicode="&#xb8;" horiz-adv-x="633" 
d="M310 10h80l-76 -160h-74z" />
    <glyph glyph-name="onesuperior" unicode="&#xb9;" horiz-adv-x="315" 
d="M90 720h124v-360h-87v287h-52z" />
    <glyph glyph-name="ordmasculine" unicode="&#xba;" horiz-adv-x="412" 
d="M14 537q0 41 14 76.5t39.5 61t61 40t77.5 14.5t77.5 -14.5t61 -40t39.5 -61t14 -76.5q0 -42 -14 -77t-39.5 -60.5t-61 -40t-77.5 -14.5t-77.5 14.5t-61 40t-39.5 60.5t-14 77zM206 421q22 0 41.5 8.5t33 24t21.5 37t8 46.5q0 51 -29.5 83t-74.5 32t-74.5 -32t-29.5 -83
q0 -25 8 -46.5t21.5 -37t32.5 -24t42 -8.5z" />
    <glyph glyph-name="guillemotright" unicode="&#xbb;" horiz-adv-x="557" 
d="M378 280l-102 166l70 44l139 -210l-139 -210l-70 44zM173 280l-101 166l70 44l138 -210l-138 -210l-70 44z" />
    <glyph glyph-name="onequarter" unicode="&#xbc;" horiz-adv-x="723" 
d="M90 720h124v-360h-87v287h-52zM591 720h83l-510 -720h-83zM418 127l166 233h79v-226h45v-67h-45v-67h-84v67h-161v60zM579 134v122l-84 -122h84z" />
    <glyph glyph-name="onehalf" unicode="&#xbd;" horiz-adv-x="723" 
d="M90 720h124v-360h-87v287h-52zM570 720h83l-510 -720h-83zM435 72q42 37 73.5 63.5t52.5 46t31.5 35.5t10.5 32q0 20 -11.5 32.5t-31.5 12.5q-23 0 -38.5 -14t-24.5 -39l-68 26q9 42 42.5 71t90.5 29q60 -1 94.5 -30.5t34.5 -76.5q0 -24 -9 -44.5t-27.5 -42t-47.5 -46.5
t-68 -57h158v-70h-262v72z" />
    <glyph glyph-name="threequarters" unicode="&#xbe;" horiz-adv-x="723" 
d="M89 468q20 -42 65 -42q21 0 36 11t15 34q0 26 -20 35t-44 9h-22v58h21q23 0 40.5 9t17.5 34q0 19 -13 28.5t-31 9.5q-20 0 -34.5 -12.5t-22.5 -32.5l-72 25q14 46 50 69.5t83 23.5q25 0 48.5 -6.5t41.5 -18.5t28.5 -31t10.5 -45q0 -29 -12 -48t-32 -31q23 -11 37 -31
t14 -51q0 -29 -11.5 -50t-31 -34.5t-44.5 -20.5t-51 -7q-48 0 -84 20.5t-51 62.5zM601 720h83l-510 -720h-83zM418 127l166 233h79v-226h45v-67h-45v-67h-84v67h-161v60zM579 134v122l-84 -122h84z" />
    <glyph glyph-name="questiondown" unicode="&#xbf;" horiz-adv-x="578" 
d="M533 -33q-7 -34 -26 -65t-48.5 -55t-70 -38.5t-91.5 -14.5q-57 0 -101.5 15t-75 42.5t-47 67t-16.5 87.5q0 46 16 83.5t44 64.5t67 44t84 24l8 112h83l7 -180h-15q-92 0 -141.5 -40t-49.5 -106q0 -58 36 -92.5t102 -34.5q23 0 46.5 7t44 21t35.5 36t21 51zM318 409
q-26 0 -44 18.5t-18 44.5t18 45t44 19t43.5 -19t17.5 -45t-17.5 -44.5t-43.5 -18.5z" />
    <glyph glyph-name="Agrave" unicode="&#xc0;" horiz-adv-x="700" 
d="M350 730l345 -730h-113l-76 168h-318l-75 -168h-108zM224 250h245l-123 272zM262 929l197 -114l-31 -53l-208 99z" />
    <glyph glyph-name="Aacute" unicode="&#xc1;" horiz-adv-x="700" 
d="M350 730l345 -730h-113l-76 168h-318l-75 -168h-108zM224 250h245l-123 272zM240 815l197 114l42 -68l-208 -99z" />
    <glyph glyph-name="Acircumflex" unicode="&#xc2;" horiz-adv-x="700" 
d="M350 730l345 -730h-113l-76 168h-318l-75 -168h-108zM224 250h245l-123 272zM173 815l177 114l177 -114l-31 -53l-146 77l-146 -77z" />
    <glyph glyph-name="Atilde" unicode="&#xc3;" horiz-adv-x="700" 
d="M350 730l345 -730h-113l-76 168h-318l-75 -168h-108zM224 250h245l-123 272zM165 829q21 31 48.5 54.5t65.5 23.5q21 0 40 -8.5t37 -18.5t35 -18.5t33 -8.5q20 0 36.5 14t30.5 33l42 -44q-22 -31 -50 -52.5t-66 -21.5q-21 0 -39 8.5t-35 18.5t-33 18.5t-32 8.5
q-22 0 -38.5 -16t-31.5 -35z" />
    <glyph glyph-name="Adieresis" unicode="&#xc4;" horiz-adv-x="700" 
d="M350 730l345 -730h-113l-76 168h-318l-75 -168h-108zM224 250h245l-123 272zM435 802q-25 0 -42 18t-17 42q0 25 17 43t42 18q24 0 41 -18t17 -43q0 -24 -17 -42t-41 -18zM265 802q-25 0 -42 18t-17 42q0 25 17 43t42 18q24 0 41 -18t17 -43q0 -24 -17 -42t-41 -18z" />
    <glyph glyph-name="Aring" unicode="&#xc5;" horiz-adv-x="700" 
d="M350 730l345 -730h-113l-76 168h-318l-75 -168h-108zM224 250h245l-123 272zM349 814q23 0 39 16.5t16 40.5q0 25 -16 41.5t-39 16.5t-39 -16.5t-16 -41.5q0 -24 16 -40.5t39 -16.5zM239 871q0 22 8.5 42t23.5 35t35 24t43 9t43 -9t35 -24t23.5 -35t8.5 -42
q0 -23 -8.5 -43t-23.5 -34.5t-35 -23t-43 -8.5t-43 8.5t-35 23t-23.5 34.5t-8.5 43z" />
    <glyph glyph-name="AE" unicode="&#xc6;" horiz-adv-x="918" 
d="M481 178h-265l-103 -178h-108l431 720h444v-90h-297v-213h247v-90h-247v-237h297v-90h-399v178zM481 260v372l-217 -372h217z" />
    <glyph glyph-name="Ccedilla" unicode="&#xc7;" horiz-adv-x="572" 
d="M352 -7q-72 8 -132 38t-102.5 77.5t-66 111t-23.5 140.5q0 81 28.5 149.5t79 117.5t120 76.5t152.5 27.5q38 0 73 -6t67 -24v-94q-32 20 -67.5 27t-73.5 7q-61 0 -111.5 -20.5t-87 -57.5t-57 -89t-20.5 -116q0 -63 20.5 -114.5t57 -88t87.5 -56.5t112 -20q39 0 75 6
t69 25v-91q-29 -15 -59 -21t-63 -7l-66 -141h-74z" />
    <glyph glyph-name="Egrave" unicode="&#xc8;" horiz-adv-x="502" 
d="M65 720h399v-90h-297v-213h247v-90h-247v-237h297v-90h-399v720zM183 929l197 -114l-31 -53l-208 99z" />
    <glyph glyph-name="Eacute" unicode="&#xc9;" horiz-adv-x="502" 
d="M65 720h399v-90h-297v-213h247v-90h-247v-237h297v-90h-399v720zM161 815l197 114l42 -68l-208 -99z" />
    <glyph glyph-name="Ecircumflex" unicode="&#xca;" horiz-adv-x="502" 
d="M65 720h399v-90h-297v-213h247v-90h-247v-237h297v-90h-399v720zM94 815l177 114l177 -114l-31 -53l-146 77l-146 -77z" />
    <glyph glyph-name="Edieresis" unicode="&#xcb;" horiz-adv-x="502" 
d="M65 720h399v-90h-297v-213h247v-90h-247v-237h297v-90h-399v720zM356 802q-25 0 -42 18t-17 42q0 25 17 43t42 18q24 0 41 -18t17 -43q0 -24 -17 -42t-41 -18zM186 802q-25 0 -42 18t-17 42q0 25 17 43t42 18q24 0 41 -18t17 -43q0 -24 -17 -42t-41 -18z" />
    <glyph glyph-name="Igrave" unicode="&#xcc;" horiz-adv-x="233" 
d="M65 720h102v-720h-102v720zM29 929l197 -114l-31 -53l-208 99z" />
    <glyph glyph-name="Iacute" unicode="&#xcd;" horiz-adv-x="233" 
d="M65 720h102v-720h-102v720zM7 815l197 114l42 -68l-208 -99z" />
    <glyph glyph-name="Icircumflex" unicode="&#xce;" horiz-adv-x="233" 
d="M65 720h102v-720h-102v720zM-60 815l177 114l177 -114l-31 -53l-146 77l-146 -77z" />
    <glyph glyph-name="Idieresis" unicode="&#xcf;" horiz-adv-x="233" 
d="M65 720h102v-720h-102v720zM202 802q-25 0 -42 18t-17 42q0 25 17 43t42 18q24 0 41 -18t17 -43q0 -24 -17 -42t-41 -18zM32 802q-25 0 -42 18t-17 42q0 25 17 43t42 18q24 0 41 -18t17 -43q0 -24 -17 -42t-41 -18z" />
    <glyph glyph-name="Eth" unicode="&#xd0;" horiz-adv-x="702" 
d="M4 415h61v305h206q100 0 175.5 -28t126 -76.5t76 -115t25.5 -142.5q0 -81 -27.5 -147.5t-79 -113t-124.5 -72t-163 -25.5h-215v329h-61v86zM167 329v-243h105q72 0 127.5 19.5t93.5 55t57.5 85.5t19.5 112q0 63 -21 114t-60 87t-94 55.5t-123 19.5h-105v-219h178v-86
h-178z" />
    <glyph glyph-name="Ntilde" unicode="&#xd1;" horiz-adv-x="751" 
d="M65 730l521 -516v506h99v-730l-521 511v-501h-99v730zM190 829q21 31 48.5 54.5t65.5 23.5q21 0 40 -8.5t37 -18.5t35 -18.5t33 -8.5q20 0 36.5 14t30.5 33l42 -44q-22 -31 -50 -52.5t-66 -21.5q-21 0 -39 8.5t-35 18.5t-33 18.5t-32 8.5q-22 0 -38.5 -16t-31.5 -35z" />
    <glyph glyph-name="Ograve" unicode="&#xd2;" horiz-adv-x="800" 
d="M28 360q0 81 27.5 149.5t77 117.5t118 76.5t149.5 27.5t149 -27.5t117.5 -76.5t77.5 -117.5t28 -149.5q0 -82 -27.5 -150t-77 -117t-118 -76.5t-149.5 -27.5t-149.5 27.5t-118 76.5t-77 117t-27.5 150zM398 79q59 0 108.5 20t85.5 56.5t56 88t20 114.5q0 64 -20 116
t-56 89t-85.5 57.5t-108.5 20.5q-58 0 -107 -20.5t-84 -57.5t-55 -89t-20 -116q0 -63 20 -114.5t55 -88t84 -56.5t107 -20zM312 929l197 -114l-31 -53l-208 99z" />
    <glyph glyph-name="Oacute" unicode="&#xd3;" horiz-adv-x="800" 
d="M28 360q0 81 27.5 149.5t77 117.5t118 76.5t149.5 27.5t149 -27.5t117.5 -76.5t77.5 -117.5t28 -149.5q0 -82 -27.5 -150t-77 -117t-118 -76.5t-149.5 -27.5t-149.5 27.5t-118 76.5t-77 117t-27.5 150zM398 79q59 0 108.5 20t85.5 56.5t56 88t20 114.5q0 64 -20 116
t-56 89t-85.5 57.5t-108.5 20.5q-58 0 -107 -20.5t-84 -57.5t-55 -89t-20 -116q0 -63 20 -114.5t55 -88t84 -56.5t107 -20zM290 815l197 114l42 -68l-208 -99z" />
    <glyph glyph-name="Ocircumflex" unicode="&#xd4;" horiz-adv-x="800" 
d="M28 360q0 81 27.5 149.5t77 117.5t118 76.5t149.5 27.5t149 -27.5t117.5 -76.5t77.5 -117.5t28 -149.5q0 -82 -27.5 -150t-77 -117t-118 -76.5t-149.5 -27.5t-149.5 27.5t-118 76.5t-77 117t-27.5 150zM398 79q59 0 108.5 20t85.5 56.5t56 88t20 114.5q0 64 -20 116
t-56 89t-85.5 57.5t-108.5 20.5q-58 0 -107 -20.5t-84 -57.5t-55 -89t-20 -116q0 -63 20 -114.5t55 -88t84 -56.5t107 -20zM223 815l177 114l177 -114l-31 -53l-146 77l-146 -77z" />
    <glyph glyph-name="Otilde" unicode="&#xd5;" horiz-adv-x="800" 
d="M28 360q0 81 27.5 149.5t77 117.5t118 76.5t149.5 27.5t149 -27.5t117.5 -76.5t77.5 -117.5t28 -149.5q0 -82 -27.5 -150t-77 -117t-118 -76.5t-149.5 -27.5t-149.5 27.5t-118 76.5t-77 117t-27.5 150zM398 79q59 0 108.5 20t85.5 56.5t56 88t20 114.5q0 64 -20 116
t-56 89t-85.5 57.5t-108.5 20.5q-58 0 -107 -20.5t-84 -57.5t-55 -89t-20 -116q0 -63 20 -114.5t55 -88t84 -56.5t107 -20zM215 829q21 31 48.5 54.5t65.5 23.5q21 0 40 -8.5t37 -18.5t35 -18.5t33 -8.5q20 0 36.5 14t30.5 33l42 -44q-22 -31 -50 -52.5t-66 -21.5
q-21 0 -39 8.5t-35 18.5t-33 18.5t-32 8.5q-22 0 -38.5 -16t-31.5 -35z" />
    <glyph glyph-name="Odieresis" unicode="&#xd6;" horiz-adv-x="800" 
d="M28 360q0 81 27.5 149.5t77 117.5t118 76.5t149.5 27.5t149 -27.5t117.5 -76.5t77.5 -117.5t28 -149.5q0 -82 -27.5 -150t-77 -117t-118 -76.5t-149.5 -27.5t-149.5 27.5t-118 76.5t-77 117t-27.5 150zM398 79q59 0 108.5 20t85.5 56.5t56 88t20 114.5q0 64 -20 116
t-56 89t-85.5 57.5t-108.5 20.5q-58 0 -107 -20.5t-84 -57.5t-55 -89t-20 -116q0 -63 20 -114.5t55 -88t84 -56.5t107 -20zM485 802q-25 0 -42 18t-17 42q0 25 17 43t42 18q24 0 41 -18t17 -43q0 -24 -17 -42t-41 -18zM315 802q-25 0 -42 18t-17 42q0 25 17 43t42 18
q24 0 41 -18t17 -43q0 -24 -17 -42t-41 -18z" />
    <glyph glyph-name="multiply" unicode="&#xd7;" horiz-adv-x="510" 
d="M132 519l123 -123l123 123l59 -58l-123 -123l123 -123l-59 -59l-123 123l-123 -123l-59 59l123 123l-123 123z" />
    <glyph glyph-name="Oslash" unicode="&#xd8;" horiz-adv-x="800" 
d="M28 360q0 81 27.5 149.5t77 117.5t118 76.5t149.5 27.5q66 0 123.5 -18.5t104.5 -52.5l66 71l50 -46l-66 -70q45 -49 69.5 -113.5t24.5 -141.5q0 -82 -27.5 -150t-77 -117t-118 -76.5t-149.5 -27.5q-69 0 -128.5 19.5t-107.5 56.5l-70 -75l-49 47l70 75
q-42 48 -64.5 110.5t-22.5 137.5zM398 79q59 0 108.5 20t85.5 56.5t56 88t20 114.5q0 55 -15.5 101.5t-42.5 82.5l-381 -408q69 -55 169 -55zM132 358q0 -103 51 -174l379 405q-34 25 -75 38.5t-89 13.5q-58 0 -107 -20.5t-84 -57.5t-55 -89t-20 -116z" />
    <glyph glyph-name="Ugrave" unicode="&#xd9;" horiz-adv-x="682" 
d="M60 720h102v-400q0 -119 43.5 -181t134.5 -62q92 0 136 62t44 182v399h102v-399q0 -162 -71 -247t-211 -85q-144 0 -212 83.5t-68 248.5v399zM253 929l197 -114l-31 -53l-208 99z" />
    <glyph glyph-name="Uacute" unicode="&#xda;" horiz-adv-x="682" 
d="M60 720h102v-400q0 -119 43.5 -181t134.5 -62q92 0 136 62t44 182v399h102v-399q0 -162 -71 -247t-211 -85q-144 0 -212 83.5t-68 248.5v399zM231 815l197 114l42 -68l-208 -99z" />
    <glyph glyph-name="Ucircumflex" unicode="&#xdb;" horiz-adv-x="682" 
d="M60 720h102v-400q0 -119 43.5 -181t134.5 -62q92 0 136 62t44 182v399h102v-399q0 -162 -71 -247t-211 -85q-144 0 -212 83.5t-68 248.5v399zM164 815l177 114l177 -114l-31 -53l-146 77l-146 -77z" />
    <glyph glyph-name="Udieresis" unicode="&#xdc;" horiz-adv-x="682" 
d="M60 720h102v-400q0 -119 43.5 -181t134.5 -62q92 0 136 62t44 182v399h102v-399q0 -162 -71 -247t-211 -85q-144 0 -212 83.5t-68 248.5v399zM426 802q-25 0 -42 18t-17 42q0 25 17 43t42 18q24 0 41 -18t17 -43q0 -24 -17 -42t-41 -18zM256 802q-25 0 -42 18t-17 42
q0 25 17 43t42 18q24 0 41 -18t17 -43q0 -24 -17 -42t-41 -18z" />
    <glyph glyph-name="Yacute" unicode="&#xdd;" horiz-adv-x="613" 
d="M256 259l-251 461h108l197 -376l197 376h101l-250 -461v-259h-102v259zM197 815l197 114l42 -68l-208 -99z" />
    <glyph glyph-name="Thorn" unicode="&#xde;" horiz-adv-x="553" 
d="M65 720h102v-119h86q61 0 111 -14.5t86 -43t55.5 -71t19.5 -99.5q0 -62 -22 -107.5t-60 -75t-90.5 -44t-113.5 -14.5h-72v-132h-102v720zM167 519v-305h78q84 0 131 39t47 117q0 75 -47 112t-128 37h-81z" />
    <glyph glyph-name="germandbls" unicode="&#xdf;" horiz-adv-x="585" 
d="M55 501q0 116 62 173t168 57q44 0 84 -12t70 -35t47.5 -58t17.5 -81q0 -59 -26 -99.5t-69 -65.5q69 -20 111 -62.5t42 -115.5q0 -52 -18 -92t-47.5 -67t-67.5 -40.5t-78 -13.5q-52 0 -89.5 14.5t-69.5 49.5l55 62q17 -20 41 -32.5t63 -12.5q22 0 42.5 9t36 25.5
t24.5 40.5t9 55q0 38 -14 63.5t-37.5 40.5t-54 21.5t-64.5 6.5h-46v78h44q23 0 44 6.5t36.5 21.5t24.5 38.5t9 56.5q0 49 -33 83t-98 34q-54 0 -87 -36.5t-33 -113.5v-500h-99v501z" />
    <glyph glyph-name="agrave" unicode="&#xe0;" horiz-adv-x="617" 
d="M464 89h-3q-32 -51 -75.5 -75.5t-103.5 -24.5q-54 0 -101.5 20.5t-82.5 56.5t-55 86.5t-20 110.5t20 110t54.5 86t82 56.5t102.5 20.5t102 -22.5t76 -67.5h3v79h99v-525h-98v89zM292 71q37 0 68 14.5t54 40t36 60.5t13 77t-13 76.5t-36 60t-54 39.5t-68 14
q-36 0 -67.5 -14t-54 -39.5t-35.5 -60t-13 -76.5t13 -77t35.5 -60.5t54 -40t67.5 -14.5zM222 734l197 -114l-31 -53l-208 99z" />
    <glyph glyph-name="aacute" unicode="&#xe1;" horiz-adv-x="617" 
d="M464 89h-3q-32 -51 -75.5 -75.5t-103.5 -24.5q-54 0 -101.5 20.5t-82.5 56.5t-55 86.5t-20 110.5t20 110t54.5 86t82 56.5t102.5 20.5t102 -22.5t76 -67.5h3v79h99v-525h-98v89zM292 71q37 0 68 14.5t54 40t36 60.5t13 77t-13 76.5t-36 60t-54 39.5t-68 14
q-36 0 -67.5 -14t-54 -39.5t-35.5 -60t-13 -76.5t13 -77t35.5 -60.5t54 -40t67.5 -14.5zM200 620l197 114l42 -68l-208 -99z" />
    <glyph glyph-name="acircumflex" unicode="&#xe2;" horiz-adv-x="617" 
d="M464 89h-3q-32 -51 -75.5 -75.5t-103.5 -24.5q-54 0 -101.5 20.5t-82.5 56.5t-55 86.5t-20 110.5t20 110t54.5 86t82 56.5t102.5 20.5t102 -22.5t76 -67.5h3v79h99v-525h-98v89zM292 71q37 0 68 14.5t54 40t36 60.5t13 77t-13 76.5t-36 60t-54 39.5t-68 14
q-36 0 -67.5 -14t-54 -39.5t-35.5 -60t-13 -76.5t13 -77t35.5 -60.5t54 -40t67.5 -14.5zM133 620l177 114l177 -114l-31 -53l-146 77l-146 -77z" />
    <glyph glyph-name="atilde" unicode="&#xe3;" horiz-adv-x="617" 
d="M464 89h-3q-32 -51 -75.5 -75.5t-103.5 -24.5q-54 0 -101.5 20.5t-82.5 56.5t-55 86.5t-20 110.5t20 110t54.5 86t82 56.5t102.5 20.5t102 -22.5t76 -67.5h3v79h99v-525h-98v89zM292 71q37 0 68 14.5t54 40t36 60.5t13 77t-13 76.5t-36 60t-54 39.5t-68 14
q-36 0 -67.5 -14t-54 -39.5t-35.5 -60t-13 -76.5t13 -77t35.5 -60.5t54 -40t67.5 -14.5zM125 634q21 31 48.5 54.5t65.5 23.5q21 0 40 -8.5t37 -18.5t35 -18.5t33 -8.5q20 0 36.5 14t30.5 33l42 -44q-22 -31 -50 -52.5t-66 -21.5q-21 0 -39 8.5t-35 18.5t-33 18.5t-32 8.5
q-22 0 -38.5 -16t-31.5 -35z" />
    <glyph glyph-name="adieresis" unicode="&#xe4;" horiz-adv-x="617" 
d="M464 89h-3q-32 -51 -75.5 -75.5t-103.5 -24.5q-54 0 -101.5 20.5t-82.5 56.5t-55 86.5t-20 110.5t20 110t54.5 86t82 56.5t102.5 20.5t102 -22.5t76 -67.5h3v79h99v-525h-98v89zM292 71q37 0 68 14.5t54 40t36 60.5t13 77t-13 76.5t-36 60t-54 39.5t-68 14
q-36 0 -67.5 -14t-54 -39.5t-35.5 -60t-13 -76.5t13 -77t35.5 -60.5t54 -40t67.5 -14.5zM395 607q-25 0 -42 18t-17 42q0 25 17 43t42 18q24 0 41 -18t17 -43q0 -24 -17 -42t-41 -18zM225 607q-25 0 -42 18t-17 42q0 25 17 43t42 18q24 0 41 -18t17 -43q0 -24 -17 -42
t-41 -18z" />
    <glyph glyph-name="aring" unicode="&#xe5;" horiz-adv-x="617" 
d="M464 89h-3q-32 -51 -75.5 -75.5t-103.5 -24.5q-54 0 -101.5 20.5t-82.5 56.5t-55 86.5t-20 110.5t20 110t54.5 86t82 56.5t102.5 20.5t102 -22.5t76 -67.5h3v79h99v-525h-98v89zM292 71q37 0 68 14.5t54 40t36 60.5t13 77t-13 76.5t-36 60t-54 39.5t-68 14
q-36 0 -67.5 -14t-54 -39.5t-35.5 -60t-13 -76.5t13 -77t35.5 -60.5t54 -40t67.5 -14.5zM309 619q23 0 39 16.5t16 40.5q0 25 -16 41.5t-39 16.5t-39 -16.5t-16 -41.5q0 -24 16 -40.5t39 -16.5zM199 676q0 22 8.5 42t23.5 35t35 24t43 9t43 -9t35 -24t23.5 -35t8.5 -42
q0 -23 -8.5 -43t-23.5 -34.5t-35 -23t-43 -8.5t-43 8.5t-35 23t-23.5 34.5t-8.5 43z" />
    <glyph glyph-name="ae" unicode="&#xe6;" horiz-adv-x="905" 
d="M37 414q15 32 37.5 55t51.5 38t62 22t69 7q65 0 113.5 -21.5t76.5 -69.5q33 42 82 66.5t110 24.5t106 -23t75 -59.5t44.5 -83t14.5 -94.5q0 -21 -3 -40h-387q8 -72 49 -118t109 -46q51 0 88.5 27.5t53.5 78.5l83 -27q-25 -77 -86.5 -119.5t-142.5 -42.5q-75 0 -130 32.5
t-87 89.5q-32 -57 -83 -89.5t-132 -32.5q-39 0 -73.5 10t-60.5 30.5t-41.5 52t-15.5 74.5q0 75 52 120t170 45q51 0 88 -8t57 -16v16q0 63 -35 101.5t-101 38.5q-56 0 -90.5 -19t-53.5 -61zM387 216q-31 17 -67.5 24.5t-70.5 7.5q-68 0 -99 -23.5t-31 -63.5q0 -45 34.5 -67
t85.5 -22q33 0 60 11.5t46.5 30t30.5 42.5t11 49v11zM638 453q-62 0 -101 -40.5t-48 -106.5h293q-2 30 -12.5 56.5t-29.5 46.5t-44.5 32t-57.5 12z" />
    <glyph glyph-name="ccedilla" unicode="&#xe7;" horiz-adv-x="451" 
d="M256 -7q-52 8 -95 31t-73.5 58.5t-47.5 82t-17 100.5q0 58 20 107.5t57.5 86t90.5 57t119 20.5q35 0 63.5 -7t54.5 -19v-90q-48 33 -122 33q-44 0 -78 -14t-57.5 -39t-36 -59.5t-12.5 -74.5q0 -44 14 -79.5t39.5 -61.5t60.5 -40t77 -14q32 0 62 7t56 20v-85
q-46 -20 -97 -23l-66 -140h-74z" />
    <glyph glyph-name="egrave" unicode="&#xe8;" horiz-adv-x="540" 
d="M124 236q8 -72 49 -118t109 -46q51 0 88.5 27.5t53.5 78.5l83 -27q-25 -77 -86.5 -119.5t-142.5 -42.5q-59 0 -106 21t-80 57.5t-51 87t-18 110.5q0 58 18.5 107.5t51.5 86t79 57t102 20.5q61 0 106 -23t75 -59.5t44.5 -83t14.5 -94.5q0 -21 -3 -40h-387zM273 453
q-62 0 -101 -40.5t-48 -106.5h293q-2 30 -12.5 56.5t-29.5 46.5t-44.5 32t-57.5 12zM183 734l197 -114l-31 -53l-208 99z" />
    <glyph glyph-name="eacute" unicode="&#xe9;" horiz-adv-x="540" 
d="M124 236q8 -72 49 -118t109 -46q51 0 88.5 27.5t53.5 78.5l83 -27q-25 -77 -86.5 -119.5t-142.5 -42.5q-59 0 -106 21t-80 57.5t-51 87t-18 110.5q0 58 18.5 107.5t51.5 86t79 57t102 20.5q61 0 106 -23t75 -59.5t44.5 -83t14.5 -94.5q0 -21 -3 -40h-387zM273 453
q-62 0 -101 -40.5t-48 -106.5h293q-2 30 -12.5 56.5t-29.5 46.5t-44.5 32t-57.5 12zM161 620l197 114l42 -68l-208 -99z" />
    <glyph glyph-name="ecircumflex" unicode="&#xea;" horiz-adv-x="540" 
d="M124 236q8 -72 49 -118t109 -46q51 0 88.5 27.5t53.5 78.5l83 -27q-25 -77 -86.5 -119.5t-142.5 -42.5q-59 0 -106 21t-80 57.5t-51 87t-18 110.5q0 58 18.5 107.5t51.5 86t79 57t102 20.5q61 0 106 -23t75 -59.5t44.5 -83t14.5 -94.5q0 -21 -3 -40h-387zM273 453
q-62 0 -101 -40.5t-48 -106.5h293q-2 30 -12.5 56.5t-29.5 46.5t-44.5 32t-57.5 12zM94 620l177 114l177 -114l-31 -53l-146 77l-146 -77z" />
    <glyph glyph-name="edieresis" unicode="&#xeb;" horiz-adv-x="540" 
d="M124 236q8 -72 49 -118t109 -46q51 0 88.5 27.5t53.5 78.5l83 -27q-25 -77 -86.5 -119.5t-142.5 -42.5q-59 0 -106 21t-80 57.5t-51 87t-18 110.5q0 58 18.5 107.5t51.5 86t79 57t102 20.5q61 0 106 -23t75 -59.5t44.5 -83t14.5 -94.5q0 -21 -3 -40h-387zM273 453
q-62 0 -101 -40.5t-48 -106.5h293q-2 30 -12.5 56.5t-29.5 46.5t-44.5 32t-57.5 12zM356 607q-25 0 -42 18t-17 42q0 25 17 43t42 18q24 0 41 -18t17 -43q0 -24 -17 -42t-41 -18zM186 607q-25 0 -42 18t-17 42q0 25 17 43t42 18q24 0 41 -18t17 -43q0 -24 -17 -42t-41 -18z
" />
    <glyph glyph-name="igrave" unicode="&#xec;" 
d="M55 525h99v-525h-99v525zM18 734l197 -114l-31 -53l-208 99z" />
    <glyph glyph-name="iacute" unicode="&#xed;" 
d="M55 525h99v-525h-99v525zM-4 620l197 114l42 -68l-208 -99z" />
    <glyph glyph-name="icircumflex" unicode="&#xee;" 
d="M55 525h99v-525h-99v525zM-71 620l177 114l177 -114l-31 -53l-146 77l-146 -77z" />
    <glyph glyph-name="idieresis" unicode="&#xef;" 
d="M55 525h99v-525h-99v525zM191 607q-25 0 -42 18t-17 42q0 25 17 43t42 18q24 0 41 -18t17 -43q0 -24 -17 -42t-41 -18zM21 607q-25 0 -42 18t-17 42q0 25 17 43t42 18q24 0 41 -18t17 -43q0 -24 -17 -42t-41 -18z" />
    <glyph glyph-name="eth" unicode="&#xf0;" horiz-adv-x="585" 
d="M211 760q17 -8 33 -15t32 -15l33 54l49 -29l-33 -54q69 -44 114.5 -94.5t72.5 -105t38.5 -111.5t11.5 -112q0 -65 -20.5 -118t-56.5 -91t-85.5 -59t-107.5 -21t-107.5 20.5t-85.5 57.5t-56 87t-20 109q0 58 20 108t56 87t85.5 57.5t107.5 20.5q36 0 68 -10.5t61 -35.5
q-24 41 -57.5 77.5t-77.5 68.5l-36 -59l-49 30l36 60l-57 30zM292 72q37 0 68 14t54 39.5t36 60.5t13 77t-13 76.5t-36 60t-54 39.5t-68 14q-36 0 -67.5 -14t-54 -39.5t-35.5 -60t-13 -76.5t13 -77t35.5 -60.5t54 -39.5t67.5 -14z" />
    <glyph glyph-name="ntilde" unicode="&#xf1;" horiz-adv-x="575" 
d="M55 525h97v-79h3q26 42 67 66t105 24q52 0 90.5 -17t63.5 -47.5t37 -72.5t12 -91v-308h-99v288q0 34 -7.5 64t-23.5 52.5t-41.5 35.5t-62.5 13q-71 0 -106.5 -46.5t-35.5 -129.5v-277h-99v525zM104 634q21 31 48.5 54.5t65.5 23.5q21 0 40 -8.5t37 -18.5t35 -18.5
t33 -8.5q20 0 36.5 14t30.5 33l42 -44q-22 -31 -50 -52.5t-66 -21.5q-21 0 -39 8.5t-35 18.5t-33 18.5t-32 8.5q-22 0 -38.5 -16t-31.5 -35z" />
    <glyph glyph-name="ograve" unicode="&#xf2;" horiz-adv-x="585" 
d="M292 -11q-58 0 -107.5 20.5t-85.5 57.5t-56 87t-20 109q0 58 20 108t56 87t85.5 57.5t107.5 20.5t107.5 -20.5t85.5 -57.5t56.5 -87t20.5 -108q0 -59 -20.5 -109t-56.5 -87t-85.5 -57.5t-107.5 -20.5zM292 72q37 0 68 14t54 39.5t36 60.5t13 77t-13 76.5t-36 60t-54 39.5
t-68 14q-36 0 -67.5 -14t-54 -39.5t-35.5 -60t-13 -76.5t13 -77t35.5 -60.5t54 -39.5t67.5 -14zM205 734l197 -114l-31 -53l-208 99z" />
    <glyph glyph-name="oacute" unicode="&#xf3;" horiz-adv-x="585" 
d="M292 -11q-58 0 -107.5 20.5t-85.5 57.5t-56 87t-20 109q0 58 20 108t56 87t85.5 57.5t107.5 20.5t107.5 -20.5t85.5 -57.5t56.5 -87t20.5 -108q0 -59 -20.5 -109t-56.5 -87t-85.5 -57.5t-107.5 -20.5zM292 72q37 0 68 14t54 39.5t36 60.5t13 77t-13 76.5t-36 60t-54 39.5
t-68 14q-36 0 -67.5 -14t-54 -39.5t-35.5 -60t-13 -76.5t13 -77t35.5 -60.5t54 -39.5t67.5 -14zM183 620l197 114l42 -68l-208 -99z" />
    <glyph glyph-name="ocircumflex" unicode="&#xf4;" horiz-adv-x="585" 
d="M292 -11q-58 0 -107.5 20.5t-85.5 57.5t-56 87t-20 109q0 58 20 108t56 87t85.5 57.5t107.5 20.5t107.5 -20.5t85.5 -57.5t56.5 -87t20.5 -108q0 -59 -20.5 -109t-56.5 -87t-85.5 -57.5t-107.5 -20.5zM292 72q37 0 68 14t54 39.5t36 60.5t13 77t-13 76.5t-36 60t-54 39.5
t-68 14q-36 0 -67.5 -14t-54 -39.5t-35.5 -60t-13 -76.5t13 -77t35.5 -60.5t54 -39.5t67.5 -14zM116 620l177 114l177 -114l-31 -53l-146 77l-146 -77z" />
    <glyph glyph-name="otilde" unicode="&#xf5;" horiz-adv-x="585" 
d="M292 -11q-58 0 -107.5 20.5t-85.5 57.5t-56 87t-20 109q0 58 20 108t56 87t85.5 57.5t107.5 20.5t107.5 -20.5t85.5 -57.5t56.5 -87t20.5 -108q0 -59 -20.5 -109t-56.5 -87t-85.5 -57.5t-107.5 -20.5zM292 72q37 0 68 14t54 39.5t36 60.5t13 77t-13 76.5t-36 60t-54 39.5
t-68 14q-36 0 -67.5 -14t-54 -39.5t-35.5 -60t-13 -76.5t13 -77t35.5 -60.5t54 -39.5t67.5 -14zM108 634q21 31 48.5 54.5t65.5 23.5q21 0 40 -8.5t37 -18.5t35 -18.5t33 -8.5q20 0 36.5 14t30.5 33l42 -44q-22 -31 -50 -52.5t-66 -21.5q-21 0 -39 8.5t-35 18.5t-33 18.5
t-32 8.5q-22 0 -38.5 -16t-31.5 -35z" />
    <glyph glyph-name="odieresis" unicode="&#xf6;" horiz-adv-x="585" 
d="M292 -11q-58 0 -107.5 20.5t-85.5 57.5t-56 87t-20 109q0 58 20 108t56 87t85.5 57.5t107.5 20.5t107.5 -20.5t85.5 -57.5t56.5 -87t20.5 -108q0 -59 -20.5 -109t-56.5 -87t-85.5 -57.5t-107.5 -20.5zM292 72q37 0 68 14t54 39.5t36 60.5t13 77t-13 76.5t-36 60t-54 39.5
t-68 14q-36 0 -67.5 -14t-54 -39.5t-35.5 -60t-13 -76.5t13 -77t35.5 -60.5t54 -39.5t67.5 -14zM378 607q-25 0 -42 18t-17 42q0 25 17 43t42 18q24 0 41 -18t17 -43q0 -24 -17 -42t-41 -18zM208 607q-25 0 -42 18t-17 42q0 25 17 43t42 18q24 0 41 -18t17 -43
q0 -24 -17 -42t-41 -18z" />
    <glyph glyph-name="divide" unicode="&#xf7;" horiz-adv-x="510" 
d="M69 379h372v-83h-372v83zM186 534q0 28 20.5 47t48.5 19t48.5 -19t20.5 -47t-20.5 -47.5t-48.5 -19.5t-48.5 19.5t-20.5 47.5zM186 142q0 27 20.5 46.5t48.5 19.5t48.5 -19.5t20.5 -46.5q0 -28 -20.5 -47.5t-48.5 -19.5t-48.5 19.5t-20.5 47.5z" />
    <glyph glyph-name="oslash" unicode="&#xf8;" horiz-adv-x="585" 
d="M292 -11q-46 0 -86 13t-72 36l-45 -49l-49 47l44 48q-29 35 -45 80.5t-16 98.5q0 58 20 108t56 87t85.5 57.5t107.5 20.5q46 0 87 -13t74 -37l46 50l50 -46l-47 -51q29 -35 44.5 -80t15.5 -96q0 -59 -20.5 -109t-56.5 -87t-85.5 -57.5t-107.5 -20.5zM122 263q0 -31 7 -58
t20 -50l243 264q-43 34 -100 34q-36 0 -67.5 -14t-54 -39.5t-35.5 -60t-13 -76.5zM292 72q37 0 68 14t54 39.5t36 60.5t13 77q0 29 -7 55.5t-19 49.5l-243 -264q41 -32 98 -32z" />
    <glyph glyph-name="ugrave" unicode="&#xf9;" horiz-adv-x="550" 
d="M45 525h99v-288q0 -34 8 -64t24 -52.5t40.5 -35.5t58.5 -13t58.5 13t40.5 35.5t24 52.5t8 64v288h99v-301q0 -53 -17 -96t-48 -74t-73 -48t-93 -17q-50 0 -92 16.5t-72.5 47.5t-47.5 73.5t-17 95.5v303zM188 734l197 -114l-31 -53l-208 99z" />
    <glyph glyph-name="uacute" unicode="&#xfa;" horiz-adv-x="550" 
d="M45 525h99v-288q0 -34 8 -64t24 -52.5t40.5 -35.5t58.5 -13t58.5 13t40.5 35.5t24 52.5t8 64v288h99v-301q0 -53 -17 -96t-48 -74t-73 -48t-93 -17q-50 0 -92 16.5t-72.5 47.5t-47.5 73.5t-17 95.5v303zM166 620l197 114l42 -68l-208 -99z" />
    <glyph glyph-name="ucircumflex" unicode="&#xfb;" horiz-adv-x="550" 
d="M45 525h99v-288q0 -34 8 -64t24 -52.5t40.5 -35.5t58.5 -13t58.5 13t40.5 35.5t24 52.5t8 64v288h99v-301q0 -53 -17 -96t-48 -74t-73 -48t-93 -17q-50 0 -92 16.5t-72.5 47.5t-47.5 73.5t-17 95.5v303zM99 620l177 114l177 -114l-31 -53l-146 77l-146 -77z" />
    <glyph glyph-name="udieresis" unicode="&#xfc;" horiz-adv-x="550" 
d="M45 525h99v-288q0 -34 8 -64t24 -52.5t40.5 -35.5t58.5 -13t58.5 13t40.5 35.5t24 52.5t8 64v288h99v-301q0 -53 -17 -96t-48 -74t-73 -48t-93 -17q-50 0 -92 16.5t-72.5 47.5t-47.5 73.5t-17 95.5v303zM361 607q-25 0 -42 18t-17 42q0 25 17 43t42 18q24 0 41 -18
t17 -43q0 -24 -17 -42t-41 -18zM191 607q-25 0 -42 18t-17 42q0 25 17 43t42 18q24 0 41 -18t17 -43q0 -24 -17 -42t-41 -18z" />
    <glyph glyph-name="yacute" unicode="&#xfd;" horiz-adv-x="508" 
d="M225 57l-225 468h105l165 -355l138 355h100l-286 -725h-99zM145 620l197 114l42 -68l-208 -99z" />
    <glyph glyph-name="thorn" unicode="&#xfe;" horiz-adv-x="617" 
d="M55 720h99v-285h3q29 51 76 76t104 25q55 0 102 -20.5t81.5 -56.5t54.5 -86t20 -110t-20 -110.5t-55 -86.5t-82.5 -56.5t-101.5 -20.5q-119 0 -179 100h-3v-289h-99v920zM325 71q37 0 68 14.5t54 40t36 60.5t13 77t-13 76.5t-36 60t-54 39.5t-68 14t-68 -14t-54 -39.5
t-36 -60t-13 -76.5t13 -77t36 -60.5t54 -40t68 -14.5z" />
    <glyph glyph-name="ydieresis" unicode="&#xff;" horiz-adv-x="508" 
d="M225 57l-225 468h105l165 -355l138 355h100l-286 -725h-99zM340 607q-25 0 -42 18t-17 42q0 25 17 43t42 18q24 0 41 -18t17 -43q0 -24 -17 -42t-41 -18zM170 607q-25 0 -42 18t-17 42q0 25 17 43t42 18q24 0 41 -18t17 -43q0 -24 -17 -42t-41 -18z" />
    <glyph glyph-name="Amacron" unicode="&#x100;" horiz-adv-x="700" 
d="M350 730l345 -730h-113l-76 168h-318l-75 -168h-108zM224 250h245l-123 272zM208 865h283v-69h-283v69z" />
    <glyph glyph-name="amacron" unicode="&#x101;" horiz-adv-x="617" 
d="M464 89h-3q-32 -51 -75.5 -75.5t-103.5 -24.5q-54 0 -101.5 20.5t-82.5 56.5t-55 86.5t-20 110.5t20 110t54.5 86t82 56.5t102.5 20.5t102 -22.5t76 -67.5h3v79h99v-525h-98v89zM292 71q37 0 68 14.5t54 40t36 60.5t13 77t-13 76.5t-36 60t-54 39.5t-68 14
q-36 0 -67.5 -14t-54 -39.5t-35.5 -60t-13 -76.5t13 -77t35.5 -60.5t54 -40t67.5 -14.5zM168 670h283v-69h-283v69z" />
    <glyph glyph-name="Abreve" unicode="&#x102;" horiz-adv-x="700" 
d="M350 730l345 -730h-113l-76 168h-318l-75 -168h-108zM224 250h245l-123 272zM282 904q0 -42 20.5 -60.5t47.5 -18.5t47 18.5t20 60.5h68q0 -66 -36 -104t-99 -38t-99.5 39.5t-36.5 102.5h68z" />
    <glyph glyph-name="abreve" unicode="&#x103;" horiz-adv-x="617" 
d="M464 89h-3q-32 -51 -75.5 -75.5t-103.5 -24.5q-54 0 -101.5 20.5t-82.5 56.5t-55 86.5t-20 110.5t20 110t54.5 86t82 56.5t102.5 20.5t102 -22.5t76 -67.5h3v79h99v-525h-98v89zM292 71q37 0 68 14.5t54 40t36 60.5t13 77t-13 76.5t-36 60t-54 39.5t-68 14
q-36 0 -67.5 -14t-54 -39.5t-35.5 -60t-13 -76.5t13 -77t35.5 -60.5t54 -40t67.5 -14.5zM242 709q0 -42 20.5 -60.5t47.5 -18.5t47 18.5t20 60.5h68q0 -66 -36 -104t-99 -38t-99.5 39.5t-36.5 102.5h68z" />
    <glyph glyph-name="Aogonek" unicode="&#x104;" horiz-adv-x="700" 
d="M658 -227q-101 0 -145.5 31.5t-44.5 78.5q0 44 31 75t78 52l-71 158h-318l-75 -168h-108l345 730l345 -730h-48q-42 -23 -68.5 -48t-26.5 -57q0 -20 24.5 -38.5t81.5 -18.5v-65zM224 250h245l-123 272z" />
    <glyph glyph-name="aogonek" unicode="&#x105;" horiz-adv-x="617" 
d="M546 -227q-101 0 -145.5 31.5t-44.5 78.5q0 44 31 74.5t77 51.5v80h-3q-32 -51 -75.5 -75.5t-103.5 -24.5q-54 0 -101.5 20.5t-82.5 56.5t-55 86.5t-20 110.5t20 110t54.5 86t82 56.5t102.5 20.5t102 -22.5t76 -67.5h3v79h99v-525h-27q-42 -23 -68.5 -48t-26.5 -57
q0 -20 24.5 -38.5t81.5 -18.5v-65zM292 71q37 0 68 14.5t54 40t36 60.5t13 77t-13 76.5t-36 60t-54 39.5t-68 14q-36 0 -67.5 -14t-54 -39.5t-35.5 -60t-13 -76.5t13 -77t35.5 -60.5t54 -40t67.5 -14.5z" />
    <glyph glyph-name="Cacute" unicode="&#x106;" horiz-adv-x="572" 
d="M552 19q-33 -18 -69 -23.5t-76 -5.5q-84 0 -153.5 26.5t-119.5 75t-78 117t-28 151.5q0 81 28.5 149.5t79 117.5t120 76.5t152.5 27.5q38 0 73 -6t67 -24v-94q-32 20 -67.5 27t-73.5 7q-61 0 -111.5 -20.5t-87 -57.5t-57 -89t-20.5 -116q0 -63 20.5 -114.5t57 -88
t87.5 -56.5t112 -20q39 0 75 6t69 25v-91zM256 815l197 114l42 -68l-208 -99z" />
    <glyph glyph-name="cacute" unicode="&#x107;" horiz-adv-x="451" 
d="M431 13q-28 -13 -58.5 -18.5t-63.5 -5.5q-62 0 -114.5 20.5t-90.5 57t-59.5 87t-21.5 111.5q0 58 20 107.5t57.5 86t90.5 57t119 20.5q35 0 63.5 -7t54.5 -19v-90q-48 33 -122 33q-44 0 -78 -14t-57.5 -39t-36 -59.5t-12.5 -74.5q0 -44 14 -79.5t39.5 -61.5t60.5 -40
t77 -14q32 0 62 7t56 20v-85zM161 620l197 114l42 -68l-208 -99z" />
    <glyph glyph-name="Ccircumflex" unicode="&#x108;" horiz-adv-x="572" 
d="M552 19q-33 -18 -69 -23.5t-76 -5.5q-84 0 -153.5 26.5t-119.5 75t-78 117t-28 151.5q0 81 28.5 149.5t79 117.5t120 76.5t152.5 27.5q38 0 73 -6t67 -24v-94q-32 20 -67.5 27t-73.5 7q-61 0 -111.5 -20.5t-87 -57.5t-57 -89t-20.5 -116q0 -63 20.5 -114.5t57 -88
t87.5 -56.5t112 -20q39 0 75 6t69 25v-91zM189 815l177 114l177 -114l-31 -53l-146 77l-146 -77z" />
    <glyph glyph-name="ccircumflex" unicode="&#x109;" horiz-adv-x="451" 
d="M431 13q-28 -13 -58.5 -18.5t-63.5 -5.5q-62 0 -114.5 20.5t-90.5 57t-59.5 87t-21.5 111.5q0 58 20 107.5t57.5 86t90.5 57t119 20.5q35 0 63.5 -7t54.5 -19v-90q-48 33 -122 33q-44 0 -78 -14t-57.5 -39t-36 -59.5t-12.5 -74.5q0 -44 14 -79.5t39.5 -61.5t60.5 -40
t77 -14q32 0 62 7t56 20v-85zM94 620l177 114l177 -114l-31 -53l-146 77l-146 -77z" />
    <glyph glyph-name="Cdotaccent" unicode="&#x10a;" horiz-adv-x="572" 
d="M552 19q-33 -18 -69 -23.5t-76 -5.5q-84 0 -153.5 26.5t-119.5 75t-78 117t-28 151.5q0 81 28.5 149.5t79 117.5t120 76.5t152.5 27.5q38 0 73 -6t67 -24v-94q-32 20 -67.5 27t-73.5 7q-61 0 -111.5 -20.5t-87 -57.5t-57 -89t-20.5 -116q0 -63 20.5 -114.5t57 -88
t87.5 -56.5t112 -20q39 0 75 6t69 25v-91zM366 799q-26 0 -44 18.5t-18 44.5t18 45t44 19t43.5 -19t17.5 -45t-17.5 -44.5t-43.5 -18.5z" />
    <glyph glyph-name="cdotaccent" unicode="&#x10b;" horiz-adv-x="451" 
d="M431 13q-28 -13 -58.5 -18.5t-63.5 -5.5q-62 0 -114.5 20.5t-90.5 57t-59.5 87t-21.5 111.5q0 58 20 107.5t57.5 86t90.5 57t119 20.5q35 0 63.5 -7t54.5 -19v-90q-48 33 -122 33q-44 0 -78 -14t-57.5 -39t-36 -59.5t-12.5 -74.5q0 -44 14 -79.5t39.5 -61.5t60.5 -40
t77 -14q32 0 62 7t56 20v-85zM271 604q-26 0 -44 18.5t-18 44.5t18 45t44 19t43.5 -19t17.5 -45t-17.5 -44.5t-43.5 -18.5z" />
    <glyph glyph-name="Ccaron" unicode="&#x10c;" horiz-adv-x="572" 
d="M552 19q-33 -18 -69 -23.5t-76 -5.5q-84 0 -153.5 26.5t-119.5 75t-78 117t-28 151.5q0 81 28.5 149.5t79 117.5t120 76.5t152.5 27.5q38 0 73 -6t67 -24v-94q-32 20 -67.5 27t-73.5 7q-61 0 -111.5 -20.5t-87 -57.5t-57 -89t-20.5 -116q0 -63 20.5 -114.5t57 -88
t87.5 -56.5t112 -20q39 0 75 6t69 25v-91zM220 929l146 -77l146 77l31 -53l-177 -114l-177 114z" />
    <glyph glyph-name="ccaron" unicode="&#x10d;" horiz-adv-x="451" 
d="M431 13q-28 -13 -58.5 -18.5t-63.5 -5.5q-62 0 -114.5 20.5t-90.5 57t-59.5 87t-21.5 111.5q0 58 20 107.5t57.5 86t90.5 57t119 20.5q35 0 63.5 -7t54.5 -19v-90q-48 33 -122 33q-44 0 -78 -14t-57.5 -39t-36 -59.5t-12.5 -74.5q0 -44 14 -79.5t39.5 -61.5t60.5 -40
t77 -14q32 0 62 7t56 20v-85zM125 734l146 -77l146 77l31 -53l-177 -114l-177 114z" />
    <glyph glyph-name="Dcaron" unicode="&#x10e;" horiz-adv-x="702" 
d="M65 720h206q100 0 175.5 -28t126 -76.5t76 -115t25.5 -142.5q0 -81 -27.5 -147.5t-79 -113t-124.5 -72t-163 -25.5h-215v720zM167 634v-548h105q72 0 127.5 19.5t93.5 55t57.5 85.5t19.5 112q0 63 -21 114t-60 87t-94 55.5t-123 19.5h-105zM136 929l146 -77l146 77
l31 -53l-177 -114l-177 114z" />
    <glyph glyph-name="dcaron" unicode="&#x10f;" horiz-adv-x="709" 
d="M464 89h-3q-32 -50 -75 -75t-103 -25q-55 0 -102.5 20.5t-82.5 56.5t-55 86.5t-20 110.5t20 110t54.5 86t82 56.5t102.5 20.5q56 0 102.5 -22.5t75.5 -67.5h3v274h99v-720h-98v89zM292 71q37 0 68 14.5t54 40t36 60.5t13 77t-13 76.5t-36 60t-54 39.5t-68 14
q-36 0 -67.5 -14t-54 -39.5t-35.5 -60t-13 -76.5t13 -77t35.5 -60.5t54 -40t67.5 -14.5zM637 720h92l-53 -160h-69z" />
    <glyph glyph-name="Dcroat" unicode="&#x110;" horiz-adv-x="702" 
d="M4 415h61v305h206q100 0 175.5 -28t126 -76.5t76 -115t25.5 -142.5q0 -81 -27.5 -147.5t-79 -113t-124.5 -72t-163 -25.5h-215v329h-61v86zM167 329v-243h105q72 0 127.5 19.5t93.5 55t57.5 85.5t19.5 112q0 63 -21 114t-60 87t-94 55.5t-123 19.5h-105v-219h178v-86
h-178z" />
    <glyph glyph-name="dcroat" unicode="&#x111;" horiz-adv-x="617" 
d="M369 670h94v50h99v-50h50v-69h-50v-601h-98v89h-3q-32 -50 -75 -75t-103 -25q-55 0 -102.5 20.5t-82.5 56.5t-55 86.5t-20 110.5t20 110t54.5 86t82 56.5t102.5 20.5q56 0 102.5 -22.5t75.5 -67.5h3v155h-94v69zM292 71q37 0 68 14.5t54 40t36 60.5t13 77t-13 76.5
t-36 60t-54 39.5t-68 14q-36 0 -67.5 -14t-54 -39.5t-35.5 -60t-13 -76.5t13 -77t35.5 -60.5t54 -40t67.5 -14.5z" />
    <glyph glyph-name="Emacron" unicode="&#x112;" horiz-adv-x="502" 
d="M65 720h399v-90h-297v-213h247v-90h-247v-237h297v-90h-399v720zM129 865h283v-69h-283v69z" />
    <glyph glyph-name="emacron" unicode="&#x113;" horiz-adv-x="540" 
d="M124 236q8 -72 49 -118t109 -46q51 0 88.5 27.5t53.5 78.5l83 -27q-25 -77 -86.5 -119.5t-142.5 -42.5q-59 0 -106 21t-80 57.5t-51 87t-18 110.5q0 58 18.5 107.5t51.5 86t79 57t102 20.5q61 0 106 -23t75 -59.5t44.5 -83t14.5 -94.5q0 -21 -3 -40h-387zM273 453
q-62 0 -101 -40.5t-48 -106.5h293q-2 30 -12.5 56.5t-29.5 46.5t-44.5 32t-57.5 12zM129 670h283v-69h-283v69z" />
    <glyph glyph-name="Ebreve" unicode="&#x114;" horiz-adv-x="502" 
d="M65 720h399v-90h-297v-213h247v-90h-247v-237h297v-90h-399v720zM203 904q0 -42 20.5 -60.5t47.5 -18.5t47 18.5t20 60.5h68q0 -66 -36 -104t-99 -38t-99.5 39.5t-36.5 102.5h68z" />
    <glyph glyph-name="ebreve" unicode="&#x115;" horiz-adv-x="540" 
d="M124 236q8 -72 49 -118t109 -46q51 0 88.5 27.5t53.5 78.5l83 -27q-25 -77 -86.5 -119.5t-142.5 -42.5q-59 0 -106 21t-80 57.5t-51 87t-18 110.5q0 58 18.5 107.5t51.5 86t79 57t102 20.5q61 0 106 -23t75 -59.5t44.5 -83t14.5 -94.5q0 -21 -3 -40h-387zM273 453
q-62 0 -101 -40.5t-48 -106.5h293q-2 30 -12.5 56.5t-29.5 46.5t-44.5 32t-57.5 12zM203 709q0 -42 20.5 -60.5t47.5 -18.5t47 18.5t20 60.5h68q0 -66 -36 -104t-99 -38t-99.5 39.5t-36.5 102.5h68z" />
    <glyph glyph-name="Edotaccent" unicode="&#x116;" horiz-adv-x="502" 
d="M65 720h399v-90h-297v-213h247v-90h-247v-237h297v-90h-399v720zM271 799q-26 0 -44 18.5t-18 44.5t18 45t44 19t43.5 -19t17.5 -45t-17.5 -44.5t-43.5 -18.5z" />
    <glyph glyph-name="edotaccent" unicode="&#x117;" horiz-adv-x="540" 
d="M124 236q8 -72 49 -118t109 -46q51 0 88.5 27.5t53.5 78.5l83 -27q-25 -77 -86.5 -119.5t-142.5 -42.5q-59 0 -106 21t-80 57.5t-51 87t-18 110.5q0 58 18.5 107.5t51.5 86t79 57t102 20.5q61 0 106 -23t75 -59.5t44.5 -83t14.5 -94.5q0 -21 -3 -40h-387zM273 453
q-62 0 -101 -40.5t-48 -106.5h293q-2 30 -12.5 56.5t-29.5 46.5t-44.5 32t-57.5 12zM271 604q-26 0 -44 18.5t-18 44.5t18 45t44 19t43.5 -19t17.5 -45t-17.5 -44.5t-43.5 -18.5z" />
    <glyph glyph-name="Eogonek" unicode="&#x118;" horiz-adv-x="502" 
d="M65 720h399v-90h-297v-213h247v-90h-247v-237h297v-90h-27q-42 -23 -68.5 -48t-26.5 -57q0 -20 24.5 -38.5t81.5 -18.5v-65q-101 0 -145.5 31.5t-44.5 78.5q0 39 25.5 68t63.5 49h-282v720z" />
    <glyph glyph-name="eogonek" unicode="&#x119;" horiz-adv-x="540" 
d="M366 -227q-101 0 -145.5 31.5t-44.5 78.5q0 35 20.5 61.5t52.5 46.5q-52 5 -94 27.5t-71 58.5t-45 84t-16 104q0 58 18.5 107.5t51.5 86t79 57t102 20.5q61 0 106 -23t75 -59.5t44.5 -83t14.5 -94.5q0 -21 -3 -40h-387q8 -72 49 -118t109 -46q51 0 88.5 27.5t53.5 78.5
l83 -27q-19 -57 -58.5 -95.5t-93.5 -55.5q-42 -23 -68.5 -48t-26.5 -57q0 -20 24.5 -38.5t81.5 -18.5v-65zM273 453q-62 0 -101 -40.5t-48 -106.5h293q-2 30 -12.5 56.5t-29.5 46.5t-44.5 32t-57.5 12z" />
    <glyph glyph-name="Ecaron" unicode="&#x11a;" horiz-adv-x="502" 
d="M65 720h399v-90h-297v-213h247v-90h-247v-237h297v-90h-399v720zM125 929l146 -77l146 77l31 -53l-177 -114l-177 114z" />
    <glyph glyph-name="ecaron" unicode="&#x11b;" horiz-adv-x="540" 
d="M124 236q8 -72 49 -118t109 -46q51 0 88.5 27.5t53.5 78.5l83 -27q-25 -77 -86.5 -119.5t-142.5 -42.5q-59 0 -106 21t-80 57.5t-51 87t-18 110.5q0 58 18.5 107.5t51.5 86t79 57t102 20.5q61 0 106 -23t75 -59.5t44.5 -83t14.5 -94.5q0 -21 -3 -40h-387zM273 453
q-62 0 -101 -40.5t-48 -106.5h293q-2 30 -12.5 56.5t-29.5 46.5t-44.5 32t-57.5 12zM125 734l146 -77l146 77l31 -53l-177 -114l-177 114z" />
    <glyph glyph-name="Gcircumflex" unicode="&#x11c;" horiz-adv-x="769" 
d="M407 404h329q3 -14 4 -31.5t1 -31.5q0 -77 -24 -141t-68 -111t-105.5 -73t-136.5 -26q-81 0 -149 26.5t-116.5 75t-76 117t-27.5 151.5q0 81 27.5 149.5t77 117.5t117.5 76.5t149 27.5q76 0 140.5 -23t112.5 -72l-62 -71q-37 36 -86 56t-106 20q-59 0 -107.5 -20.5
t-84 -57.5t-55 -89t-19.5 -116q0 -63 20 -114.5t55 -88t84 -56t107 -19.5q51 0 93.5 16.5t73 47t48 74t18.5 96.5h-234v90zM219 815l177 114l177 -114l-31 -53l-146 77l-146 -77z" />
    <glyph glyph-name="gcircumflex" unicode="&#x11d;" horiz-adv-x="597" 
d="M125 -54q28 -36 63.5 -54.5t86.5 -18.5q36 0 67 9.5t53.5 33t35.5 62t13 96.5v20h-3q-30 -42 -70.5 -62.5t-96.5 -20.5q-54 0 -100 20t-79.5 55t-52.5 83t-19 105t19 105t52 83t78.5 54.5t99.5 19.5q51 0 96.5 -23t71.5 -68h3v80h99v-445q0 -80 -21.5 -135t-58.5 -89.5
t-86 -50t-104 -15.5q-81 0 -135.5 31t-81.5 74zM282 93q34 0 63.5 13.5t51.5 37.5t34 57.5t12 72.5t-12 72t-34 56.5t-51.5 37t-63.5 13.5t-63.5 -13.5t-51 -37t-33.5 -56.5t-12 -72t12 -72.5t33.5 -57.5t51 -37.5t63.5 -13.5zM123 620l177 114l177 -114l-31 -53l-146 77
l-146 -77z" />
    <glyph glyph-name="Gbreve" unicode="&#x11e;" horiz-adv-x="769" 
d="M407 404h329q3 -14 4 -31.5t1 -31.5q0 -77 -24 -141t-68 -111t-105.5 -73t-136.5 -26q-81 0 -149 26.5t-116.5 75t-76 117t-27.5 151.5q0 81 27.5 149.5t77 117.5t117.5 76.5t149 27.5q76 0 140.5 -23t112.5 -72l-62 -71q-37 36 -86 56t-106 20q-59 0 -107.5 -20.5
t-84 -57.5t-55 -89t-19.5 -116q0 -63 20 -114.5t55 -88t84 -56t107 -19.5q51 0 93.5 16.5t73 47t48 74t18.5 96.5h-234v90zM327 904q0 -42 20.5 -60.5t47.5 -18.5t47 18.5t20 60.5h68q0 -66 -36 -104t-99 -38t-99.5 39.5t-36.5 102.5h68z" />
    <glyph glyph-name="gbreve" unicode="&#x11f;" horiz-adv-x="597" 
d="M125 -54q28 -36 63.5 -54.5t86.5 -18.5q36 0 67 9.5t53.5 33t35.5 62t13 96.5v20h-3q-30 -42 -70.5 -62.5t-96.5 -20.5q-54 0 -100 20t-79.5 55t-52.5 83t-19 105t19 105t52 83t78.5 54.5t99.5 19.5q51 0 96.5 -23t71.5 -68h3v80h99v-445q0 -80 -21.5 -135t-58.5 -89.5
t-86 -50t-104 -15.5q-81 0 -135.5 31t-81.5 74zM282 93q34 0 63.5 13.5t51.5 37.5t34 57.5t12 72.5t-12 72t-34 56.5t-51.5 37t-63.5 13.5t-63.5 -13.5t-51 -37t-33.5 -56.5t-12 -72t12 -72.5t33.5 -57.5t51 -37.5t63.5 -13.5zM232 709q0 -42 20.5 -60.5t47.5 -18.5t47 18.5
t20 60.5h68q0 -66 -36 -104t-99 -38t-99.5 39.5t-36.5 102.5h68z" />
    <glyph glyph-name="Gdotaccent" unicode="&#x120;" horiz-adv-x="769" 
d="M407 404h329q3 -14 4 -31.5t1 -31.5q0 -77 -24 -141t-68 -111t-105.5 -73t-136.5 -26q-81 0 -149 26.5t-116.5 75t-76 117t-27.5 151.5q0 81 27.5 149.5t77 117.5t117.5 76.5t149 27.5q76 0 140.5 -23t112.5 -72l-62 -71q-37 36 -86 56t-106 20q-59 0 -107.5 -20.5
t-84 -57.5t-55 -89t-19.5 -116q0 -63 20 -114.5t55 -88t84 -56t107 -19.5q51 0 93.5 16.5t73 47t48 74t18.5 96.5h-234v90zM395 799q-26 0 -44 18.5t-18 44.5t18 45t44 19t43.5 -19t17.5 -45t-17.5 -44.5t-43.5 -18.5z" />
    <glyph glyph-name="gdotaccent" unicode="&#x121;" horiz-adv-x="597" 
d="M125 -54q28 -36 63.5 -54.5t86.5 -18.5q36 0 67 9.5t53.5 33t35.5 62t13 96.5v20h-3q-30 -42 -70.5 -62.5t-96.5 -20.5q-54 0 -100 20t-79.5 55t-52.5 83t-19 105t19 105t52 83t78.5 54.5t99.5 19.5q51 0 96.5 -23t71.5 -68h3v80h99v-445q0 -80 -21.5 -135t-58.5 -89.5
t-86 -50t-104 -15.5q-81 0 -135.5 31t-81.5 74zM282 93q34 0 63.5 13.5t51.5 37.5t34 57.5t12 72.5t-12 72t-34 56.5t-51.5 37t-63.5 13.5t-63.5 -13.5t-51 -37t-33.5 -56.5t-12 -72t12 -72.5t33.5 -57.5t51 -37.5t63.5 -13.5zM300 604q-26 0 -44 18.5t-18 44.5t18 45t44 19
t43.5 -19t17.5 -45t-17.5 -44.5t-43.5 -18.5z" />
    <glyph glyph-name="Gcommaaccent" unicode="&#x122;" horiz-adv-x="769" 
d="M407 404h329q3 -14 4 -31.5t1 -31.5q0 -77 -24 -141t-68 -111t-105.5 -73t-136.5 -26q-81 0 -149 26.5t-116.5 75t-76 117t-27.5 151.5q0 81 27.5 149.5t77 117.5t117.5 76.5t149 27.5q76 0 140.5 -23t112.5 -72l-62 -71q-37 36 -86 56t-106 20q-59 0 -107.5 -20.5
t-84 -57.5t-55 -89t-19.5 -116q0 -63 20 -114.5t55 -88t84 -56t107 -19.5q51 0 93.5 16.5t73 47t48 74t18.5 96.5h-234v90zM346 -59h92l-53 -160h-69z" />
    <glyph glyph-name="gcommaaccent" unicode="&#x123;" horiz-adv-x="597" 
d="M125 -54q28 -36 63.5 -54.5t86.5 -18.5q36 0 67 9.5t53.5 33t35.5 62t13 96.5v20h-3q-30 -42 -70.5 -62.5t-96.5 -20.5q-54 0 -100 20t-79.5 55t-52.5 83t-19 105t19 105t52 83t78.5 54.5t99.5 19.5q51 0 96.5 -23t71.5 -68h3v80h99v-445q0 -80 -21.5 -135t-58.5 -89.5
t-86 -50t-104 -15.5q-81 0 -135.5 31t-81.5 74zM282 93q34 0 63.5 13.5t51.5 37.5t34 57.5t12 72.5t-12 72t-34 56.5t-51.5 37t-63.5 13.5t-63.5 -13.5t-51 -37t-33.5 -56.5t-12 -72t12 -72.5t33.5 -57.5t51 -37.5t63.5 -13.5zM301 720h69l-30 -160h-92z" />
    <glyph glyph-name="Hcircumflex" unicode="&#x124;" horiz-adv-x="722" 
d="M65 720h102v-302h388v302h102v-720h-102v328h-388v-328h-102v720zM184 815l177 114l177 -114l-31 -53l-146 77l-146 -77z" />
    <glyph glyph-name="hcircumflex" unicode="&#x125;" horiz-adv-x="575" 
d="M55 720h99v-274h3q26 43 66 66.5t105 23.5q52 0 90 -17t63 -47.5t37 -72.5t12 -91v-308h-99v288q0 34 -7.5 64t-23.5 52.5t-41.5 35.5t-62.5 13q-71 0 -106.5 -46.5t-35.5 -129.5v-277h-99v720zM71 800l177 114l177 -114l-31 -53l-146 77l-146 -77z" />
    <glyph glyph-name="Hbar" unicode="&#x126;" horiz-adv-x="722" 
d="M65 720h102v-105h388v105h102v-720h-102v328h-388v-328h-102v720zM167 418h388v128h-388v-128z" />
    <glyph glyph-name="hbar" unicode="&#x127;" horiz-adv-x="575" 
d="M5 670h50v50h99v-50h104v-69h-104v-155h3q26 43 66 66.5t105 23.5q52 0 90 -17t63 -47.5t37 -72.5t12 -91v-308h-99v288q0 34 -7.5 64t-23.5 52.5t-41.5 35.5t-62.5 13q-71 0 -106.5 -46.5t-35.5 -129.5v-277h-99v601h-50v69z" />
    <glyph glyph-name="Itilde" unicode="&#x128;" horiz-adv-x="233" 
d="M65 720h102v-720h-102v720zM-68 829q21 31 48.5 54.5t65.5 23.5q21 0 40 -8.5t37 -18.5t35 -18.5t33 -8.5q20 0 36.5 14t30.5 33l42 -44q-22 -31 -50 -52.5t-66 -21.5q-21 0 -39 8.5t-35 18.5t-33 18.5t-32 8.5q-22 0 -38.5 -16t-31.5 -35z" />
    <glyph glyph-name="itilde" unicode="&#x129;" 
d="M55 525h99v-525h-99v525zM-79 634q21 31 48.5 54.5t65.5 23.5q21 0 40 -8.5t37 -18.5t35 -18.5t33 -8.5q20 0 36.5 14t30.5 33l42 -44q-22 -31 -50 -52.5t-66 -21.5q-21 0 -39 8.5t-35 18.5t-33 18.5t-32 8.5q-22 0 -38.5 -16t-31.5 -35z" />
    <glyph glyph-name="Imacron" unicode="&#x12a;" horiz-adv-x="233" 
d="M65 720h102v-720h-102v720zM-25 865h283v-69h-283v69z" />
    <glyph glyph-name="imacron" unicode="&#x12b;" 
d="M55 525h99v-525h-99v525zM-36 670h283v-69h-283v69z" />
    <glyph glyph-name="Ibreve" unicode="&#x12c;" horiz-adv-x="233" 
d="M65 720h102v-720h-102v720zM49 904q0 -42 20.5 -60.5t47.5 -18.5t47 18.5t20 60.5h68q0 -66 -36 -104t-99 -38t-99.5 39.5t-36.5 102.5h68z" />
    <glyph glyph-name="ibreve" unicode="&#x12d;" 
d="M55 525h99v-525h-99v525zM38 709q0 -42 20.5 -60.5t47.5 -18.5t47 18.5t20 60.5h68q0 -66 -36 -104t-99 -38t-99.5 39.5t-36.5 102.5h68z" />
    <glyph glyph-name="Iogonek" unicode="&#x12e;" horiz-adv-x="233" 
d="M153 -227q-101 0 -145.5 31.5t-44.5 78.5q0 42 29 72t73 51v714h102v-720h-25q-42 -23 -68.5 -48t-26.5 -57q0 -20 24.5 -38.5t81.5 -18.5v-65z" />
    <glyph glyph-name="iogonek" unicode="&#x12f;" 
d="M141 -227q-101 0 -145.5 31.5t-44.5 78.5q0 42 29.5 72.5t74.5 51.5v518h99v-525h-24q-42 -23 -68.5 -48t-26.5 -57q0 -20 24.5 -38.5t81.5 -18.5v-65zM105 604q-26 0 -44 18.5t-18 44.5t18 45t44 19t43.5 -19t17.5 -45t-17.5 -44.5t-43.5 -18.5z" />
    <glyph glyph-name="Idotaccent" unicode="&#x130;" horiz-adv-x="233" 
d="M65 720h102v-720h-102v720zM117 799q-26 0 -44 18.5t-18 44.5t18 45t44 19t43.5 -19t17.5 -45t-17.5 -44.5t-43.5 -18.5z" />
    <glyph glyph-name="dotlessi" unicode="&#x131;" 
d="M55 525h99v-525h-99v525z" />
    <glyph glyph-name="IJ" unicode="&#x132;" horiz-adv-x="595" 
d="M65 720h102v-720h-102v720zM281 93q11 -5 25 -9.5t28 -4.5q42 0 67.5 26.5t25.5 68.5v546h102v-539q0 -42 -14 -77.5t-39 -61t-60.5 -39.5t-77.5 -14q-53 0 -96 23z" />
    <glyph glyph-name="ij" unicode="&#x133;" horiz-adv-x="419" 
d="M55 525h99v-525h-99v525zM105 604q-26 0 -44 18.5t-18 44.5t18 45t44 19t43.5 -19t17.5 -45t-17.5 -44.5t-43.5 -18.5zM314 604q-26 0 -44 18.5t-18 44.5t18 45t44 19t43.5 -19t17.5 -45t-17.5 -44.5t-43.5 -18.5zM151 -120q11 -3 22.5 -5.5t26.5 -2.5q30 0 47 19t17 64
v570h99v-577q0 -72 -40 -115t-115 -43q-47 0 -77 14z" />
    <glyph glyph-name="Jcircumflex" unicode="&#x134;" horiz-adv-x="362" 
d="M49 93q11 -5 25 -9.5t28 -4.5q42 0 67.5 26.5t25.5 68.5v546h102v-539q0 -42 -14 -77.5t-39 -61t-60.5 -39.5t-77.5 -14q-53 0 -96 23zM66 815l177 114l177 -114l-31 -53l-146 77l-146 -77z" />
    <glyph glyph-name="jcircumflex" unicode="&#x135;" 
d="M-58 -120q11 -3 22.5 -5.5t26.5 -2.5q30 0 47 19t17 64v570h99v-577q0 -72 -40 -115t-115 -43q-47 0 -77 14zM-71 620l177 114l177 -114l-31 -53l-146 77l-146 -77z" />
    <glyph glyph-name="Kcommaaccent" unicode="&#x136;" horiz-adv-x="604" 
d="M65 720h102v-333l279 333h125l-303 -355l331 -365h-136l-296 331v-331h-102v720zM264 -59h92l-53 -160h-69z" />
    <glyph glyph-name="kcommaaccent" unicode="&#x137;" horiz-adv-x="500" 
d="M154 235v-235h-99v720h99v-413l189 218h120l-227 -250l254 -275h-128zM212 -59h92l-53 -160h-69z" />
    <glyph glyph-name="Lacute" unicode="&#x139;" horiz-adv-x="464" 
d="M65 720h102v-634h287v-86h-389v720zM72 815l197 114l42 -68l-208 -99z" />
    <glyph glyph-name="lacute" unicode="&#x13a;" 
d="M55 720h99v-720h-99v720zM-5 800l197 114l42 -68l-208 -99z" />
    <glyph glyph-name="Lcommaaccent" unicode="&#x13b;" horiz-adv-x="464" 
d="M65 720h102v-634h287v-86h-389v720zM213 -59h92l-53 -160h-69z" />
    <glyph glyph-name="lcommaaccent" unicode="&#x13c;" 
d="M55 720h99v-720h-99v720zM61 -59h92l-53 -160h-69z" />
    <glyph glyph-name="Lcaron" unicode="&#x13d;" horiz-adv-x="464" 
d="M65 720h102v-634h287v-86h-389v720zM280 720h92l-53 -160h-69z" />
    <glyph glyph-name="lcaron" unicode="&#x13e;" horiz-adv-x="295" 
d="M55 720h99v-720h-99v720zM223 720h92l-53 -160h-69z" />
    <glyph glyph-name="Ldot" unicode="&#x13f;" horiz-adv-x="464" 
d="M65 720h102v-634h287v-86h-389v720zM332 294q-26 0 -44 18.5t-18 44.5t18 45t44 19t43.5 -19t17.5 -45t-17.5 -44.5t-43.5 -18.5z" />
    <glyph glyph-name="ldot" unicode="&#x140;" horiz-adv-x="286" 
d="M55 720h99v-720h-99v720zM250 294q-26 0 -44 18.5t-18 44.5t18 45t44 19t43.5 -19t17.5 -45t-17.5 -44.5t-43.5 -18.5z" />
    <glyph glyph-name="Lslash" unicode="&#x141;" horiz-adv-x="464" 
d="M2 316l63 38v366h102v-305l145 88v-87l-145 -88v-242h287v-86h-389v267l-63 -38v87z" />
    <glyph glyph-name="lslash" unicode="&#x142;" 
d="M-6 353l61 37v330h99v-271l69 42v-86l-69 -42v-363h-99v303l-61 -37v87z" />
    <glyph glyph-name="Nacute" unicode="&#x143;" horiz-adv-x="751" 
d="M65 730l521 -516v506h99v-730l-521 511v-501h-99v730zM265 815l197 114l42 -68l-208 -99z" />
    <glyph glyph-name="nacute" unicode="&#x144;" horiz-adv-x="575" 
d="M55 525h97v-79h3q26 42 67 66t105 24q52 0 90.5 -17t63.5 -47.5t37 -72.5t12 -91v-308h-99v288q0 34 -7.5 64t-23.5 52.5t-41.5 35.5t-62.5 13q-71 0 -106.5 -46.5t-35.5 -129.5v-277h-99v525zM179 620l197 114l42 -68l-208 -99z" />
    <glyph glyph-name="Ncommaaccent" unicode="&#x145;" horiz-adv-x="751" 
d="M65 730l521 -516v506h99v-730l-521 511v-501h-99v730zM336 -59h92l-53 -160h-69z" />
    <glyph glyph-name="ncommaaccent" unicode="&#x146;" horiz-adv-x="575" 
d="M55 525h97v-79h3q26 42 67 66t105 24q52 0 90.5 -17t63.5 -47.5t37 -72.5t12 -91v-308h-99v288q0 34 -7.5 64t-23.5 52.5t-41.5 35.5t-62.5 13q-71 0 -106.5 -46.5t-35.5 -129.5v-277h-99v525zM250 -59h92l-53 -160h-69z" />
    <glyph glyph-name="Ncaron" unicode="&#x147;" horiz-adv-x="751" 
d="M65 730l521 -516v506h99v-730l-521 511v-501h-99v730zM229 929l146 -77l146 77l31 -53l-177 -114l-177 114z" />
    <glyph glyph-name="ncaron" unicode="&#x148;" horiz-adv-x="575" 
d="M55 525h97v-79h3q26 42 67 66t105 24q52 0 90.5 -17t63.5 -47.5t37 -72.5t12 -91v-308h-99v288q0 34 -7.5 64t-23.5 52.5t-41.5 35.5t-62.5 13q-71 0 -106.5 -46.5t-35.5 -129.5v-277h-99v525zM143 734l146 -77l146 77l31 -53l-177 -114l-177 114z" />
    <glyph glyph-name="Omacron" unicode="&#x14c;" horiz-adv-x="800" 
d="M28 360q0 81 27.5 149.5t77 117.5t118 76.5t149.5 27.5t149 -27.5t117.5 -76.5t77.5 -117.5t28 -149.5q0 -82 -27.5 -150t-77 -117t-118 -76.5t-149.5 -27.5t-149.5 27.5t-118 76.5t-77 117t-27.5 150zM398 79q59 0 108.5 20t85.5 56.5t56 88t20 114.5q0 64 -20 116
t-56 89t-85.5 57.5t-108.5 20.5q-58 0 -107 -20.5t-84 -57.5t-55 -89t-20 -116q0 -63 20 -114.5t55 -88t84 -56.5t107 -20zM258 865h283v-69h-283v69z" />
    <glyph glyph-name="omacron" unicode="&#x14d;" horiz-adv-x="585" 
d="M292 -11q-58 0 -107.5 20.5t-85.5 57.5t-56 87t-20 109q0 58 20 108t56 87t85.5 57.5t107.5 20.5t107.5 -20.5t85.5 -57.5t56.5 -87t20.5 -108q0 -59 -20.5 -109t-56.5 -87t-85.5 -57.5t-107.5 -20.5zM292 72q37 0 68 14t54 39.5t36 60.5t13 77t-13 76.5t-36 60t-54 39.5
t-68 14q-36 0 -67.5 -14t-54 -39.5t-35.5 -60t-13 -76.5t13 -77t35.5 -60.5t54 -39.5t67.5 -14zM151 670h283v-69h-283v69z" />
    <glyph glyph-name="Obreve" unicode="&#x14e;" horiz-adv-x="800" 
d="M28 360q0 81 27.5 149.5t77 117.5t118 76.5t149.5 27.5t149 -27.5t117.5 -76.5t77.5 -117.5t28 -149.5q0 -82 -27.5 -150t-77 -117t-118 -76.5t-149.5 -27.5t-149.5 27.5t-118 76.5t-77 117t-27.5 150zM398 79q59 0 108.5 20t85.5 56.5t56 88t20 114.5q0 64 -20 116
t-56 89t-85.5 57.5t-108.5 20.5q-58 0 -107 -20.5t-84 -57.5t-55 -89t-20 -116q0 -63 20 -114.5t55 -88t84 -56.5t107 -20zM332 904q0 -42 20.5 -60.5t47.5 -18.5t47 18.5t20 60.5h68q0 -66 -36 -104t-99 -38t-99.5 39.5t-36.5 102.5h68z" />
    <glyph glyph-name="obreve" unicode="&#x14f;" horiz-adv-x="585" 
d="M292 -11q-58 0 -107.5 20.5t-85.5 57.5t-56 87t-20 109q0 58 20 108t56 87t85.5 57.5t107.5 20.5t107.5 -20.5t85.5 -57.5t56.5 -87t20.5 -108q0 -59 -20.5 -109t-56.5 -87t-85.5 -57.5t-107.5 -20.5zM292 72q37 0 68 14t54 39.5t36 60.5t13 77t-13 76.5t-36 60t-54 39.5
t-68 14q-36 0 -67.5 -14t-54 -39.5t-35.5 -60t-13 -76.5t13 -77t35.5 -60.5t54 -39.5t67.5 -14zM225 709q0 -42 20.5 -60.5t47.5 -18.5t47 18.5t20 60.5h68q0 -66 -36 -104t-99 -38t-99.5 39.5t-36.5 102.5h68z" />
    <glyph glyph-name="Ohungarumlaut" unicode="&#x150;" horiz-adv-x="800" 
d="M28 360q0 81 27.5 149.5t77 117.5t118 76.5t149.5 27.5t149 -27.5t117.5 -76.5t77.5 -117.5t28 -149.5q0 -82 -27.5 -150t-77 -117t-118 -76.5t-149.5 -27.5t-149.5 27.5t-118 76.5t-77 117t-27.5 150zM398 79q59 0 108.5 20t85.5 56.5t56 88t20 114.5q0 64 -20 116
t-56 89t-85.5 57.5t-108.5 20.5q-58 0 -107 -20.5t-84 -57.5t-55 -89t-20 -116q0 -63 20 -114.5t55 -88t84 -56.5t107 -20zM425 808l127 121l50 -61l-138 -106zM255 808l127 121l50 -61l-138 -106z" />
    <glyph glyph-name="ohungarumlaut" unicode="&#x151;" horiz-adv-x="585" 
d="M292 -11q-58 0 -107.5 20.5t-85.5 57.5t-56 87t-20 109q0 58 20 108t56 87t85.5 57.5t107.5 20.5t107.5 -20.5t85.5 -57.5t56.5 -87t20.5 -108q0 -59 -20.5 -109t-56.5 -87t-85.5 -57.5t-107.5 -20.5zM292 72q37 0 68 14t54 39.5t36 60.5t13 77t-13 76.5t-36 60t-54 39.5
t-68 14q-36 0 -67.5 -14t-54 -39.5t-35.5 -60t-13 -76.5t13 -77t35.5 -60.5t54 -39.5t67.5 -14zM318 613l127 121l50 -61l-138 -106zM148 613l127 121l50 -61l-138 -106z" />
    <glyph glyph-name="OE" unicode="&#x152;" horiz-adv-x="1107" 
d="M670 95q-50 -51 -118.5 -78.5t-151.5 -27.5q-81 0 -149.5 27.5t-118 76.5t-77 117t-27.5 150q0 81 27.5 149.5t77 117.5t118 76.5t149.5 27.5q82 0 151 -28t119 -79v96h399v-90h-297v-213h247v-90h-247v-237h297v-90h-399v95zM398 79q59 0 108.5 20t85.5 56.5t56 88
t20 114.5q0 64 -20 116t-56 89t-85.5 57.5t-108.5 20.5q-58 0 -107 -20.5t-84 -57.5t-55 -89t-20 -116q0 -63 20 -114.5t55 -88t84 -56.5t107 -20z" />
    <glyph glyph-name="oe" unicode="&#x153;" horiz-adv-x="980" 
d="M292 -11q-58 0 -107.5 20.5t-85.5 57.5t-56 87t-20 109q0 58 20 108t56 87t85.5 57.5t107.5 20.5q73 0 128.5 -31.5t89.5 -85.5q30 54 82 85.5t122 31.5q61 0 106 -23t75 -59.5t44.5 -83t14.5 -94.5q0 -21 -3 -40h-387q8 -72 49 -118t109 -46q51 0 88.5 27.5t53.5 78.5
l83 -27q-25 -77 -86.5 -119.5t-142.5 -42.5q-73 0 -125.5 31.5t-82.5 85.5q-33 -54 -89 -85.5t-129 -31.5zM292 72q37 0 68 14t54 39.5t36 60.5t13 77t-13 76.5t-36 60t-54 39.5t-68 14q-36 0 -67.5 -14t-54 -39.5t-35.5 -60t-13 -76.5t13 -77t35.5 -60.5t54 -39.5t67.5 -14
zM713 453q-62 0 -101 -40.5t-48 -106.5h293q-2 30 -12.5 56.5t-29.5 46.5t-44.5 32t-57.5 12z" />
    <glyph glyph-name="Racute" unicode="&#x154;" horiz-adv-x="571" 
d="M65 720h188q61 0 111 -14t86 -41t55.5 -68t19.5 -95q0 -87 -45.5 -140t-119.5 -75l211 -287h-119l-197 271h-16h-72v-271h-102v720zM167 638v-285h78q84 0 131 37t47 109q0 69 -47 104t-128 35h-81zM176 815l197 114l42 -68l-208 -99z" />
    <glyph glyph-name="racute" unicode="&#x155;" horiz-adv-x="348" 
d="M55 525h97v-81h3q26 44 67 68t106 24v-93q-91 0 -132.5 -44.5t-41.5 -135.5v-263h-99v525zM60 620l197 114l42 -68l-208 -99z" />
    <glyph glyph-name="Rcommaaccent" unicode="&#x156;" horiz-adv-x="571" 
d="M65 720h188q61 0 111 -14t86 -41t55.5 -68t19.5 -95q0 -87 -45.5 -140t-119.5 -75l211 -287h-119l-197 271h-16h-72v-271h-102v720zM167 638v-285h78q84 0 131 37t47 109q0 69 -47 104t-128 35h-81zM247 -59h92l-53 -160h-69z" />
    <glyph glyph-name="rcommaaccent" unicode="&#x157;" horiz-adv-x="348" 
d="M55 525h97v-81h3q26 44 67 68t106 24v-93q-91 0 -132.5 -44.5t-41.5 -135.5v-263h-99v525zM60 -59h92l-53 -160h-69z" />
    <glyph glyph-name="Rcaron" unicode="&#x158;" horiz-adv-x="571" 
d="M65 720h188q61 0 111 -14t86 -41t55.5 -68t19.5 -95q0 -87 -45.5 -140t-119.5 -75l211 -287h-119l-197 271h-16h-72v-271h-102v720zM167 638v-285h78q84 0 131 37t47 109q0 69 -47 104t-128 35h-81zM140 929l146 -77l146 77l31 -53l-177 -114l-177 114z" />
    <glyph glyph-name="rcaron" unicode="&#x159;" horiz-adv-x="348" 
d="M55 525h97v-81h3q26 44 67 68t106 24v-93q-91 0 -132.5 -44.5t-41.5 -135.5v-263h-99v525zM24 734l146 -77l146 77l31 -53l-177 -114l-177 114z" />
    <glyph glyph-name="Sacute" unicode="&#x15a;" horiz-adv-x="561" 
d="M101 178q27 -39 69 -69t105 -30q72 -1 110.5 29t38.5 86q0 31 -10.5 52.5t-30 37.5t-48.5 27t-65 22q-47 14 -86.5 32t-67.5 42.5t-43.5 58.5t-15.5 79q0 34 14.5 67.5t42 60t68.5 42.5t95 16q45 0 81 -10t64.5 -26.5t50 -39.5t37.5 -48l-72 -55q-36 47 -71.5 68
t-85.5 21q-33 0 -56 -8t-37.5 -21.5t-21 -32t-6.5 -39.5q0 -44 31.5 -71t107.5 -50q48 -15 90 -33t72.5 -43.5t48 -60.5t17.5 -83q0 -38 -14 -75.5t-43.5 -67.5t-75.5 -48.5t-111 -18.5q-98 0 -158.5 36.5t-96.5 94.5zM171 815l197 114l42 -68l-208 -99z" />
    <glyph glyph-name="sacute" unicode="&#x15b;" horiz-adv-x="428" 
d="M105 148q14 -37 40 -56.5t75 -19.5q36 1 59.5 17.5t23.5 47.5q0 18 -5.5 32t-18 25.5t-33.5 22.5t-51 23q-31 12 -58 25.5t-46.5 31.5t-30.5 41.5t-11 56.5q0 28 11.5 54t33 45t51.5 30.5t68 11.5q75 0 120 -33t56 -93l-78 -27q-18 70 -96 70q-35 0 -53.5 -17t-18.5 -40
q0 -31 23 -47.5t74 -38.5q33 -14 61.5 -28.5t49.5 -34t33 -45t12 -61.5q0 -26 -11 -53t-33 -49t-55.5 -36t-78.5 -14q-74 0 -125.5 34t-66.5 94zM105 620l197 114l42 -68l-208 -99z" />
    <glyph glyph-name="Scircumflex" unicode="&#x15c;" horiz-adv-x="561" 
d="M101 178q27 -39 69 -69t105 -30q72 -1 110.5 29t38.5 86q0 31 -10.5 52.5t-30 37.5t-48.5 27t-65 22q-47 14 -86.5 32t-67.5 42.5t-43.5 58.5t-15.5 79q0 34 14.5 67.5t42 60t68.5 42.5t95 16q45 0 81 -10t64.5 -26.5t50 -39.5t37.5 -48l-72 -55q-36 47 -71.5 68
t-85.5 21q-33 0 -56 -8t-37.5 -21.5t-21 -32t-6.5 -39.5q0 -44 31.5 -71t107.5 -50q48 -15 90 -33t72.5 -43.5t48 -60.5t17.5 -83q0 -38 -14 -75.5t-43.5 -67.5t-75.5 -48.5t-111 -18.5q-98 0 -158.5 36.5t-96.5 94.5zM104 815l177 114l177 -114l-31 -53l-146 77l-146 -77z
" />
    <glyph glyph-name="scircumflex" unicode="&#x15d;" horiz-adv-x="428" 
d="M105 148q14 -37 40 -56.5t75 -19.5q36 1 59.5 17.5t23.5 47.5q0 18 -5.5 32t-18 25.5t-33.5 22.5t-51 23q-31 12 -58 25.5t-46.5 31.5t-30.5 41.5t-11 56.5q0 28 11.5 54t33 45t51.5 30.5t68 11.5q75 0 120 -33t56 -93l-78 -27q-18 70 -96 70q-35 0 -53.5 -17t-18.5 -40
q0 -31 23 -47.5t74 -38.5q33 -14 61.5 -28.5t49.5 -34t33 -45t12 -61.5q0 -26 -11 -53t-33 -49t-55.5 -36t-78.5 -14q-74 0 -125.5 34t-66.5 94zM38 620l177 114l177 -114l-31 -53l-146 77l-146 -77z" />
    <glyph glyph-name="Scedilla" unicode="&#x15e;" horiz-adv-x="561" 
d="M245 -9q-81 7 -133 41.5t-84 87.5l73 58q27 -39 69 -69t105 -30q72 -1 110.5 29t38.5 86q0 31 -10.5 52.5t-30 37.5t-48.5 27t-65 22q-47 14 -86.5 32t-67.5 42.5t-43.5 58.5t-15.5 79q0 34 14.5 67.5t42 60t68.5 42.5t95 16q45 0 81 -10t64.5 -26.5t50 -39.5t37.5 -48
l-72 -55q-36 47 -71.5 68t-85.5 21q-33 0 -56 -8t-37.5 -21.5t-21 -32t-6.5 -39.5q0 -44 31.5 -71t107.5 -50q48 -15 90 -33t72.5 -43.5t48 -60.5t17.5 -83q0 -35 -11.5 -70t-36 -63.5t-63 -48t-91.5 -25.5l-67 -142h-74z" />
    <glyph glyph-name="scedilla" unicode="&#x15f;" horiz-adv-x="428" 
d="M173 -7q-57 9 -95.5 41t-51.5 83l79 31q14 -37 40 -56.5t75 -19.5q36 1 59.5 17.5t23.5 47.5q0 18 -5.5 32t-18 25.5t-33.5 22.5t-51 23q-31 12 -58 25.5t-46.5 31.5t-30.5 41.5t-11 56.5q0 28 11.5 54t33 45t51.5 30.5t68 11.5q75 0 120 -33t56 -93l-78 -27
q-18 70 -96 70q-35 0 -53.5 -17t-18.5 -40q0 -31 23 -47.5t74 -38.5q33 -14 61.5 -28.5t49.5 -34t33 -45t12 -61.5q0 -24 -8.5 -48t-26.5 -45t-45 -36t-64 -20l-67 -142h-74z" />
    <glyph glyph-name="Scaron" unicode="&#x160;" horiz-adv-x="561" 
d="M101 178q27 -39 69 -69t105 -30q72 -1 110.5 29t38.5 86q0 31 -10.5 52.5t-30 37.5t-48.5 27t-65 22q-47 14 -86.5 32t-67.5 42.5t-43.5 58.5t-15.5 79q0 34 14.5 67.5t42 60t68.5 42.5t95 16q45 0 81 -10t64.5 -26.5t50 -39.5t37.5 -48l-72 -55q-36 47 -71.5 68
t-85.5 21q-33 0 -56 -8t-37.5 -21.5t-21 -32t-6.5 -39.5q0 -44 31.5 -71t107.5 -50q48 -15 90 -33t72.5 -43.5t48 -60.5t17.5 -83q0 -38 -14 -75.5t-43.5 -67.5t-75.5 -48.5t-111 -18.5q-98 0 -158.5 36.5t-96.5 94.5zM135 929l146 -77l146 77l31 -53l-177 -114l-177 114z
" />
    <glyph glyph-name="scaron" unicode="&#x161;" horiz-adv-x="428" 
d="M105 148q14 -37 40 -56.5t75 -19.5q36 1 59.5 17.5t23.5 47.5q0 18 -5.5 32t-18 25.5t-33.5 22.5t-51 23q-31 12 -58 25.5t-46.5 31.5t-30.5 41.5t-11 56.5q0 28 11.5 54t33 45t51.5 30.5t68 11.5q75 0 120 -33t56 -93l-78 -27q-18 70 -96 70q-35 0 -53.5 -17t-18.5 -40
q0 -31 23 -47.5t74 -38.5q33 -14 61.5 -28.5t49.5 -34t33 -45t12 -61.5q0 -26 -11 -53t-33 -49t-55.5 -36t-78.5 -14q-74 0 -125.5 34t-66.5 94zM69 734l146 -77l146 77l31 -53l-177 -114l-177 114z" />
    <glyph glyph-name="uni0162" unicode="&#x162;" horiz-adv-x="529" 
d="M5 720h519v-88h-208v-632h-102v632h-209v88zM221 -59h92l-53 -160h-69z" />
    <glyph glyph-name="uni0163" unicode="&#x163;" horiz-adv-x="330" 
d="M20 525h85v147h99v-147h116v-78h-116v-447h-99v447h-85v78zM111 -59h92l-53 -160h-69z" />
    <glyph glyph-name="Tcaron" unicode="&#x164;" horiz-adv-x="529" 
d="M5 720h519v-88h-208v-632h-102v632h-209v88zM119 929l146 -77l146 77l31 -53l-177 -114l-177 114z" />
    <glyph glyph-name="tcaron" unicode="&#x165;" horiz-adv-x="330" 
d="M20 525h85v147h99v-147h116v-78h-116v-447h-99v447h-85v78zM268 720h92l-53 -160h-69z" />
    <glyph glyph-name="Tbar" unicode="&#x166;" horiz-adv-x="529" 
d="M5 720h519v-88h-208v-237h90v-69h-90v-326h-102v326h-91v69h91v237h-209v88z" />
    <glyph glyph-name="tbar" unicode="&#x167;" horiz-adv-x="330" 
d="M20 525h85v147h99v-147h116v-78h-116v-127h90v-69h-90v-251h-99v251h-70v69h70v127h-85v78z" />
    <glyph glyph-name="Utilde" unicode="&#x168;" horiz-adv-x="682" 
d="M60 720h102v-400q0 -119 43.5 -181t134.5 -62q92 0 136 62t44 182v399h102v-399q0 -162 -71 -247t-211 -85q-144 0 -212 83.5t-68 248.5v399zM156 829q21 31 48.5 54.5t65.5 23.5q21 0 40 -8.5t37 -18.5t35 -18.5t33 -8.5q20 0 36.5 14t30.5 33l42 -44q-22 -31 -50 -52.5
t-66 -21.5q-21 0 -39 8.5t-35 18.5t-33 18.5t-32 8.5q-22 0 -38.5 -16t-31.5 -35z" />
    <glyph glyph-name="utilde" unicode="&#x169;" horiz-adv-x="550" 
d="M45 525h99v-288q0 -34 8 -64t24 -52.5t40.5 -35.5t58.5 -13t58.5 13t40.5 35.5t24 52.5t8 64v288h99v-301q0 -53 -17 -96t-48 -74t-73 -48t-93 -17q-50 0 -92 16.5t-72.5 47.5t-47.5 73.5t-17 95.5v303zM91 634q21 31 48.5 54.5t65.5 23.5q21 0 40 -8.5t37 -18.5
t35 -18.5t33 -8.5q20 0 36.5 14t30.5 33l42 -44q-22 -31 -50 -52.5t-66 -21.5q-21 0 -39 8.5t-35 18.5t-33 18.5t-32 8.5q-22 0 -38.5 -16t-31.5 -35z" />
    <glyph glyph-name="Umacron" unicode="&#x16a;" horiz-adv-x="682" 
d="M60 720h102v-400q0 -119 43.5 -181t134.5 -62q92 0 136 62t44 182v399h102v-399q0 -162 -71 -247t-211 -85q-144 0 -212 83.5t-68 248.5v399zM199 865h283v-69h-283v69z" />
    <glyph glyph-name="umacron" unicode="&#x16b;" horiz-adv-x="550" 
d="M45 525h99v-288q0 -34 8 -64t24 -52.5t40.5 -35.5t58.5 -13t58.5 13t40.5 35.5t24 52.5t8 64v288h99v-301q0 -53 -17 -96t-48 -74t-73 -48t-93 -17q-50 0 -92 16.5t-72.5 47.5t-47.5 73.5t-17 95.5v303zM134 670h283v-69h-283v69z" />
    <glyph glyph-name="Ubreve" unicode="&#x16c;" horiz-adv-x="682" 
d="M60 720h102v-400q0 -119 43.5 -181t134.5 -62q92 0 136 62t44 182v399h102v-399q0 -162 -71 -247t-211 -85q-144 0 -212 83.5t-68 248.5v399zM273 904q0 -42 20.5 -60.5t47.5 -18.5t47 18.5t20 60.5h68q0 -66 -36 -104t-99 -38t-99.5 39.5t-36.5 102.5h68z" />
    <glyph glyph-name="ubreve" unicode="&#x16d;" horiz-adv-x="550" 
d="M45 525h99v-288q0 -34 8 -64t24 -52.5t40.5 -35.5t58.5 -13t58.5 13t40.5 35.5t24 52.5t8 64v288h99v-301q0 -53 -17 -96t-48 -74t-73 -48t-93 -17q-50 0 -92 16.5t-72.5 47.5t-47.5 73.5t-17 95.5v303zM208 709q0 -42 20.5 -60.5t47.5 -18.5t47 18.5t20 60.5h68
q0 -66 -36 -104t-99 -38t-99.5 39.5t-36.5 102.5h68z" />
    <glyph glyph-name="Uring" unicode="&#x16e;" horiz-adv-x="682" 
d="M60 720h102v-400q0 -119 43.5 -181t134.5 -62q92 0 136 62t44 182v399h102v-399q0 -162 -71 -247t-211 -85q-144 0 -212 83.5t-68 248.5v399zM340 814q23 0 39 16.5t16 40.5q0 25 -16 41.5t-39 16.5t-39 -16.5t-16 -41.5q0 -24 16 -40.5t39 -16.5zM230 871q0 22 8.5 42
t23.5 35t35 24t43 9t43 -9t35 -24t23.5 -35t8.5 -42q0 -23 -8.5 -43t-23.5 -34.5t-35 -23t-43 -8.5t-43 8.5t-35 23t-23.5 34.5t-8.5 43z" />
    <glyph glyph-name="uring" unicode="&#x16f;" horiz-adv-x="550" 
d="M45 525h99v-288q0 -34 8 -64t24 -52.5t40.5 -35.5t58.5 -13t58.5 13t40.5 35.5t24 52.5t8 64v288h99v-301q0 -53 -17 -96t-48 -74t-73 -48t-93 -17q-50 0 -92 16.5t-72.5 47.5t-47.5 73.5t-17 95.5v303zM275 619q23 0 39 16.5t16 40.5q0 25 -16 41.5t-39 16.5t-39 -16.5
t-16 -41.5q0 -24 16 -40.5t39 -16.5zM165 676q0 22 8.5 42t23.5 35t35 24t43 9t43 -9t35 -24t23.5 -35t8.5 -42q0 -23 -8.5 -43t-23.5 -34.5t-35 -23t-43 -8.5t-43 8.5t-35 23t-23.5 34.5t-8.5 43z" />
    <glyph glyph-name="Uhungarumlaut" unicode="&#x170;" horiz-adv-x="682" 
d="M60 720h102v-400q0 -119 43.5 -181t134.5 -62q92 0 136 62t44 182v399h102v-399q0 -162 -71 -247t-211 -85q-144 0 -212 83.5t-68 248.5v399zM366 808l127 121l50 -61l-138 -106zM196 808l127 121l50 -61l-138 -106z" />
    <glyph glyph-name="uhungarumlaut" unicode="&#x171;" horiz-adv-x="550" 
d="M45 525h99v-288q0 -34 8 -64t24 -52.5t40.5 -35.5t58.5 -13t58.5 13t40.5 35.5t24 52.5t8 64v288h99v-301q0 -53 -17 -96t-48 -74t-73 -48t-93 -17q-50 0 -92 16.5t-72.5 47.5t-47.5 73.5t-17 95.5v303zM301 613l127 121l50 -61l-138 -106zM131 613l127 121l50 -61
l-138 -106z" />
    <glyph glyph-name="Uogonek" unicode="&#x172;" horiz-adv-x="682" 
d="M418 -227q-101 0 -145.5 31.5t-44.5 78.5q0 35 20.5 61.5t52.5 46.5q-124 11 -182.5 94t-58.5 236v399h102v-400q0 -119 43.5 -181t134.5 -62q92 0 136 62t44 182v399h102v-399q0 -146 -57.5 -229t-170.5 -99q-37 -22 -59.5 -45.5t-22.5 -52.5q0 -20 24.5 -38.5
t81.5 -18.5v-65z" />
    <glyph glyph-name="uogonek" unicode="&#x173;" horiz-adv-x="550" 
d="M359 -227q-101 0 -145.5 31.5t-44.5 78.5q0 35 20.5 61.5t52.5 46.5q-44 5 -80 23.5t-62 48.5t-40.5 70.5t-14.5 88.5v303h99v-288q0 -34 8 -64t24 -52.5t40.5 -35.5t58.5 -13t58.5 13t40.5 35.5t24 52.5t8 64v288h99v-301q0 -86 -43.5 -145t-115.5 -80
q-42 -23 -67.5 -48t-25.5 -56q0 -20 24.5 -38.5t81.5 -18.5v-65z" />
    <glyph glyph-name="Wcircumflex" unicode="&#x174;" horiz-adv-x="1114" 
d="M10 720h111l207 -500l235 510l232 -505l205 495h104l-307 -730l-240 519l-240 -519zM380 815l177 114l177 -114l-31 -53l-146 77l-146 -77z" />
    <glyph glyph-name="wcircumflex" unicode="&#x175;" horiz-adv-x="820" 
d="M15 525h106l116 -331l178 341l178 -341l118 331h94l-201 -535l-195 365l-193 -365zM233 620l177 114l177 -114l-31 -53l-146 77l-146 -77z" />
    <glyph glyph-name="Ycircumflex" unicode="&#x176;" horiz-adv-x="613" 
d="M256 259l-251 461h108l197 -376l197 376h101l-250 -461v-259h-102v259zM130 815l177 114l177 -114l-31 -53l-146 77l-146 -77z" />
    <glyph glyph-name="ycircumflex" unicode="&#x177;" horiz-adv-x="508" 
d="M225 57l-225 468h105l165 -355l138 355h100l-286 -725h-99zM78 620l177 114l177 -114l-31 -53l-146 77l-146 -77z" />
    <glyph glyph-name="Ydieresis" unicode="&#x178;" horiz-adv-x="613" 
d="M256 259l-251 461h108l197 -376l197 376h101l-250 -461v-259h-102v259zM392 802q-25 0 -42 18t-17 42q0 25 17 43t42 18q24 0 41 -18t17 -43q0 -24 -17 -42t-41 -18zM222 802q-25 0 -42 18t-17 42q0 25 17 43t42 18q24 0 41 -18t17 -43q0 -24 -17 -42t-41 -18z" />
    <glyph glyph-name="Zacute" unicode="&#x179;" horiz-adv-x="605" 
d="M433 634h-403v86h565l-419 -634h399v-86h-565zM193 815l197 114l42 -68l-208 -99z" />
    <glyph glyph-name="zacute" unicode="&#x17a;" horiz-adv-x="443" 
d="M290 447h-270v78h413l-279 -447h269v-78h-413zM112 620l197 114l42 -68l-208 -99z" />
    <glyph glyph-name="Zdotaccent" unicode="&#x17b;" horiz-adv-x="605" 
d="M433 634h-403v86h565l-419 -634h399v-86h-565zM303 799q-26 0 -44 18.5t-18 44.5t18 45t44 19t43.5 -19t17.5 -45t-17.5 -44.5t-43.5 -18.5z" />
    <glyph glyph-name="zdotaccent" unicode="&#x17c;" horiz-adv-x="443" 
d="M290 447h-270v78h413l-279 -447h269v-78h-413zM222 604q-26 0 -44 18.5t-18 44.5t18 45t44 19t43.5 -19t17.5 -45t-17.5 -44.5t-43.5 -18.5z" />
    <glyph glyph-name="Zcaron" unicode="&#x17d;" horiz-adv-x="605" 
d="M433 634h-403v86h565l-419 -634h399v-86h-565zM157 929l146 -77l146 77l31 -53l-177 -114l-177 114z" />
    <glyph glyph-name="zcaron" unicode="&#x17e;" horiz-adv-x="443" 
d="M290 447h-270v78h413l-279 -447h269v-78h-413zM76 734l146 -77l146 77l31 -53l-177 -114l-177 114z" />
    <glyph glyph-name="florin" unicode="&#x192;" horiz-adv-x="536" 
d="M160 454h91l16 93q16 91 68 137.5t130 46.5q23 0 36 -2t25 -6v-79q-11 3 -28 4.5t-30 1.5q-42 0 -67.5 -24t-35.5 -82l-16 -90h114v-68h-125l-70 -405q-16 -92 -65 -141.5t-134 -49.5q-21 0 -34 2t-25 6v80q11 -3 25 -5t33 -2q40 0 65 25t36 85l70 405h-79v68z" />
    <glyph glyph-name="uni0218" unicode="&#x218;" horiz-adv-x="561" 
d="M101 178q27 -39 69 -69t105 -30q72 -1 110.5 29t38.5 86q0 31 -10.5 52.5t-30 37.5t-48.5 27t-65 22q-47 14 -86.5 32t-67.5 42.5t-43.5 58.5t-15.5 79q0 34 14.5 67.5t42 60t68.5 42.5t95 16q45 0 81 -10t64.5 -26.5t50 -39.5t37.5 -48l-72 -55q-36 47 -71.5 68
t-85.5 21q-33 0 -56 -8t-37.5 -21.5t-21 -32t-6.5 -39.5q0 -44 31.5 -71t107.5 -50q48 -15 90 -33t72.5 -43.5t48 -60.5t17.5 -83q0 -38 -14 -75.5t-43.5 -67.5t-75.5 -48.5t-111 -18.5q-98 0 -158.5 36.5t-96.5 94.5zM242 -59h92l-53 -160h-69z" />
    <glyph glyph-name="uni0219" unicode="&#x219;" horiz-adv-x="428" 
d="M105 148q14 -37 40 -56.5t75 -19.5q36 1 59.5 17.5t23.5 47.5q0 18 -5.5 32t-18 25.5t-33.5 22.5t-51 23q-31 12 -58 25.5t-46.5 31.5t-30.5 41.5t-11 56.5q0 28 11.5 54t33 45t51.5 30.5t68 11.5q75 0 120 -33t56 -93l-78 -27q-18 70 -96 70q-35 0 -53.5 -17t-18.5 -40
q0 -31 23 -47.5t74 -38.5q33 -14 61.5 -28.5t49.5 -34t33 -45t12 -61.5q0 -26 -11 -53t-33 -49t-55.5 -36t-78.5 -14q-74 0 -125.5 34t-66.5 94zM176 -59h92l-53 -160h-69z" />
    <glyph glyph-name="uni021A" unicode="&#x21a;" horiz-adv-x="529" 
d="M5 720h519v-88h-208v-632h-102v632h-209v88zM221 -59h92l-53 -160h-69z" />
    <glyph glyph-name="uni021B" unicode="&#x21b;" horiz-adv-x="330" 
d="M20 525h85v147h99v-147h116v-78h-116v-447h-99v447h-85v78zM111 -59h92l-53 -160h-69z" />
    <glyph glyph-name="dotlessj" unicode="&#x237;" 
d="M-58 -120q11 -3 22.5 -5.5t26.5 -2.5q30 0 47 19t17 64v570h99v-577q0 -72 -40 -115t-115 -43q-47 0 -77 14z" />
    <glyph glyph-name="circumflex" unicode="&#x2c6;" horiz-adv-x="633" 
d="M140 620l177 114l177 -114l-31 -53l-146 77l-146 -77z" />
    <glyph glyph-name="caron" unicode="&#x2c7;" horiz-adv-x="633" 
d="M171 734l146 -77l146 77l31 -53l-177 -114l-177 114z" />
    <glyph glyph-name="breve" unicode="&#x2d8;" horiz-adv-x="633" 
d="M249 709q0 -42 20.5 -60.5t47.5 -18.5t47 18.5t20 60.5h68q0 -66 -36 -104t-99 -38t-99.5 39.5t-36.5 102.5h68z" />
    <glyph glyph-name="dotaccent" unicode="&#x2d9;" horiz-adv-x="633" 
d="M317 604q-26 0 -44 18.5t-18 44.5t18 45t44 19t43.5 -19t17.5 -45t-17.5 -44.5t-43.5 -18.5z" />
    <glyph glyph-name="ring" unicode="&#x2da;" horiz-adv-x="633" 
d="M316 619q23 0 39 16.5t16 40.5q0 25 -16 41.5t-39 16.5t-39 -16.5t-16 -41.5q0 -24 16 -40.5t39 -16.5zM206 676q0 22 8.5 42t23.5 35t35 24t43 9t43 -9t35 -24t23.5 -35t8.5 -42q0 -23 -8.5 -43t-23.5 -34.5t-35 -23t-43 -8.5t-43 8.5t-35 23t-23.5 34.5t-8.5 43z" />
    <glyph glyph-name="ogonek" unicode="&#x2db;" horiz-adv-x="633" 
d="M393 -227q-101 0 -145.5 31.5t-44.5 78.5q0 44 31.5 75t78.5 52h88q-50 -26 -82 -53t-32 -62q0 -20 24.5 -38.5t81.5 -18.5v-65z" />
    <glyph glyph-name="tilde" unicode="&#x2dc;" horiz-adv-x="633" 
d="M132 634q21 31 48.5 54.5t65.5 23.5q21 0 40 -8.5t37 -18.5t35 -18.5t33 -8.5q20 0 36.5 14t30.5 33l42 -44q-22 -31 -50 -52.5t-66 -21.5q-21 0 -39 8.5t-35 18.5t-33 18.5t-32 8.5q-22 0 -38.5 -16t-31.5 -35z" />
    <glyph glyph-name="hungarumlaut" unicode="&#x2dd;" horiz-adv-x="633" 
d="M342 613l127 121l50 -61l-138 -106zM172 613l127 121l50 -61l-138 -106z" />
    <glyph glyph-name="uni0394" unicode="&#x394;" horiz-adv-x="738" 
d="M328 720h82l308 -720h-698zM369 599l-220 -521h440z" />
    <glyph glyph-name="uni03A9" unicode="&#x3a9;" horiz-adv-x="814" 
d="M30 90h158q-30 13 -57.5 40.5t-48 64.5t-33 82t-12.5 93q0 79 27.5 145.5t77 114.5t118 74.5t149.5 26.5q78 0 145 -26.5t116.5 -74.5t78 -114.5t28.5 -145.5q0 -48 -13 -93t-34 -82t-48.5 -64.5t-55.5 -40.5h158v-90h-311v90q92 29 146 100.5t54 177.5q0 61 -20.5 111.5
t-56 86.5t-84 55.5t-105.5 19.5q-58 0 -107 -19.5t-84 -55.5t-55 -86.5t-20 -111.5q0 -106 52.5 -177.5t147.5 -100.5v-90h-311v90z" />
    <glyph glyph-name="pi" unicode="&#x3c0;" horiz-adv-x="614" 
d="M415 447h-216v-447h-99v447h-80v78h574v-78h-80v-447h-99v447z" />
    <glyph glyph-name="Wgrave" unicode="&#x1e80;" horiz-adv-x="1114" 
d="M10 720h111l207 -500l235 510l232 -505l205 495h104l-307 -730l-240 519l-240 -519zM469 929l197 -114l-31 -53l-208 99z" />
    <glyph glyph-name="wgrave" unicode="&#x1e81;" horiz-adv-x="820" 
d="M15 525h106l116 -331l178 341l178 -341l118 331h94l-201 -535l-195 365l-193 -365zM322 734l197 -114l-31 -53l-208 99z" />
    <glyph glyph-name="Wacute" unicode="&#x1e82;" horiz-adv-x="1114" 
d="M10 720h111l207 -500l235 510l232 -505l205 495h104l-307 -730l-240 519l-240 -519zM447 815l197 114l42 -68l-208 -99z" />
    <glyph glyph-name="wacute" unicode="&#x1e83;" horiz-adv-x="820" 
d="M15 525h106l116 -331l178 341l178 -341l118 331h94l-201 -535l-195 365l-193 -365zM300 620l197 114l42 -68l-208 -99z" />
    <glyph glyph-name="Wdieresis" unicode="&#x1e84;" horiz-adv-x="1114" 
d="M10 720h111l207 -500l235 510l232 -505l205 495h104l-307 -730l-240 519l-240 -519zM642 802q-25 0 -42 18t-17 42q0 25 17 43t42 18q24 0 41 -18t17 -43q0 -24 -17 -42t-41 -18zM472 802q-25 0 -42 18t-17 42q0 25 17 43t42 18q24 0 41 -18t17 -43q0 -24 -17 -42
t-41 -18z" />
    <glyph glyph-name="wdieresis" unicode="&#x1e85;" horiz-adv-x="820" 
d="M15 525h106l116 -331l178 341l178 -341l118 331h94l-201 -535l-195 365l-193 -365zM495 607q-25 0 -42 18t-17 42q0 25 17 43t42 18q24 0 41 -18t17 -43q0 -24 -17 -42t-41 -18zM325 607q-25 0 -42 18t-17 42q0 25 17 43t42 18q24 0 41 -18t17 -43q0 -24 -17 -42t-41 -18
z" />
    <glyph glyph-name="Ygrave" unicode="&#x1ef2;" horiz-adv-x="613" 
d="M256 259l-251 461h108l197 -376l197 376h101l-250 -461v-259h-102v259zM219 929l197 -114l-31 -53l-208 99z" />
    <glyph glyph-name="ygrave" unicode="&#x1ef3;" horiz-adv-x="508" 
d="M225 57l-225 468h105l165 -355l138 355h100l-286 -725h-99zM167 734l197 -114l-31 -53l-208 99z" />
    <glyph glyph-name="endash" unicode="&#x2013;" horiz-adv-x="500" 
d="M30 304h440v-83h-440v83z" />
    <glyph glyph-name="emdash" unicode="&#x2014;" horiz-adv-x="1000" 
d="M30 304h940v-83h-940v83z" />
    <glyph glyph-name="quoteleft" unicode="&#x2018;" horiz-adv-x="288" 
d="M140 720h70l-30 -241h-105z" />
    <glyph glyph-name="quoteright" unicode="&#x2019;" horiz-adv-x="288" 
d="M108 720h105l-65 -241h-70z" />
    <glyph glyph-name="quotesinglbase" unicode="&#x201a;" horiz-adv-x="288" 
d="M107 140h104l-65 -241h-69z" />
    <glyph glyph-name="quotedblleft" unicode="&#x201c;" horiz-adv-x="469" 
d="M321 720h69l-30 -241h-104zM140 720h70l-30 -241h-105z" />
    <glyph glyph-name="quotedblright" unicode="&#x201d;" horiz-adv-x="469" 
d="M289 720h105l-65 -241h-70zM108 720h105l-65 -241h-70z" />
    <glyph glyph-name="quotedblbase" unicode="&#x201e;" horiz-adv-x="469" 
d="M288 140h104l-65 -241h-69zM107 140h104l-65 -241h-69z" />
    <glyph glyph-name="dagger" unicode="&#x2020;" horiz-adv-x="485" 
d="M55 582h138v143h99v-143h137v-78h-137v-504h-99v504h-138v78z" />
    <glyph glyph-name="daggerdbl" unicode="&#x2021;" horiz-adv-x="485" 
d="M193 -87h-138v78h138v513h-138v78h138v143h99v-143h137v-78h-137v-513h137v-78h-137v-143h-99v143z" />
    <glyph glyph-name="bullet" unicode="&#x2022;" horiz-adv-x="355" 
d="M84 273q0 41 26.5 66.5t66.5 25.5q41 0 67.5 -25.5t26.5 -66.5q0 -40 -26.5 -65.5t-67.5 -25.5q-40 0 -66.5 25.5t-26.5 65.5z" />
    <glyph glyph-name="ellipsis" unicode="&#x2026;" horiz-adv-x="657" 
d="M509 -11q-26 0 -44 18.5t-18 44.5t18 45t44 19t43.5 -19t17.5 -45t-17.5 -44.5t-43.5 -18.5zM329 -11q-26 0 -44 18.5t-18 44.5t18 45t44 19t43.5 -19t17.5 -45t-17.5 -44.5t-43.5 -18.5zM149 -11q-26 0 -44 18.5t-18 44.5t18 45t44 19t43.5 -19t17.5 -45t-17.5 -44.5
t-43.5 -18.5z" />
    <glyph glyph-name="perthousand" unicode="&#x2030;" horiz-adv-x="1113" 
d="M912 -11q-77 0 -122.5 49t-45.5 137t45 136.5t123 48.5t123 -48.5t45 -136.5t-45 -137t-123 -49zM911 65q45 0 67 28.5t22 80.5q0 54 -22.5 82t-66.5 28q-42 0 -64.5 -28t-22.5 -82q0 -52 22.5 -80.5t64.5 -28.5zM542 -11q-77 0 -122.5 49t-45.5 137t45 136.5t123 48.5
t123 -48.5t45 -136.5t-45 -137t-123 -49zM541 65q45 0 67 28.5t22 80.5q0 54 -22.5 82t-66.5 28q-42 0 -64.5 -28t-22.5 -82q0 -52 22.5 -80.5t64.5 -28.5zM585 720h83l-510 -720h-83zM201 360q-77 0 -122.5 48.5t-45.5 136.5t45 137t123 49t123 -49t45 -137t-45 -136.5
t-123 -48.5zM200 436q45 0 67 28t22 80q0 54 -22.5 82.5t-66.5 28.5q-42 0 -64.5 -28.5t-22.5 -82.5q0 -52 22.5 -80t64.5 -28z" />
    <glyph glyph-name="guilsinglleft" unicode="&#x2039;" horiz-adv-x="352" 
d="M72 280l139 210l69 -44l-101 -166l101 -166l-69 -44z" />
    <glyph glyph-name="guilsinglright" unicode="&#x203a;" horiz-adv-x="352" 
d="M173 280l-101 166l70 44l138 -210l-138 -210l-70 44z" />
    <glyph glyph-name="fraction" unicode="&#x2044;" horiz-adv-x="93" 
d="M260 720h83l-510 -720h-83z" />
    <glyph glyph-name="foursuperior" unicode="&#x2074;" horiz-adv-x="315" 
d="M10 487l166 233h79v-226h45v-67h-45v-67h-84v67h-161v60zM171 494v122l-84 -122h84z" />
    <glyph glyph-name="Euro" unicode="&#x20ac;" horiz-adv-x="591" 
d="M22 474h84q14 57 42.5 104.5t69 81t92.5 52.5t114 19q42 0 78 -7t67 -21v-101q-26 17 -61.5 29t-82.5 12q-40 0 -73.5 -12.5t-60 -35t-46 -53.5t-31.5 -68h271v-68h-285q-3 -24 -3 -48q0 -25 3 -49h285v-68h-271q24 -73 78 -118.5t136 -45.5t140 32v-93
q-29 -14 -66.5 -20.5t-76.5 -6.5q-62 0 -114 18.5t-92.5 51.5t-68.5 79.5t-43 102.5h-85v68h73q-1 12 -1.5 24.5t-0.5 26.5v23t2 23h-73v68z" />
    <glyph glyph-name="uni2113" unicode="&#x2113;" horiz-adv-x="511" 
d="M31 153q23 13 44.5 25t41.5 25q-5 29 -7.5 64t-2.5 76q0 100 14.5 173.5t40.5 122t62.5 72t80.5 23.5q73 0 112 -46t39 -131q0 -66 -18.5 -121.5t-50 -103t-74.5 -87.5t-91 -74q11 -45 32.5 -73.5t59.5 -28.5q19 0 33.5 7t26.5 20t22.5 29.5t21.5 36.5l66 -40
q-32 -73 -75.5 -104.5t-100.5 -31.5q-26 0 -50.5 6t-46.5 21t-40.5 40t-32.5 63q-17 -11 -34 -20.5t-34 -19.5zM357 555q0 45 -13.5 70.5t-39.5 25.5q-27 0 -46 -25.5t-30.5 -68t-16.5 -98t-5 -115.5q0 -20 0.5 -39.5t1.5 -39.5q34 27 62 57.5t47 65.5t29.5 76t10.5 91z" />
    <glyph glyph-name="trademark" unicode="&#x2122;" horiz-adv-x="728" 
d="M306 720h77l109 -216l110 216h70l36 -360h-86l-22 213l-90 -178h-49l-88 175l-21 -210h-82zM5 720h270v-73h-92v-287h-87v287h-91v73z" />
    <glyph glyph-name="Omega" unicode="&#x2126;" horiz-adv-x="814" 
d="M30 90h158q-30 13 -57.5 40.5t-48 64.5t-33 82t-12.5 93q0 79 27.5 145.5t77 114.5t118 74.5t149.5 26.5q78 0 145 -26.5t116.5 -74.5t78 -114.5t28.5 -145.5q0 -48 -13 -93t-34 -82t-48.5 -64.5t-55.5 -40.5h158v-90h-311v90q92 29 146 100.5t54 177.5q0 61 -20.5 111.5
t-56 86.5t-84 55.5t-105.5 19.5q-58 0 -107 -19.5t-84 -55.5t-55 -86.5t-20 -111.5q0 -106 52.5 -177.5t147.5 -100.5v-90h-311v90z" />
    <glyph glyph-name="estimated" unicode="&#x212e;" horiz-adv-x="715" 
d="M163 104q0 -9 7 -18q35 -37 83.5 -58.5t104.5 -21.5q60 0 110.5 24t86.5 66h44q-42 -48 -104.5 -77.5t-137.5 -29.5q-63 0 -119 21.5t-97.5 59t-65.5 87.5t-24 107t24 107.5t65.5 88t97.5 59.5t119 22t119 -22t97.5 -59.5t65.5 -88t24 -107.5v-7h-496q-4 0 -4 -3v-150z
M548 272q3 0 3 4v151q0 11 -8 19q-35 36 -82.5 57t-102.5 21t-103.5 -21.5t-83.5 -59.5q-8 -6 -8 -19v-148q0 -4 4 -4h381z" />
    <glyph glyph-name="partialdiff" unicode="&#x2202;" horiz-adv-x="585" 
d="M211 760q103 -43 171 -99t108 -119.5t56 -130.5t16 -133q0 -65 -20.5 -118t-56.5 -91t-85.5 -59t-107.5 -21t-107.5 20.5t-85.5 57.5t-56 87t-20 109q0 58 20 108t56 87t85.5 57.5t107.5 20.5q36 0 68 -10.5t61 -35.5q-37 63 -96.5 115.5t-144.5 91.5zM292 72q37 0 68 14
t54 39.5t36 60.5t13 77t-13 76.5t-36 60t-54 39.5t-68 14q-36 0 -67.5 -14t-54 -39.5t-35.5 -60t-13 -76.5t13 -77t35.5 -60.5t54 -39.5t67.5 -14z" />
    <glyph glyph-name="Delta" unicode="&#x2206;" horiz-adv-x="738" 
d="M328 720h82l308 -720h-698zM369 599l-220 -521h440z" />
    <glyph glyph-name="product" unicode="&#x220f;" horiz-adv-x="682" 
d="M515 630h-348v-730h-102v820h552v-820h-102v730z" />
    <glyph glyph-name="summation" unicode="&#x2211;" horiz-adv-x="509" 
d="M10 718v2h479v-86h-321l203 -324l-203 -324h321v-86h-479v2l257 408z" />
    <glyph glyph-name="minus" unicode="&#x2212;" horiz-adv-x="510" 
d="M69 379h372v-83h-372v83z" />
    <glyph glyph-name="uni2215" unicode="&#x2215;" horiz-adv-x="93" 
d="M260 720h83l-510 -720h-83z" />
    <glyph glyph-name="radical" unicode="&#x221a;" horiz-adv-x="568" 
d="M30 406h89l134 -321l206 635h89l-247 -720h-93z" />
    <glyph glyph-name="infinity" unicode="&#x221e;" horiz-adv-x="671" 
d="M175 187q-30 0 -57 12t-47.5 33.5t-32 51t-11.5 64.5q0 34 11 63t30.5 50.5t47 33.5t59.5 12q26 0 48.5 -9t42 -24.5t37 -35.5t33.5 -41q17 22 35 42t38.5 35.5t43.5 24.5t50 9q28 0 54 -12t45 -33.5t30.5 -51t11.5 -63.5q0 -35 -11.5 -64.5t-31 -51t-45 -34t-52.5 -12.5
t-50 9.5t-44 25t-39.5 36t-36.5 42.5q-17 -22 -34.5 -42t-37 -35.5t-41 -25t-46.5 -9.5zM494 252q35 0 59 28t24 66q0 39 -22 68t-60 29q-36 0 -66 -28t-59 -66q29 -39 58 -68t66 -29zM180 252q16 0 31 7.5t29.5 20.5t28.5 30t28 36q-15 19 -30 36.5t-30 30.5t-30.5 21
t-32.5 8t-31 -8t-25 -21.5t-17 -30.5t-6 -36q0 -40 23 -67t62 -27z" />
    <glyph glyph-name="integral" unicode="&#x222b;" horiz-adv-x="401" 
d="M10 -118q11 -5 28 -8t34 -3q36 0 57.5 24.5t21.5 84.5v567q0 88 44 136t122 48q29 0 44 -2t30 -6v-81q-11 3 -28 5.5t-34 2.5q-38 0 -58.5 -24t-20.5 -82v-564q0 -92 -45.5 -141t-120.5 -49q-29 0 -44 2.5t-30 8.5v81z" />
    <glyph glyph-name="approxequal" unicode="&#x2248;" horiz-adv-x="510" 
d="M62 228q32 39 61.5 53.5t55.5 14.5q22 0 42 -7t39.5 -15t38 -15t36.5 -7q17 0 33 8t33 28l47 -47q-32 -40 -61.5 -54t-55.5 -14q-22 0 -42 6.5t-39.5 15t-38 15t-36.5 6.5q-16 0 -32.5 -7.5t-33.5 -27.5zM62 435q32 39 61.5 54t55.5 15q22 0 42 -7t39.5 -15.5t38 -15.5
t36.5 -7q17 0 33 8t33 28l47 -47q-32 -39 -61.5 -53.5t-55.5 -14.5q-22 0 -42 6.5t-39.5 15t-38 15t-36.5 6.5q-16 0 -32.5 -7.5t-33.5 -27.5z" />
    <glyph glyph-name="notequal" unicode="&#x2260;" horiz-adv-x="510" 
d="M69 482h228l41 70h83l-41 -70h61v-83h-109l-72 -123h181v-83h-229l-40 -70h-83l40 70h-60v83h108l72 123h-180v83z" />
    <glyph glyph-name="lessequal" unicode="&#x2264;" horiz-adv-x="510" 
d="M69 379l372 172v-83l-280 -130l280 -131v-82l-372 171v83zM69 83h372v-83h-372v83z" />
    <glyph glyph-name="greaterequal" unicode="&#x2265;" horiz-adv-x="510" 
d="M69 207l280 131l-280 130v83l372 -172v-83l-372 -171v82zM69 83h372v-83h-372v83z" />
    <glyph glyph-name="lozenge" unicode="&#x25ca;" horiz-adv-x="518" 
d="M399 359l-140 280l-140 -280l140 -278zM30 359l188 361h82l188 -361l-188 -359h-82z" />
    <glyph glyph-name="heart" unicode="&#x2665;" horiz-adv-x="602" 
d="M305 435q16 29 41.5 47t56.5 18q43 0 71 -29.5t28 -75.5q0 -30 -13.5 -65t-39 -70t-63 -67.5t-85.5 -57.5q-48 25 -85.5 57.5t-63 67.5t-39 70t-13.5 65q0 46 28 75.5t71 29.5q31 0 56.5 -18t41.5 -47h8z" />
    <glyph glyph-name="i.dot" unicode="&#xe166;" 
d="M55 525h99v-525h-99v525zM105 604q-26 0 -44 18.5t-18 44.5t18 45t44 19t43.5 -19t17.5 -45t-17.5 -44.5t-43.5 -18.5z" />
    <glyph glyph-name="commaaccent" unicode="&#xf6c3;" horiz-adv-x="633" 
d="M278 -59h92l-53 -160h-69z" />
    <glyph glyph-name="caron.alt" horiz-adv-x="633" 
d="M295 720h92l-53 -160h-69z" />
    <glyph glyph-name="revcommaaccent" horiz-adv-x="633" 
d="M318 720h69l-30 -160h-92z" />
    </font>
</defs>
</svg>
