<svg width="116" height="32" viewBox="0 0 116 32" fill="none" xmlns="http://www.w3.org/2000/svg">
<path fill-rule="evenodd" clip-rule="evenodd" d="M38.0136 8.48047C37.2887 8.48046 36.7001 9.06591 36.6963 9.79055V21.8822C36.6963 22.6518 37.3204 23.2757 38.0902 23.2757H38.1244C38.8937 23.2749 39.5169 22.6513 39.5169 21.8822V19.0678H42.6358C45.7205 19.0678 47.9926 16.7157 47.9926 13.7741C47.9926 10.8326 45.7219 8.48047 42.6577 8.48047H38.0136ZM39.5169 16.4449V11.0897H42.4553C44.0585 11.0897 45.1528 12.2863 45.1528 13.7673C45.1528 15.2483 44.0585 16.4449 42.4553 16.4449H39.5169Z" fill="black"/>
<path fill-rule="evenodd" clip-rule="evenodd" d="M52.1732 8.48047C51.4481 8.48045 50.859 9.06569 50.8545 9.79055V21.8822C50.8545 22.6518 51.4786 23.2757 52.2484 23.2757H52.2826C53.0519 23.2749 53.6752 22.6513 53.6752 21.8822V18.8285H57.0129L58.917 22.5345C59.1554 22.9985 59.6332 23.2904 60.155 23.2907C60.6478 23.2913 61.1042 23.0315 61.3551 22.6076C61.6061 22.1836 61.6142 21.6587 61.3766 21.2271L59.5887 17.9765C61.1987 17.1041 62.051 15.4412 62.051 13.6771C62.051 10.57 60.0278 8.48047 56.4712 8.48047H52.1732ZM53.6752 16.222V11.1102H56.2236C58.3411 11.1102 59.233 12.0634 59.233 13.5444C59.233 15.0254 58.5162 16.222 56.2236 16.222H53.6752Z" fill="black"/>
<path fill-rule="evenodd" clip-rule="evenodd" d="M72.3061 8.33012C68.1233 8.31704 64.7208 11.6944 64.7042 15.8761C64.6954 17.8889 65.4886 19.8224 66.9085 21.2495C68.3283 22.6767 70.2581 23.48 72.2715 23.4822C76.4544 23.4882 79.8512 20.1051 79.8607 15.9234C79.8702 11.7418 76.489 8.34319 72.3061 8.33012ZM72.2509 11.15C74.8819 11.1332 77.0314 13.2459 77.0593 15.8761H77.0579C77.0644 17.151 76.5636 18.3762 75.6658 19.2817C74.768 20.1872 73.5469 20.6987 72.2715 20.7034C69.6405 20.698 67.5089 18.5672 67.5032 15.937C67.4975 13.3067 69.6199 11.1668 72.2509 11.15Z" fill="black"/>
<path fill-rule="evenodd" clip-rule="evenodd" d="M85.0523 8.4805C85.4984 8.47913 85.9181 8.69171 86.1808 9.05212L90.208 14.6343L94.2831 9.1793C94.6196 8.73625 95.1451 8.47737 95.7016 8.4805C96.171 8.4805 96.6213 8.66693 96.9532 8.99879C97.2852 9.33065 97.4717 9.78075 97.4717 10.2501V21.8822C97.4717 22.6518 96.8476 23.2757 96.0778 23.2757H96.0436C95.2743 23.275 94.651 22.6513 94.651 21.8822V13.0166L91.119 17.7796C90.9011 18.0749 90.5559 18.2492 90.1889 18.2492C89.8218 18.2492 89.4766 18.0749 89.2587 17.7796L85.7855 13.0754V21.8822C85.7855 22.6513 85.1623 23.275 84.393 23.2757H84.3588C83.9891 23.2757 83.6345 23.1289 83.3731 22.8676C83.1117 22.6062 82.9648 22.2518 82.9648 21.8822V10.5591C82.9694 9.40981 83.9026 8.48049 85.0523 8.4805Z" fill="black"/>
<path fill-rule="evenodd" clip-rule="evenodd" d="M108.18 8.33207C103.998 8.31875 100.597 11.6948 100.579 15.8753C100.57 17.8881 101.364 19.8216 102.783 21.2488C104.203 22.6759 106.133 23.4793 108.147 23.4814C112.328 23.4867 115.724 20.1041 115.733 15.9236C115.742 11.743 112.362 8.34539 108.18 8.33207ZM108.126 11.1492C110.757 11.1325 112.906 13.2452 112.934 15.8753C112.94 17.1503 112.439 18.3756 111.541 19.281C110.643 20.1865 109.422 20.6979 108.147 20.7026C105.515 20.6972 103.384 18.5664 103.378 15.9362C103.373 13.3059 105.495 11.166 108.126 11.1492Z" fill="black"/>
<path fill-rule="evenodd" clip-rule="evenodd" d="M4.50056 0.428957L25.6993 13.3643H25.6897C26.5536 13.8917 27.0829 14.8285 27.0888 15.8404C27.0946 16.8524 26.5762 17.7952 25.7184 18.3325L13.8175 25.791C12.9318 26.3917 11.7885 26.4606 10.8372 25.9704C9.88576 25.4803 9.27837 24.5096 9.25377 23.4399C9.22917 22.3702 9.79129 21.3725 10.7191 20.8392L13.1007 19.3486L18.6203 15.8902L16.3276 14.4912L16.2907 14.4679L9.35669 10.2368L5.90132 8.1281V17.8621C5.92423 18.921 5.37226 19.9094 4.45859 20.4456C3.54492 20.9818 2.41257 20.9818 1.4989 20.4456C0.58523 19.9094 0.0332575 18.921 0.0561744 17.8621V2.92195C0.0553454 1.86522 0.62575 0.89052 1.54759 0.37343C2.46944 -0.14366 3.59882 -0.122423 4.50056 0.428957ZM0.233308 27.515C0.707711 26.3696 1.8256 25.6228 3.06561 25.6228C4.75749 25.6243 6.12887 26.9947 6.13113 28.6861C6.13168 29.9257 5.38514 31.0436 4.23968 31.5184C3.09422 31.9931 1.77546 31.7313 0.898443 30.8549C0.0214273 29.9785 -0.241096 28.6603 0.233308 27.515Z" fill="url(#paint0_linear)"/>
<path fill-rule="evenodd" clip-rule="evenodd" d="M16.2908 14.4676L9.35684 10.2365L9.35547 10.2188L16.2908 14.4676Z" fill="url(#paint1_linear)"/>
<defs>
<linearGradient id="paint0_linear" x1="0.00145738" y1="31.7561" x2="27.0987" y2="31.7561" gradientUnits="userSpaceOnUse">
<stop stop-color="#FF3176"/>
<stop offset="1" stop-color="#FF7369"/>
</linearGradient>
<linearGradient id="paint1_linear" x1="13.4144" y1="12.6657" x2="13.5972" y2="11.765" gradientUnits="userSpaceOnUse">
<stop stop-color="white"/>
<stop offset="1"/>
</linearGradient>
</defs>
</svg>
