<svg width="390" height="222" viewBox="0 0 390 222" fill="none" xmlns="http://www.w3.org/2000/svg">
<path fill-rule="evenodd" clip-rule="evenodd" d="M35.1338 36.0756C41.962 29.2914 53.0134 29.3106 59.8178 36.1186L203.589 179.965L347.885 36.0971C354.701 29.301 365.753 29.301 372.569 36.0971L516.886 179.987L661.204 36.0971C668.02 29.301 679.071 29.301 685.888 36.0971C692.704 42.8932 692.704 53.9119 685.888 60.708L529.228 216.903C522.412 223.699 511.361 223.699 504.544 216.903L360.227 73.0134L215.91 216.903C212.633 220.17 208.187 222.004 203.552 222C198.918 221.996 194.475 220.154 191.204 216.881L35.0907 60.6865C28.2863 53.8785 28.3056 42.8599 35.1338 36.0756Z" fill="#FFCA0C"/>
<path d="M17.5 35C27.165 35 35 27.165 35 17.5C35 7.83502 27.165 0 17.5 0C7.83502 0 0 7.83502 0 17.5C0 27.165 7.83502 35 17.5 35Z" fill="#FFCA0C"/>
</svg>
