<svg width="375" height="732" viewBox="0 0 375 732" fill="none" xmlns="http://www.w3.org/2000/svg">
<rect width="375" height="732" fill="#F6F6F6"/>
<path fill-rule="evenodd" clip-rule="evenodd" d="M274.507 305.165C279.27 300.433 286.979 300.447 291.725 305.195L392.012 405.534L492.664 305.18C497.418 300.44 505.127 300.44 509.882 305.18L610.549 405.549L711.216 305.18C715.971 300.44 723.679 300.44 728.434 305.18C733.189 309.921 733.189 317.607 728.434 322.348L619.158 431.3C614.403 436.04 606.694 436.04 601.94 431.3L501.273 330.931L400.606 431.3C398.32 433.579 395.219 434.858 391.986 434.855C388.753 434.852 385.654 433.568 383.373 431.285L274.477 322.333C269.731 317.584 269.744 309.898 274.507 305.165Z" fill="#FFCA0C"/>
<path d="M262.207 304.414C268.949 304.414 274.414 298.949 274.414 292.207C274.414 285.465 268.949 280 262.207 280C255.465 280 250 285.465 250 292.207C250 298.949 255.465 304.414 262.207 304.414Z" fill="#FFCA0C"/>
<path fill-rule="evenodd" clip-rule="evenodd" d="M-140.845 271.247C-146.453 267.172 -147.697 259.323 -143.622 253.714C-104.836 200.33 -30.2048 188.35 23.0901 227.071C76.385 265.792 88.0536 340.473 49.2678 393.857C45.193 399.465 37.3433 400.709 31.7348 396.634C26.1264 392.559 24.8831 384.709 28.9579 379.101C59.6376 336.874 50.3525 277.909 8.33412 247.381C-33.6842 216.853 -92.6324 226.243 -123.312 268.47C-127.387 274.079 -135.237 275.322 -140.845 271.247Z" fill="#2FFFD0"/>
<path fill-rule="evenodd" clip-rule="evenodd" d="M16.4181 425C23.1131 425 28.5404 419.573 28.5404 412.878C28.5404 406.183 23.1131 400.756 16.4181 400.756C9.72321 400.756 4.2959 406.183 4.2959 412.878C4.2959 419.573 9.72321 425 16.4181 425Z" fill="#2FFFD0"/>
</svg>
