<svg width="243" height="409" viewBox="0 0 243 409" fill="none" xmlns="http://www.w3.org/2000/svg">
<path fill-rule="evenodd" clip-rule="evenodd" d="M-154.502 174.355C-163.061 168.137 -164.959 156.157 -158.74 147.598C-99.5485 66.1276 14.3479 47.8444 95.6823 106.937C177.017 166.03 194.824 280.002 135.633 361.472C129.414 370.032 117.434 371.929 108.875 365.71C100.316 359.492 98.4186 347.512 104.637 338.953C151.458 274.51 137.288 184.522 73.1629 137.933C9.03788 91.3431 -80.924 105.674 -127.745 170.117C-133.964 178.677 -145.943 180.574 -154.502 174.355Z" fill="#2FFFD0"/>
<path fill-rule="evenodd" clip-rule="evenodd" d="M85.5 409C95.7173 409 104 400.717 104 390.5C104 380.283 95.7173 372 85.5 372C75.2827 372 67 380.283 67 390.5C67 400.717 75.2827 409 85.5 409Z" fill="#2FFFD0"/>
</svg>
