<svg width="28" height="28" viewBox="0 0 28 28" fill="none" xmlns="http://www.w3.org/2000/svg">
<path d="M14 28C6.2692 28 0 21.7308 0 14C0 6.2692 6.2692 0 14 0C21.7308 0 28 6.2692 28 14C28 21.7308 21.7308 28 14 28Z" fill="#3B5998"/>
<path d="M16.249 27.9997V17.1553H19.889L20.435 12.9301H16.249V10.2309C16.249 9.00727 16.5878 8.17287 18.3434 8.17287H20.5806V4.39567C20.1942 4.34527 18.8642 4.23047 17.3186 4.23047C14.093 4.23047 11.8838 6.19887 11.8838 9.81647V12.9329H8.23535V17.1581H11.8838V27.9997H16.249Z" fill="white"/>
</svg>
