<svg width="28" height="28" viewBox="0 0 28 28" fill="none" xmlns="http://www.w3.org/2000/svg">
<path d="M14 28C6.2692 28 0 21.7308 0 14C0 6.2692 6.2692 0 14 0C21.7308 0 28 6.2692 28 14C28 21.7308 21.7308 28 14 28Z" fill="url(#paint0_linear)"/>
<path d="M14.2262 5.79231C16.777 5.79231 17.0794 5.80071 18.0874 5.84831C19.0198 5.89031 19.5266 6.04711 19.8626 6.17871C20.3078 6.35231 20.627 6.55951 20.9602 6.89271C21.2934 7.22591 21.5006 7.54511 21.6742 7.99031C21.8058 8.32631 21.9598 8.83311 22.0046 9.76551C22.0494 10.7735 22.0606 11.0759 22.0606 13.6267C22.0606 16.1775 22.0522 16.4799 22.0046 17.4879C21.9626 18.4203 21.8058 18.9271 21.6742 19.2631C21.5006 19.7083 21.2934 20.0275 20.9602 20.3607C20.627 20.6939 20.3078 20.9011 19.8626 21.0747C19.5266 21.2063 19.0198 21.3603 18.0874 21.4051C17.0794 21.4499 16.777 21.4611 14.2262 21.4611C11.6754 21.4611 11.373 21.4527 10.365 21.4051C9.43259 21.3631 8.92579 21.2063 8.58979 21.0747C8.14459 20.9011 7.82539 20.6939 7.49219 20.3607C7.15899 20.0275 6.95179 19.7083 6.77819 19.2631C6.64659 18.9271 6.49259 18.4203 6.44779 17.4879C6.40299 16.4799 6.39179 16.1775 6.39179 13.6267C6.39179 11.0759 6.40019 10.7735 6.44779 9.76551C6.48979 8.83311 6.64659 8.32631 6.77819 7.99031C6.95179 7.54511 7.15899 7.22591 7.49219 6.89271C7.82539 6.55951 8.14459 6.35231 8.58979 6.17871C8.92579 6.04711 9.43259 5.89311 10.365 5.84831C11.373 5.80071 11.6754 5.79231 14.2262 5.79231ZM14.2262 4.07031C11.6306 4.07031 11.3058 4.08151 10.2866 4.12911C9.27019 4.17671 8.57579 4.33631 7.96539 4.57431C7.33819 4.81511 6.80339 5.14271 6.27419 5.67471C5.74219 6.20671 5.41739 6.73871 5.17099 7.36871C4.93579 7.97631 4.77339 8.67071 4.72579 9.68991C4.67819 10.7091 4.66699 11.0339 4.66699 13.6295C4.66699 16.2251 4.67819 16.5499 4.72579 17.5691C4.77339 18.5855 4.93299 19.2799 5.17099 19.8903C5.41459 20.5147 5.74219 21.0495 6.27419 21.5787C6.80619 22.1107 7.33819 22.4355 7.96819 22.6819C8.57579 22.9171 9.27019 23.0795 10.2894 23.1271C11.3086 23.1747 11.6334 23.1859 14.229 23.1859C16.8246 23.1859 17.1494 23.1747 18.1686 23.1271C19.185 23.0795 19.8794 22.9199 20.4898 22.6819C21.1142 22.4383 21.649 22.1107 22.1782 21.5787C22.7102 21.0467 23.035 20.5147 23.2814 19.8847C23.5166 19.2771 23.679 18.5827 23.7266 17.5635C23.7742 16.5443 23.7854 16.2195 23.7854 13.6239C23.7854 11.0283 23.7742 10.7035 23.7266 9.68431C23.679 8.66791 23.5194 7.97351 23.2814 7.36311C23.0378 6.73871 22.7102 6.20391 22.1782 5.67471C21.6462 5.14271 21.1142 4.81791 20.4842 4.57151C19.8766 4.33631 19.1822 4.17391 18.163 4.12631C17.1466 4.08151 16.8218 4.07031 14.2262 4.07031Z" fill="white"/>
<path d="M14.2258 8.71875C11.5154 8.71875 9.31738 10.9167 9.31738 13.6271C9.31738 16.3375 11.5154 18.5355 14.2258 18.5355C16.9362 18.5355 19.1342 16.3375 19.1342 13.6271C19.1342 10.9167 16.9362 8.71875 14.2258 8.71875ZM14.2258 16.8135C12.4674 16.8135 11.0394 15.3883 11.0394 13.6271C11.0394 11.8659 12.4674 10.4407 14.2258 10.4407C15.9842 10.4407 17.4122 11.8659 17.4122 13.6271C17.4122 15.3883 15.9842 16.8135 14.2258 16.8135Z" fill="white"/>
<path d="M19.3277 9.67491C19.9617 9.67491 20.4757 9.16093 20.4757 8.52691C20.4757 7.89288 19.9617 7.37891 19.3277 7.37891C18.6937 7.37891 18.1797 7.89288 18.1797 8.52691C18.1797 9.16093 18.6937 9.67491 19.3277 9.67491Z" fill="white"/>
<defs>
<linearGradient id="paint0_linear" x1="12.3529" y1="28" x2="11.5294" y2="-8.95141e-07" gradientUnits="userSpaceOnUse">
<stop stop-color="#F99938"/>
<stop offset="0.353591" stop-color="#DF5266"/>
<stop offset="0.685083" stop-color="#BD32A5"/>
<stop offset="1" stop-color="#545CD7"/>
</linearGradient>
</defs>
</svg>
