<svg width="28" height="28" viewBox="0 0 28 28" fill="none" xmlns="http://www.w3.org/2000/svg">
<path d="M14 28C6.2692 28 0 21.7308 0 14C0 6.2692 6.2692 0 14 0C21.7308 0 28 6.2692 28 14C28 21.7308 21.7308 28 14 28Z" fill="#BD081C"/>
<path d="M14.0139 4.21289C8.60147 4.21289 4.21387 8.60049 4.21387 14.0129C4.21387 18.1653 6.79827 21.7129 10.4439 23.1409C10.3571 22.3653 10.2815 21.1725 10.4775 20.3269C10.6567 19.5625 11.6255 15.4549 11.6255 15.4549C11.6255 15.4549 11.3315 14.8669 11.3315 13.9989C11.3315 12.6353 12.1211 11.6189 13.1039 11.6189C13.9411 11.6189 14.3443 12.2461 14.3443 12.9993C14.3443 13.8393 13.8095 15.0965 13.5323 16.2613C13.3027 17.2357 14.0223 18.0309 14.9827 18.0309C16.7243 18.0309 18.0627 16.1941 18.0627 13.5425C18.0627 11.1961 16.3771 9.55529 13.9691 9.55529C11.1803 9.55529 9.54507 11.6469 9.54507 13.8085C9.54507 14.6513 9.86987 15.5529 10.2731 16.0457C10.3543 16.1437 10.3655 16.2277 10.3403 16.3257C10.2647 16.6365 10.0995 17.3001 10.0687 17.4373C10.0267 17.6165 9.92587 17.6557 9.74107 17.5689C8.51747 17.0005 7.75307 15.2085 7.75307 13.7721C7.75307 10.6809 9.99867 7.84169 14.2295 7.84169C17.6287 7.84169 20.2719 10.2637 20.2719 13.5005C20.2719 16.8829 18.1439 19.6017 15.1871 19.6017C14.1931 19.6017 13.2607 19.0865 12.9415 18.4761C12.9415 18.4761 12.4515 20.3465 12.3311 20.8057C12.1099 21.6569 11.5135 22.7237 11.1131 23.3761C12.0287 23.6589 13.0031 23.8129 14.0139 23.8129C19.4263 23.8129 23.8139 19.4253 23.8139 14.0129C23.8139 8.60049 19.4263 4.21289 14.0139 4.21289Z" fill="white"/>
</svg>
