<svg width="30" height="20" viewBox="0 0 30 20" fill="none" xmlns="http://www.w3.org/2000/svg">
<path d="M14.9042 7.31221C14.9042 3.48844 11.681 0.388672 7.70421 0.388672C3.7274 0.388672 0.840985 3.38163 0.504207 7.19183C-0.00995326 13.0058 4.58328 17.8737 10.1597 19.4224C8.25892 18.3172 6.93297 16.3952 6.71186 14.1598C7.03735 14.2042 7.36673 14.2357 7.70421 14.2357C11.681 14.2357 14.9042 11.1363 14.9042 7.31221Z" fill="white" fill-opacity="0.5"/>
<path d="M29.9999 7.31221C29.9999 3.48844 26.7769 0.388672 22.7999 0.388672C18.8237 0.388672 15.937 3.38163 15.5999 7.19183C15.0858 13.0058 19.6788 17.8737 25.2553 19.4224C23.3546 18.3172 22.0291 16.3952 21.8076 14.1598C22.1331 14.2042 22.4628 14.2357 22.7999 14.2357C26.7769 14.2357 29.9999 11.1363 29.9999 7.31221Z" fill="white" fill-opacity="0.5"/>
</svg>
