<svg width="28" height="28" viewBox="0 0 28 28" fill="none" xmlns="http://www.w3.org/2000/svg">
<path d="M14 28C21.7308 28 28 21.7308 28 14C28 6.2692 21.7308 0 14 0C6.2692 0 0 6.2692 0 14C0 21.7308 6.2692 28 14 28Z" fill="#FFFC00"/>
<path d="M14.0455 20.462C14.043 20.4619 14.0413 20.4618 14.0403 20.4617L14.0107 20.4568H13.9776C13.9568 20.4568 13.9388 20.4579 13.9255 20.459C13.9136 20.46 13.9024 20.4613 13.8967 20.4619L13.8956 20.462C13.8945 20.4622 13.8934 20.4623 13.8926 20.4624C13.1703 20.4596 12.7115 20.1417 12.1712 19.7609C11.8118 19.5023 11.3853 19.2007 10.8727 19.1129L10.8719 19.1128C10.651 19.0755 10.4215 19.0568 10.2116 19.0568C9.83105 19.0568 9.52974 19.1163 9.3301 19.1558C9.32363 19.1571 9.31726 19.1583 9.31101 19.1595L9.311 19.1595L9.30645 19.1605C9.26807 19.1685 9.23489 19.175 9.20634 19.1802C9.19695 19.1412 9.18777 19.1012 9.17817 19.0594C9.17505 19.0458 9.17188 19.0319 9.16864 19.0179C9.14115 18.8871 9.10861 18.7369 9.05846 18.6162C9.01033 18.5004 8.89121 18.2804 8.61826 18.236L8.61596 18.2356C8.0222 18.1425 7.63748 18.0385 7.39278 17.9432C8.30553 17.6575 8.97954 17.0736 9.43791 16.5348C9.95142 15.9312 10.2177 15.3574 10.2696 15.2371L10.2705 15.2353C10.4278 14.9174 10.4968 14.5593 10.3558 14.227L10.3558 14.227L10.3551 14.2253C10.2296 13.9333 9.98049 13.7541 9.77287 13.6434C9.56204 13.5311 9.33509 13.459 9.17962 13.4113C9.15853 13.4043 9.13828 13.398 9.12054 13.3924C9.11545 13.3909 9.11066 13.3894 9.1061 13.388C9.09249 13.3837 9.08091 13.3801 9.0693 13.3764C9.05432 13.3716 9.0434 13.3679 9.03504 13.3649C9.02766 13.3622 9.02462 13.3608 9.02462 13.3608L9.0121 13.3549L8.99897 13.3497C8.79565 13.2704 8.68841 13.2002 8.63449 13.1547C8.65372 13.1446 8.6757 13.1357 8.69888 13.129C8.72901 13.1203 8.75472 13.1172 8.77239 13.1172C8.77393 13.1172 8.77534 13.1172 8.7766 13.1172C9.08422 13.2587 9.39842 13.3524 9.69639 13.3524C10.1148 13.3524 10.3594 13.1738 10.4509 13.0671L10.5587 12.9413L10.546 12.7761C10.5409 12.7102 10.5377 12.6425 10.5341 12.5674L10.5339 12.5619C10.5305 12.4908 10.5269 12.4132 10.521 12.334C10.4887 11.8322 10.4552 11.2895 10.4669 10.7861C10.4789 10.2731 10.5379 9.85171 10.6611 9.57297C11.5099 7.67605 13.2968 7.52279 13.846 7.52279C13.8589 7.52279 13.9316 7.52119 13.9903 7.51989L14.0767 7.51796L14.1048 7.51733L14.1109 7.51719H14.1428C14.6922 7.51719 16.4844 7.67053 17.3332 9.57273C17.4566 9.85171 17.5162 10.2741 17.5285 10.7874C17.5405 11.2875 17.5075 11.8266 17.4741 12.3233L17.4699 12.3568L17.4688 12.3656L17.4681 12.3745C17.4622 12.4484 17.4584 12.5202 17.4551 12.5847L17.4547 12.5918C17.4512 12.6602 17.448 12.7203 17.443 12.7785L17.4273 12.9637L17.5588 13.0952C17.6275 13.1639 17.8356 13.3333 18.2259 13.3572L18.2488 13.3586L18.2717 13.3574C18.5422 13.343 18.8315 13.2623 19.1229 13.1241C19.1242 13.1236 19.1261 13.123 19.1288 13.1222C19.1339 13.1207 19.1403 13.1192 19.1477 13.1178C19.1636 13.115 19.1762 13.1144 19.18 13.1144C19.233 13.1144 19.2576 13.1234 19.2613 13.1252L19.3435 13.1648H19.3505C19.2929 13.2114 19.1856 13.2789 18.9944 13.3563C18.9412 13.3748 18.8748 13.3978 18.8063 13.4206C18.8014 13.4222 18.7963 13.4239 18.7911 13.4255C18.6406 13.4738 18.4196 13.5448 18.2162 13.6522C18.0088 13.7617 17.7599 13.9393 17.6341 14.2327C17.493 14.5559 17.5542 14.9032 17.7032 15.2131C17.7078 15.2254 17.7133 15.238 17.7197 15.2509C17.7235 15.2585 17.7274 15.2657 17.7314 15.2725C17.7991 15.4213 18.063 15.967 18.5508 16.5407C19.0094 17.0801 19.6843 17.6653 20.5985 17.9501C20.3546 18.0446 19.9705 18.1473 19.3778 18.2377C19.11 18.2749 18.99 18.4873 18.9409 18.6008C18.8901 18.7183 18.8541 18.8699 18.821 19.014C18.8085 19.0683 18.7966 19.12 18.784 19.1712C18.7548 19.1666 18.7204 19.1607 18.6795 19.1532C18.4377 19.1072 18.1481 19.0568 17.7828 19.0568C17.5688 19.0568 17.3462 19.072 17.1198 19.1132C16.6019 19.2016 16.1808 19.5036 15.8235 19.7607C15.2783 20.1429 14.8121 20.4624 14.0868 20.4624C14.0656 20.4624 14.0546 20.4623 14.0455 20.462ZM9.0733 19.1966C9.07334 19.1966 9.07436 19.1966 9.07623 19.1968L9.0733 19.1966ZM10.3064 15.0692C10.3064 15.0655 10.3065 15.0672 10.3064 15.072V15.0692ZM10.195 15.3406C10.1933 15.3424 10.1929 15.3428 10.1948 15.3408L10.195 15.3406Z" fill="white" stroke="black" stroke-width="0.8"/>
</svg>
