<svg width="375" height="690" viewBox="0 0 375 690" fill="none" xmlns="http://www.w3.org/2000/svg">
<rect x="-3" width="393" height="690" fill="#FF3366"/>
<path d="M330.455 553.492L427.818 653.167" stroke="#FFCA0C" stroke-width="21.7728" stroke-linecap="round"/>
<path fill-rule="evenodd" clip-rule="evenodd" d="M311.886 545.261C317.898 545.261 322.771 540.289 322.771 534.156C322.771 528.023 317.898 523.051 311.886 523.051C305.874 523.051 301 528.023 301 534.156C301 540.289 305.874 545.261 311.886 545.261Z" fill="#FFCA0C"/>
<path d="M46.6083 269.252C65.4475 242.689 59.7648 205.559 33.9156 186.321C8.0664 167.082 -28.1608 173.019 -47 199.582" stroke="#2FFFD0" stroke-width="21.7728" stroke-linecap="round"/>
<path fill-rule="evenodd" clip-rule="evenodd" d="M27.8475 301.129C33.8383 301.129 38.6949 296.154 38.6949 290.016C38.6949 283.879 33.8383 278.904 27.8475 278.904C21.8566 278.904 17 283.879 17 290.016C17 296.154 21.8566 301.129 27.8475 301.129Z" fill="#2FFFD0"/>
</svg>
