<svg width="1680" height="698" viewBox="0 0 1680 698" fill="none" xmlns="http://www.w3.org/2000/svg">
<rect x="-2" width="1682" height="698" fill="#FF3366"/>
<path d="M161.452 429.679C222.198 346.071 203.874 229.202 120.526 168.646C37.178 108.09 -79.6327 126.778 -140.378 210.387" stroke="#2FFFD0" stroke-width="60" stroke-linecap="round"/>
<path fill-rule="evenodd" clip-rule="evenodd" d="M100.96 530.017C120.277 530.017 135.936 514.358 135.936 495.041C135.936 475.724 120.277 460.064 100.96 460.064C81.6429 460.064 65.9834 475.724 65.9834 495.041C65.9834 514.358 81.6429 530.017 100.96 530.017Z" fill="#2FFFD0"/>
<path d="M1520.05 260.879L1832.88 574.808" stroke="#FFCA0C" stroke-width="60" stroke-linecap="round"/>
<path fill-rule="evenodd" clip-rule="evenodd" d="M1460.38 234.953C1479.7 234.953 1495.36 219.294 1495.36 199.977C1495.36 180.66 1479.7 165 1460.38 165C1441.06 165 1425.4 180.66 1425.4 199.977C1425.4 219.294 1441.06 234.953 1460.38 234.953Z" fill="#FFCA0C"/>
</svg>
