<svg width="28" height="28" viewBox="0 0 28 28" fill="none" xmlns="http://www.w3.org/2000/svg">
<path d="M14 0C21.7308 0 28 6.2692 28 14C28 21.7308 21.7308 28 14 28C6.2692 28 0 21.7308 0 14C0 6.2692 6.2692 0 14 0Z" fill="#55ACEE"/>
<path d="M10.7523 21.1118C17.3547 21.1118 20.9695 15.6406 20.9695 10.8946C20.9695 10.7406 20.9695 10.5838 20.9583 10.4298C21.6611 9.9202 22.2687 9.293 22.7503 8.5706C22.0951 8.8618 21.4007 9.0522 20.6895 9.1362C21.4399 8.6882 21.9999 7.9826 22.2687 7.151C21.5631 7.5682 20.7931 7.865 19.9895 8.0218C18.6287 6.577 16.3551 6.50699 14.9103 7.865C13.9779 8.7414 13.5831 10.049 13.8715 11.295C10.9847 11.1494 8.29386 9.7858 6.47106 7.543C5.51906 9.1838 6.00346 11.281 7.58266 12.3366C7.01146 12.3198 6.45146 12.1658 5.95306 11.8886C5.95306 11.9026 5.95306 11.9194 5.95306 11.9334C5.95306 13.6414 7.15706 15.1142 8.83426 15.453C8.30506 15.5958 7.75066 15.6182 7.21306 15.5146C7.68346 16.9762 9.03026 17.9786 10.5675 18.0094C9.29626 19.009 7.72546 19.5522 6.10986 19.5494C5.82426 19.5494 5.53866 19.5326 5.25586 19.4962C6.89106 20.5518 8.80346 21.1118 10.7523 21.1118Z" fill="white"/>
</svg>
