<svg width="28" height="28" viewBox="0 0 28 28" fill="none" xmlns="http://www.w3.org/2000/svg">
<path d="M14 28C6.2692 28 0 21.7308 0 14C0 6.2692 6.2692 0 14 0C21.7308 0 28 6.2692 28 14C28 21.7308 21.7308 28 14 28Z" fill="#CD201F"/>
<path d="M22.9097 9.49602C22.6969 8.68962 22.0669 8.05682 21.2661 7.84122C19.8157 7.44922 14.0029 7.44922 14.0029 7.44922C14.0029 7.44922 8.1873 7.44922 6.7397 7.84122C5.9389 8.05682 5.3089 8.68962 5.0961 9.49602C4.7041 10.9548 4.7041 14.0012 4.7041 14.0012C4.7041 14.0012 4.7041 17.0476 5.0933 18.5064C5.3061 19.3128 5.9361 19.9456 6.7369 20.1612C8.1873 20.5532 14.0001 20.5532 14.0001 20.5532C14.0001 20.5532 19.8157 20.5532 21.2633 20.1612C22.0641 19.9456 22.6941 19.3128 22.9069 18.5064C23.2961 17.0476 23.2961 14.0012 23.2961 14.0012C23.2961 14.0012 23.2961 10.9548 22.9097 9.49602ZM12.0989 16.7648V11.2376L16.9569 14.0012L12.0989 16.7648Z" fill="white"/>
</svg>
